<svg width="151" height="36" viewBox="0 0 151 36" fill="none" xmlns="http://www.w3.org/2000/svg" role="presentation" aria-hidden="true">
<path d="M143.499 0.217285H148.985V11.1904H143.499V0.217285ZM134.003 5.70385L133.686 5.80937C133.686 5.80937 135.585 7.39203 135.585 7.49754C135.691 7.60305 135.796 7.60305 135.691 7.91958C135.585 8.23612 135.48 8.55265 135.48 8.55265C135.48 8.55265 137.168 8.23612 137.379 8.13061C137.59 8.13061 137.695 8.13061 137.695 8.34163C137.695 8.55265 137.59 10.3463 137.59 10.3463H138.118C138.118 10.3463 138.012 8.44714 138.012 8.34163C138.012 8.13061 138.118 8.13061 138.329 8.13061C138.54 8.13061 140.228 8.55265 140.228 8.55265C140.228 8.55265 140.122 8.13061 140.017 7.91958C139.911 7.60305 140.017 7.60305 140.122 7.49754C140.228 7.39203 142.021 5.80937 142.021 5.80937L141.705 5.70385C141.494 5.59834 141.599 5.49283 141.599 5.38732C141.599 5.28181 141.916 4.2267 141.916 4.2267C141.916 4.2267 141.072 4.43772 140.966 4.43772C140.861 4.43772 140.755 4.43772 140.755 4.33221C140.755 4.2267 140.544 3.80466 140.544 3.80466C140.544 3.80466 139.595 4.85977 139.489 4.96528C139.278 5.1763 139.067 4.96528 139.173 4.75426C139.173 4.54323 139.7 2.3275 139.7 2.3275C139.7 2.3275 139.173 2.64404 138.962 2.74955C138.751 2.85506 138.645 2.85506 138.645 2.64404C138.54 2.43302 137.906 1.27239 137.906 1.16688C137.906 1.16688 137.273 2.43302 137.168 2.64404C137.062 2.85506 136.957 2.85506 136.851 2.74955C136.64 2.64404 136.113 2.3275 136.113 2.3275C136.113 2.3275 136.64 4.54323 136.64 4.75426C136.64 4.96528 136.535 5.07079 136.324 4.96528L135.269 3.80466C135.269 3.80466 135.163 4.12119 135.058 4.2267C135.058 4.33221 134.952 4.43772 134.847 4.33221C134.636 4.33221 133.792 4.12119 133.792 4.12119C133.792 4.12119 134.108 5.1763 134.214 5.28181C134.214 5.38732 134.214 5.59834 134.003 5.70385ZM126.933 0.217285H132.42V11.1904H126.933V0.217285Z" fill="var(--fl-linkFgColor, #FF0000)"/>
<path d="M150.146 33.1366C149.724 34.0862 148.88 34.4028 148.352 34.4028C147.719 34.4028 145.82 34.2973 145.82 29.3383C145.82 29.3383 145.82 19.3147 145.82 18.6816C145.82 15.4108 143.287 12.773 136.746 12.773C129.677 12.773 129.571 16.2549 129.571 17.099C129.466 18.0486 129.993 19.1037 131.787 19.1037C133.369 19.1037 133.791 17.31 134.002 16.6769C134.214 15.9384 134.319 13.8281 137.168 13.8281C139.595 13.8281 141.072 15.9384 141.177 18.9982C141.177 19.5257 141.177 19.8423 141.177 20.1588C141.177 20.3698 141.177 20.4753 141.177 20.6864V20.7919C140.966 21.847 140.439 22.3745 139.489 22.7966C138.223 23.4296 134.53 23.9572 134.108 24.0627C132.631 24.3792 128.516 25.4343 128.621 29.7603C128.727 33.9807 132.947 35.4579 135.902 35.3524C138.75 35.2469 140.439 34.0862 141.177 33.4532C141.599 33.1366 141.599 33.1367 141.916 33.5587C142.338 33.9807 143.709 35.3524 146.98 35.3524C150.357 35.3524 150.779 33.7697 150.99 33.2422C151.095 32.9256 150.357 32.6091 150.146 33.1366ZM136.957 34.2973C134.002 34.2973 133.264 31.8705 133.264 30.6044C133.264 29.4438 133.897 27.017 136.851 25.3288C136.851 25.3288 138.223 24.4847 140.861 23.4296C140.966 23.4296 141.072 23.4296 141.072 23.4296C141.072 23.4296 141.177 23.5352 141.177 23.6407V23.7462V23.8517V28.2831C141.177 31.765 139.489 34.2973 136.957 34.2973ZM127.25 34.1918C126.828 34.0862 124.19 34.4028 124.19 26.3839C124.19 18.3651 124.19 1.16683 124.19 1.16683C124.19 0.8503 124.19 0.0062129 123.24 0.0062129C122.291 0.0062129 115.96 0.322746 115.538 0.428257C115.116 0.428257 114.799 0.955811 115.538 0.955811C116.277 1.06132 119.653 1.27234 119.653 6.86442C119.653 9.60771 119.653 12.351 119.653 14.3557C119.653 14.4612 119.653 14.5667 119.653 14.5667C119.653 14.7777 119.653 14.8833 119.547 14.9888C119.547 14.9888 119.547 14.9888 119.547 15.0943C119.442 15.1998 119.336 15.0943 119.02 14.8833C118.492 14.4612 116.066 12.9841 113.006 12.9841C108.047 12.9841 101.927 16.5714 101.927 23.9572C101.927 31.8705 107.519 35.6689 113.322 35.6689C116.171 35.6689 118.176 34.4028 118.914 33.9807C119.758 33.4532 119.653 33.5587 119.758 34.2973C119.864 34.8248 119.759 35.8799 121.236 35.7744C122.818 35.5634 126.617 35.1414 127.355 35.0358C128.094 34.7193 127.883 34.2973 127.25 34.1918ZM114.166 34.5083C109.524 34.5083 107.097 29.0217 107.097 23.7462C107.097 17.9431 110.368 14.0392 113.85 14.2502C118.387 14.5667 119.547 18.1541 119.653 24.5903C119.653 25.0123 119.653 25.4343 119.653 25.9619C119.547 32.2926 116.91 34.5083 114.166 34.5083ZM101.822 33.1366C101.4 34.0862 100.556 34.4028 100.028 34.4028C99.3949 34.4028 97.4957 34.2973 97.4957 29.3383C97.4957 29.3383 97.4957 19.3147 97.4957 18.6816C97.4957 15.4108 94.9634 12.773 88.4218 12.773C81.3525 12.773 81.247 16.2549 81.247 17.099C81.1415 18.0486 81.669 19.1037 83.4627 19.1037C85.0454 19.1037 85.4674 17.31 85.6785 16.6769C85.8895 15.9384 85.995 13.8281 88.8438 13.8281C91.2705 13.8281 92.8532 15.9384 92.8532 19.1037V19.2092C92.8532 19.3147 92.8532 19.4202 92.8532 19.4202V19.7368C92.8532 19.8423 92.8532 20.0533 92.8532 20.1588C92.7477 21.7415 92.3257 22.269 91.0595 22.9021C89.7934 23.5352 86.1005 24.0627 85.6785 24.1682C84.2013 24.4847 80.0864 25.5399 80.1919 29.8658C80.2974 34.0862 84.5178 35.5634 87.4722 35.4579C90.3209 35.3524 92.0091 34.1918 92.7477 33.5587C93.1697 33.2422 93.1697 33.2422 93.4863 33.6642C93.9083 34.0862 95.28 35.4579 98.5508 35.4579C101.927 35.4579 102.349 33.8752 102.56 33.3477C102.771 32.9256 102.138 32.6091 101.822 33.1366ZM88.7383 34.2973C85.784 34.2973 85.0454 31.8705 85.0454 30.6044C85.0454 29.4438 85.6785 27.017 88.6328 25.3288C88.6328 25.3288 90.0044 24.4847 92.6422 23.4296C92.7477 23.4296 92.8532 23.4296 92.8532 23.4296V23.5352C92.8532 23.6407 92.8532 23.7462 92.8532 23.9572V23.8517C92.8532 23.8517 92.8532 23.8517 92.8532 23.9572V28.3887C92.8532 31.765 91.165 34.2973 88.7383 34.2973ZM78.6092 34.1918C77.7651 33.9807 76.288 33.0311 76.288 28.3887V19.9478C76.288 17.9431 76.499 12.773 68.5857 12.773C64.4708 12.773 62.1495 14.8833 61.9385 14.9888C61.622 15.3053 61.4109 15.4108 61.3054 14.8833C61.1999 14.4612 60.9889 13.8281 60.8834 13.4061C60.7779 13.0896 60.5669 12.773 59.8283 12.8785C59.0897 12.9841 54.4472 13.7226 53.6031 13.9337C52.8646 14.1447 53.0756 14.4612 53.6031 14.5667C54.1307 14.6722 56.663 14.8833 56.663 19.2092C56.663 23.5352 56.663 28.2831 56.663 28.2831C56.663 33.5587 55.6078 33.9807 54.6582 34.2973C53.3921 34.6138 54.0252 35.0358 54.5527 35.0358C54.5527 35.0358 63.9432 35.0358 64.1542 35.0358C64.7873 35.0358 65.1038 34.4028 63.8377 34.1918C62.5716 33.9807 61.4109 33.2422 61.4109 29.1272C61.4109 28.7052 61.4109 24.1682 61.4109 23.3241C61.4109 21.1084 60.8834 14.3557 67.003 14.2502C71.329 14.1447 71.751 17.732 71.751 20.0533V29.0217C71.751 32.7146 70.6959 33.8752 69.4298 34.0862C68.2692 34.2973 68.4802 34.8248 69.1132 34.8248C69.3243 34.8248 78.9258 34.8248 78.9258 34.8248C79.4533 35.0358 79.9809 34.5083 78.6092 34.1918ZM52.9701 33.1366C52.548 34.0862 51.7039 34.4028 51.1764 34.4028C50.5433 34.4028 48.6441 34.2973 48.6441 29.3383C48.6441 29.3383 48.6441 19.3147 48.6441 18.6816C48.6441 15.4108 46.1119 12.773 39.5702 12.773C32.5009 12.773 32.3954 16.2549 32.3954 17.099C32.2899 18.0486 32.8175 19.1037 34.6112 19.1037C36.1938 19.1037 36.6159 17.31 36.8269 16.6769C37.0379 15.9384 37.1434 13.8281 39.9922 13.8281C42.419 13.8281 43.8961 15.9384 44.0016 18.9982C44.0016 19.5257 44.0016 19.8423 44.0016 20.1588C44.0016 20.3698 44.0016 20.5808 43.8961 20.6864V20.7919C43.6851 21.847 43.1575 22.3745 42.208 22.7966C40.9418 23.4296 37.2489 23.9572 36.8269 24.0627C35.3497 24.3792 31.2348 25.4343 31.3403 29.7603C31.4458 33.9807 35.6663 35.4579 38.6206 35.3524C41.4694 35.2469 43.1575 34.0862 43.8961 33.4532C44.3182 33.1366 44.3182 33.1367 44.6347 33.5587C45.0567 33.9807 46.4284 35.3524 49.6992 35.3524C53.0756 35.3524 53.4976 33.7697 53.7086 33.2422C53.9197 32.9256 53.1811 32.6091 52.9701 33.1366ZM39.7812 34.2973C36.8269 34.2973 36.0883 31.8705 36.0883 30.6044C36.0883 29.3383 36.7214 27.017 39.6757 25.3288C39.6757 25.3288 41.0473 24.4847 43.6851 23.4296C43.7906 23.4296 43.8961 23.4296 43.8961 23.4296C43.8961 23.4296 44.0016 23.5352 44.0016 23.6407C44.0016 23.6407 44.0016 23.7462 44.0016 23.8517V23.9572V28.3887C44.0016 31.765 42.3135 34.2973 39.7812 34.2973ZM29.6521 25.1178C28.597 28.4942 26.5923 33.9807 19.3121 34.1918C11.7153 34.2973 7.17831 29.1272 6.96729 19.5257C6.65076 9.29117 11.0822 1.48337 17.9404 1.27234C25.6427 1.16683 28.386 10.3463 28.4915 11.7179C28.597 12.773 29.9687 12.6675 29.9687 11.6124C29.9687 11.0849 29.3356 2.01092 29.1246 0.955811C28.9136 -0.0992981 28.0695 0.322746 27.8585 0.74479C27.7529 1.06132 27.964 0.428257 27.5419 1.37785C27.1199 2.32745 25.9593 1.7999 25.5372 1.69439C24.2711 1.16683 21.8443 -0.099298 17.9404 0.0062129C8.972 0.217235 -0.207452 6.86442 0.00357029 18.4706C0.214592 29.7603 9.28853 36.091 17.7294 35.9854C25.4317 35.8799 29.7577 31.0264 31.0238 25.4343C31.4458 24.0627 30.0742 23.7462 29.6521 25.1178Z" fill="currentColor"/>
</svg>
