<svg width="22" height="22" viewBox="0 0 22 22" fill="none" xmlns="http://www.w3.org/2000/svg">
<path d="M17.4166 3.66669H4.58325C3.85391 3.66669 3.15443 3.95642 2.63871 4.47214C2.12298 4.98787 1.83325 5.68734 1.83325 6.41669V15.5834C1.83325 16.3127 2.12298 17.0122 2.63871 17.5279C3.15443 18.0436 3.85391 18.3334 4.58325 18.3334H17.4166C18.1459 18.3334 18.8454 18.0436 19.3611 17.5279C19.8769 17.0122 20.1666 16.3127 20.1666 15.5834V6.41669C20.1666 5.68734 19.8769 4.98787 19.3611 4.47214C18.8454 3.95642 18.1459 3.66669 17.4166 3.66669ZM16.8024 5.50002L10.9999 9.85419L5.19742 5.50002H16.8024ZM17.4166 16.5H4.58325C4.34014 16.5 4.10698 16.4034 3.93507 16.2315C3.76316 16.0596 3.66659 15.8265 3.66659 15.5834V6.64585L10.4499 11.7334C10.6086 11.8524 10.8016 11.9167 10.9999 11.9167C11.1983 11.9167 11.3912 11.8524 11.5499 11.7334L18.3333 6.64585V15.5834C18.3333 15.8265 18.2367 16.0596 18.0648 16.2315C17.8929 16.4034 17.6597 16.5 17.4166 16.5Z" fill="black"/>
</svg>
