<svg width="215" height="46" viewBox="0 0 215 46" fill="none" xmlns="http://www.w3.org/2000/svg" role="presentation" aria-hidden="true">
<path d="M19.1112 45.6586H20.4937V36.7417H32.6719V35.3636H19.1112V45.6586ZM15.6549 45.6586H17.0374V26.8115H19.1112V33.2965H32.6719V31.9185H20.4733V26.8115H32.6516V25.4335H20.4733V23.3461H32.6516V21.968H15.6549V45.6586ZM17.0171 23.3664H19.1112V25.4537H17.0171V23.3664ZM40.296 18.0973L41.2109 14.5508L42.1258 18.0973H43.0814L44.7485 12.1594H43.61L42.6138 15.9694L41.6379 12.1594H40.8043L39.8081 15.9896L38.8525 12.1594H37.6937L39.3608 18.0973H40.296ZM48.9977 12.1594H47.8795V18.0973H48.9977V12.1594ZM55.4019 17.0435H53.4298V12.1594H52.3116V18.0973H55.4019V17.0435ZM61.3996 17.0435H59.4275V12.1594H58.3093V18.0973H61.3996V17.0435ZM65.4048 12.1594H64.2866V18.0973H65.4048V12.1594ZM69.9182 16.4355H71.748L72.3783 18.0973H73.5778L71.3617 12.2608L71.3211 12.1594H70.3859L68.1088 18.0973H69.288L69.9182 16.4355ZM70.8535 13.801L71.3821 15.3817H70.3249L70.8535 13.801ZM79.5348 16.2328L77.9286 12.1594H76.3835V18.0973H77.5017V13.9023L79.1892 18.0973H79.8804L81.5679 13.882V18.0973H82.6861V12.1594H81.1409L79.5348 16.2328ZM99.0729 15.6451H101.106V14.5913H99.0729V13.193H101.106V12.1594H97.9547V18.0973H99.0729V15.6451ZM105.477 12.1594H104.359V18.0973H107.449V17.0435H105.477V12.1594ZM116.232 15.1385C116.232 13.4159 114.87 12.0581 113.142 12.0581C111.414 12.0581 110.052 13.4362 110.052 15.1385C110.052 16.8408 111.434 18.2189 113.142 18.2189C114.829 18.2189 116.232 16.8205 116.232 15.1385ZM111.17 15.1182C111.17 14.2671 111.78 13.0917 113.142 13.0917C114.504 13.0917 115.114 14.2873 115.114 15.1385C115.114 15.9896 114.504 17.1448 113.142 17.1448C111.78 17.1448 111.17 15.9694 111.17 15.1182ZM123.206 18.0973L121.6 15.9694C122.169 15.8681 123.104 15.4222 123.104 14.1252C123.104 12.8282 122.901 13.0309 122.535 12.6863C122.169 12.3216 121.661 12.1797 120.929 12.1797H119.038V18.1175H120.156V15.7667L121.823 18.0973H123.206ZM120.136 15.0777V13.2132H120.868C121.681 13.2132 121.986 13.6794 121.986 14.1252C121.986 14.571 121.518 15.0777 120.563 15.0777H120.136ZM127.821 16.4355H129.651L130.281 18.0973H131.48L129.264 12.2608L129.224 12.1594H128.288L126.032 18.0973H127.211L127.821 16.4355ZM128.756 13.801L129.285 15.3817H128.227L128.756 13.801ZM48.2861 28.757H40.967V22.3733H39.2998V36.8228H40.967V30.277H48.2861V36.8228H49.9532V22.3733H48.2861V28.757ZM57.2724 25.8793C54.1414 25.9401 51.5797 28.5138 51.5797 31.6348C51.5797 34.7557 54.1414 37.0862 57.2927 37.0862C60.444 37.0862 61.8875 35.8095 62.6804 33.5195L62.7211 33.3776H61.0336V33.4384C60.6067 34.553 59.3665 35.85 57.2521 35.8906C55.219 35.8906 53.3485 34.1882 53.2062 32.2225H62.9854V32.1211C63.0667 30.8241 62.7821 29.669 62.1518 28.676C61.3996 27.3384 59.6918 25.8996 57.2724 25.8793ZM53.2265 30.7836C53.6331 28.5138 55.5646 27.3384 57.2927 27.3384C59.0209 27.3384 60.9116 28.4125 61.3792 30.7836H53.2265ZM74.0048 34.9583L71.5854 27.4398H70.2232L67.8242 34.9583L64.5305 26.2238V26.163H62.8431L66.9906 36.762V36.8228H68.7187L70.8941 30.1351L73.1102 36.8228H74.818L79.0062 26.1428H77.3594L74.0048 34.9583ZM80.2464 36.8228H81.8322V22.3733H80.2464V36.8228ZM88.948 25.8793C85.8171 25.9401 83.2554 28.5138 83.2554 31.6348C83.2554 34.7557 85.8171 37.0862 88.9684 37.0862C92.1197 37.0862 93.5632 35.8095 94.3561 33.5195L94.3967 33.3776H92.7093V33.4384C92.3026 34.553 91.0625 35.85 88.948 35.8906C86.9149 35.8906 85.0445 34.1882 84.9022 32.2225H94.6814V32.1211C94.7627 30.8241 94.4781 29.669 93.8478 28.676C93.0752 27.3384 91.3877 25.8996 88.948 25.8793ZM84.9022 30.7836C85.3088 28.5138 87.2402 27.3384 88.9684 27.3384C90.6965 27.3384 92.5873 28.4125 93.0549 30.7836H84.9022ZM104.522 22.3733H102.936V26.1428H98.6459V22.3531H97.0601V26.1428H94.8033V27.6019H97.0601V36.8228H98.6459V27.6019H102.936V36.8228H104.522V27.6019H107.104V26.1428H104.522V22.3733ZM189.241 36.8228H190.826V25.8793H189.241V36.8228ZM185.093 22.1099H183.507V25.8996H181.251V27.3587H183.507V36.843H185.093V27.3587H187.675V25.8996H185.093V22.1099ZM213.638 26.9534C212.703 26.0212 211.625 25.6158 210.161 25.6158C208.697 25.6158 207.518 26.3454 206.929 27.0952V25.8996H205.343V36.843H206.929V30.8241C206.929 29.6082 207.254 28.5746 207.904 27.9667C208.758 27.1358 209.856 27.075 210.161 27.075C210.466 27.075 211.564 27.1358 212.418 27.9667C213.048 28.5746 213.414 29.6082 213.414 30.8241V36.8228H215V30.8241C215 29.1623 214.532 27.8248 213.638 26.9534ZM189.241 24.785H190.826V22.1099H189.241V24.785ZM178.364 27.5816C177.083 25.7982 175.07 25.6158 174.236 25.6158C170.557 25.6158 168.34 28.5138 168.34 31.3308C168.34 34.1477 170.922 37.0862 174.236 37.0862C177.55 37.0862 177.042 36.8836 178.364 35.1205V36.8228H179.949V25.8793H178.364V27.5816ZM174.257 35.6271C171.817 35.6271 169.967 33.8032 169.967 31.3916C169.967 28.98 172.122 27.075 174.257 27.075C176.392 27.075 178.445 29.0002 178.445 31.3713C178.445 33.7424 176.595 35.6271 174.257 35.6271ZM198.247 25.6158C195.503 25.6158 192.534 27.8451 192.534 31.4321C192.534 35.0191 195.157 37.0862 198.247 37.0862C201.338 37.0862 204.001 34.4517 204.001 31.351C204.001 28.2301 201.358 25.6158 198.247 25.6158ZM198.268 35.6271C195.991 35.6271 194.12 33.7221 194.12 31.4118C194.12 29.1015 196.275 27.075 198.268 27.075C200.26 27.075 202.415 28.4125 202.415 31.2902C202.415 34.0058 200.301 35.6271 198.268 35.6271ZM126.093 25.6158C123.348 25.6158 120.38 27.8451 120.38 31.4321C120.38 35.0191 123.002 37.0862 126.093 37.0862C129.183 37.0862 131.846 34.4517 131.846 31.351C131.846 28.2504 129.203 25.6158 126.093 25.6158ZM126.113 35.6271C123.836 35.6271 121.966 33.7221 121.966 31.4118C121.966 29.1015 124.121 27.075 126.113 27.075C128.105 27.075 130.261 28.4125 130.261 31.2902C130.261 34.0058 128.146 35.6271 126.113 35.6271ZM111.82 36.8228H113.488V30.1959H119.18V28.676H113.488V23.6298H119.383V22.1099H111.82V36.8228ZM165.616 27.5614C164.234 25.7577 162.119 25.6158 161.489 25.6158C157.809 25.6158 155.593 28.5138 155.593 31.3308C155.593 34.1477 158.175 37.0862 161.489 37.0862C164.803 37.0862 164.518 36.5593 165.616 35.1205V36.8228H167.202V22.1099H165.616V27.5614ZM161.509 35.6271C159.07 35.6271 157.219 33.8032 157.219 31.3916C157.219 28.98 159.374 27.075 161.509 27.075C163.644 27.075 165.697 29.0002 165.697 31.3713C165.697 33.7424 163.847 35.6271 161.509 35.6271ZM141.158 31.655C141.158 33.56 140.65 34.2288 140.06 34.7962C139.491 35.3636 138.779 35.6271 137.864 35.6271C136.949 35.6271 136.035 35.3028 135.445 34.6543C134.937 34.0261 134.693 33.1344 134.693 31.8982V25.8996H133.107V31.9185C133.107 33.4587 133.432 34.6543 134.083 35.4447C134.571 36.0527 135.73 37.0862 137.864 37.0862C139.999 37.0862 140.833 36.0121 141.239 35.4042V36.843H142.744V25.8996H141.158V31.655ZM149.514 25.6158C147.969 25.6158 146.871 26.3454 146.281 27.0952V25.8996H144.696V36.843H146.281V30.8241C146.281 29.6082 146.607 28.5746 147.257 27.9667C148.111 27.1358 149.209 27.075 149.514 27.075C149.819 27.075 150.917 27.1358 151.771 27.9667C152.401 28.5746 152.767 29.6082 152.767 30.8241V36.8228H154.353V30.8241C154.353 29.1623 153.885 27.8451 152.991 26.9737C152.055 26.0212 150.978 25.6158 149.514 25.6158Z" fill="currentColor" />
<path d="M0 25.4132H1.38251V0H0V25.4132ZM19.1111 11.0651H17.017V0H15.6548V11.0651H4.79811V0H3.4156V12.4431H15.6548V14.5102H3.45626V25.3929H4.83877V15.868H15.6548V21.968H17.0373V15.8883H19.1111V21.9883H20.4936V0.0202657H19.1111V11.0651ZM19.1111 14.5102H17.017V12.4431H19.1111V14.5102ZM90.7574 14.5913V13.0511H89.6596V14.5913H88.1347V15.6856H89.6596V17.2258H90.7574V15.6856H92.2822V14.5913H90.7574Z" fill="currentColor"/>
</svg>
