<svg xmlns="http://www.w3.org/2000/svg" fill="none" viewBox="0 0 20 18" role="presentation" aria-hidden="true"><path stroke="currentColor" stroke-linecap="round" stroke-linejoin="round" stroke-width="1.5" d="M10 3.217A9.142 9.142 0 0 0 4 1a9.25 9.25 0 0 0-3 .495v13.783a9.263 9.263 0 0 1 3-.495A9.14 9.14 0 0 1 10 17m0-13.783A9.14 9.14 0 0 1 16 1a9.25 9.25 0 0 1 3 .495v13.783a9.263 9.263 0 0 0-3-.495A9.142 9.142 0 0 0 10 17"/><path fill="#000" d="M9.035 11.983 8.538 10.4H6.053l-.497 1.582H4L6.41 5.33h1.772l2.42 6.653H9.036Zm-.843-2.756-.497-1.54c-.032-.105-.075-.23-.119-.398a6.602 6.602 0 0 1-.15-.492 7.852 7.852 0 0 1-.13-.44c-.033.125-.076.272-.13.46-.054.179-.108.357-.162.524-.054.168-.087.283-.108.346l-.486 1.54h1.782ZM13.487 6.818c.702 0 1.242.146 1.61.44.378.293.562.744.562 1.351v3.374h-.994l-.27-.692h-.033a2.96 2.96 0 0 1-.454.44 1.499 1.499 0 0 1-.54.252 3.003 3.003 0 0 1-.735.084 1.93 1.93 0 0 1-.832-.168 1.3 1.3 0 0 1-.572-.524c-.14-.24-.206-.534-.206-.9 0-.535.195-.933.584-1.195.389-.252.972-.398 1.75-.42l.908-.03v-.22c0-.263-.076-.462-.216-.587-.14-.126-.346-.19-.594-.19-.249 0-.498.032-.746.106a5.951 5.951 0 0 0-.724.262l-.475-.933a4.02 4.02 0 0 1 .929-.335 4.524 4.524 0 0 1 1.07-.126l-.022.01Zm.756 2.818-.55.02c-.465.011-.779.095-.962.242a.713.713 0 0 0-.27.587c0 .21.064.366.194.45.13.094.292.136.497.136.303 0 .562-.083.778-.262.205-.178.313-.43.313-.743v-.43Zm1.08-4.767v.094a6.467 6.467 0 0 1-.356.315c-.151.125-.302.251-.475.387l-.497.388c-.162.126-.303.22-.422.304h-.95V6.23c.108-.115.227-.251.356-.409.13-.157.27-.324.4-.492.13-.168.248-.325.335-.461h1.609Z"/></svg>
