<svg id="logo-wordmark" xmlns="http://www.w3.org/2000/svg" viewBox="0 0 289 74" aria-hidden="true" focusable="false"><path d="M73,14.18a2.47,2.47,0,0,1,.19-1,1.9,1.9,0,0,1,.52-.67,1.92,1.92,0,0,1,.78-.36,4.58,4.58,0,0,1,1.88,0,2,2,0,0,1,.77.36,1.77,1.77,0,0,1,.53.68,2.73,2.73,0,0,1,0,2,1.8,1.8,0,0,1-.53.69,2,2,0,0,1-.77.36,4,4,0,0,1-1.88,0,1.92,1.92,0,0,1-.78-.36,1.86,1.86,0,0,1-.52-.69A2.49,2.49,0,0,1,73,14.18Zm4.66,20.61H73.19V18.42h4.47Z"/><path d="M96,34.79H91.5V25.23a5.19,5.19,0,0,0-.5-2.66,1.86,1.86,0,0,0-1.71-.89,2.77,2.77,0,0,0-1.46.35,2.49,2.49,0,0,0-.93,1,5.48,5.48,0,0,0-.49,1.69A15,15,0,0,0,86.26,27v7.7H81.75V18.42h3.42l.6,2.09H86a4.23,4.23,0,0,1,.85-1.08A4.84,4.84,0,0,1,88,18.68a5.14,5.14,0,0,1,1.27-.43,7,7,0,0,1,3.56.2,4.26,4.26,0,0,1,1.69,1.08A4.69,4.69,0,0,1,95.6,21.4a8.32,8.32,0,0,1,.4,2.71Z"/><path d="M106.85,35.09a9.73,9.73,0,0,1-3.17-.49,6.17,6.17,0,0,1-2.42-1.5,6.51,6.51,0,0,1-1.53-2.61,11.65,11.65,0,0,1-.54-3.8,13.2,13.2,0,0,1,.55-4.09,6.71,6.71,0,0,1,1.55-2.6,5.88,5.88,0,0,1,2.42-1.42,11.11,11.11,0,0,1,3.14-.42,10.09,10.09,0,0,1,2.51.31,10.27,10.27,0,0,1,2.34.86l-1.29,3.4a15.42,15.42,0,0,0-1.86-.7,6.1,6.1,0,0,0-1.7-.27A2.5,2.5,0,0,0,104.5,23a7.43,7.43,0,0,0-.74,3.71,7,7,0,0,0,.74,3.63,2.49,2.49,0,0,0,2.3,1.18,7.55,7.55,0,0,0,2.31-.33,16.17,16.17,0,0,0,2.12-.85V34l-1,.47a9,9,0,0,1-1,.33,8,8,0,0,1-1.09.2Q107.49,35.07,106.85,35.09Z"/><path d="M119,34.79h-4.47V12H119Z"/><path d="M133.81,34.79l-.6-2.09H133a4.49,4.49,0,0,1-.87,1.07,4.58,4.58,0,0,1-1.11.74,5.62,5.62,0,0,1-1.27.44,7.1,7.1,0,0,1-1.38.14,6.47,6.47,0,0,1-2.18-.35,4.26,4.26,0,0,1-1.69-1.08,4.72,4.72,0,0,1-1.08-1.86,8.3,8.3,0,0,1-.38-2.71V18.42h4.46V28a5.2,5.2,0,0,0,.54,2.66,1.83,1.83,0,0,0,1.7.89,2.81,2.81,0,0,0,1.47-.36,2.42,2.42,0,0,0,.93-1,5.62,5.62,0,0,0,.49-1.7,14.94,14.94,0,0,0,.15-2.31v-7.7h4.46V34.79Z"/><path d="M152.5,29.93a5.18,5.18,0,0,1-.47,2.26,4.33,4.33,0,0,1-1.33,1.61,5.9,5.9,0,0,1-2.1,1,10.62,10.62,0,0,1-2.75.33q-.81,0-1.5-.06a11.26,11.26,0,0,1-1.3-.16,12.18,12.18,0,0,1-1.19-.3,8.13,8.13,0,0,1-1.16-.44V30.44A12.42,12.42,0,0,0,142,31a13.39,13.39,0,0,0,1.36.43,11.78,11.78,0,0,0,1.31.29,6.64,6.64,0,0,0,1.18.1,4.2,4.2,0,0,0,1-.11,2,2,0,0,0,.7-.31,1.19,1.19,0,0,0,.39-.47,1.4,1.4,0,0,0,.13-.57,1.28,1.28,0,0,0-.1-.55,1.37,1.37,0,0,0-.43-.52,7.85,7.85,0,0,0-1-.61c-.44-.23-1-.51-1.75-.84s-1.25-.64-1.85-1a5.11,5.11,0,0,1-1.29-1.07,3.88,3.88,0,0,1-.76-1.34,6,6,0,0,1-.25-1.79,4.46,4.46,0,0,1,.44-2,4,4,0,0,1,1.25-1.43,5.35,5.35,0,0,1,1.94-.85,10.15,10.15,0,0,1,2.52-.29,10.93,10.93,0,0,1,2.79.34,13.77,13.77,0,0,1,2.71,1L151,22.62a18.45,18.45,0,0,0-2.12-.86,6.18,6.18,0,0,0-2-.34,2.15,2.15,0,0,0-1.31.32,1.07,1.07,0,0,0-.4.88,1.15,1.15,0,0,0,.1.52,1.33,1.33,0,0,0,.41.47,5.94,5.94,0,0,0,.87.53c.37.19.85.42,1.45.69s1.32.61,1.87.9a6.51,6.51,0,0,1,1.44,1,3.87,3.87,0,0,1,.92,1.34A4.53,4.53,0,0,1,152.5,29.93Z"/><path d="M155.35,14.18a2.65,2.65,0,0,1,.19-1,1.9,1.9,0,0,1,.52-.67,2.06,2.06,0,0,1,.78-.36,4.32,4.32,0,0,1,.95-.1,4.2,4.2,0,0,1,.93.1,2,2,0,0,1,.77.36,1.82,1.82,0,0,1,.53.67,2.8,2.8,0,0,1,0,2.09,1.77,1.77,0,0,1-.53.68,2,2,0,0,1-.77.37,4.15,4.15,0,0,1-.93.11,4.33,4.33,0,0,1-.95-.11,1.88,1.88,0,0,1-.78-.37,1.82,1.82,0,0,1-.52-.68A2.73,2.73,0,0,1,155.35,14.18ZM160,34.79h-4.47V18.42H160Z"/><path d="M168,34.79l-5.78-16.37h4.67l2.71,9.33a17.48,17.48,0,0,1,.43,1.73,12.63,12.63,0,0,1,.23,1.62h.09a10.08,10.08,0,0,1,.23-1.65c.12-.58.26-1.15.43-1.7l2.69-9.33h4.69L172.6,34.79Z"/><path d="M187.21,35.09a9.9,9.9,0,0,1-3.24-.52,6.63,6.63,0,0,1-4.21-4.15,10.82,10.82,0,0,1-.59-3.7,12,12,0,0,1,.54-3.76,7.41,7.41,0,0,1,1.52-2.69,6.06,6.06,0,0,1,2.34-1.62,8.12,8.12,0,0,1,3-.54,8.41,8.41,0,0,1,2.94.49,6,6,0,0,1,2.26,1.4,6.52,6.52,0,0,1,1.41,2.34,9.47,9.47,0,0,1,.49,3.17v2.17h-10a5.37,5.37,0,0,0,.3,1.69,3.59,3.59,0,0,0,.76,1.27,3.21,3.21,0,0,0,1.19.8,4.14,4.14,0,0,0,1.59.28,13.33,13.33,0,0,0,1.41-.08,9.59,9.59,0,0,0,1.3-.24,9,9,0,0,0,1.24-.41c.43-.17.85-.35,1.26-.56v3.46a10.31,10.31,0,0,1-1.18.52,9.35,9.35,0,0,1-1.25.36,11.3,11.3,0,0,1-1.42.21A10.67,10.67,0,0,1,187.21,35.09Zm-.57-13.8a2.56,2.56,0,0,0-2,.83,4.14,4.14,0,0,0-.9,2.62h5.7a5.8,5.8,0,0,0-.19-1.37,3.45,3.45,0,0,0-.53-1.09,2.57,2.57,0,0,0-.88-.73A2.62,2.62,0,0,0,186.64,21.29Z"/><path d="M206.06,35.09A4.82,4.82,0,0,1,202,32.94a8.24,8.24,0,0,1-1.17-2.64,14.17,14.17,0,0,1-.42-3.67,14.37,14.37,0,0,1,.42-3.69A8.18,8.18,0,0,1,202,20.27a5,5,0,0,1,1.84-1.62,5.2,5.2,0,0,1,2.36-.54,5.88,5.88,0,0,1,1.45.18,4.16,4.16,0,0,1,1.18.52,4.67,4.67,0,0,1,.95.76,6.13,6.13,0,0,1,.74.94h.14c-.06-.38-.11-.77-.16-1.16s-.09-.68-.12-1.06a8.34,8.34,0,0,1,0-1V12h4.46V34.79h-3.41l-.86-2.12h-.19a7.24,7.24,0,0,1-.71.94,4,4,0,0,1-.91.77,4.55,4.55,0,0,1-1.17.52A5.63,5.63,0,0,1,206.06,35.09Zm1.63-3.56a3.14,3.14,0,0,0,1.35-.27,2.29,2.29,0,0,0,.9-.82,4.2,4.2,0,0,0,.51-1.37,10.32,10.32,0,0,0,.18-1.92v-.49a13.52,13.52,0,0,0-.14-2.11A5,5,0,0,0,210,23a2.44,2.44,0,0,0-.91-1,3.13,3.13,0,0,0-1.44-.32A2.17,2.17,0,0,0,205.6,23a8.16,8.16,0,0,0-.66,3.68,7.8,7.8,0,0,0,.66,3.63A2.23,2.23,0,0,0,207.69,31.53Z"/><path d="M226.15,35.09a9.84,9.84,0,0,1-3.23-.52A6.74,6.74,0,0,1,220.37,33a7.05,7.05,0,0,1-1.66-2.61,10.37,10.37,0,0,1-.6-3.7,11.39,11.39,0,0,1,.55-3.76,7.39,7.39,0,0,1,1.51-2.69,6.09,6.09,0,0,1,2.35-1.62,9,9,0,0,1,6,0,5.82,5.82,0,0,1,2.2,1.38,6.52,6.52,0,0,1,1.41,2.34,9.73,9.73,0,0,1,.49,3.17v2.17h-10a5.37,5.37,0,0,0,.3,1.69,3.5,3.5,0,0,0,.76,1.27,3.17,3.17,0,0,0,1.18.8,4.14,4.14,0,0,0,1.59.28,13.52,13.52,0,0,0,1.42-.08,9.45,9.45,0,0,0,1.29-.24,9.13,9.13,0,0,0,1.25-.41c.43-.17.85-.35,1.26-.56v3.46a10.31,10.31,0,0,1-1.18.52,10.18,10.18,0,0,1-2.67.57A10.72,10.72,0,0,1,226.15,35.09Zm-.57-13.8a2.56,2.56,0,0,0-2,.83,4.16,4.16,0,0,0-.9,2.62h5.7a5.33,5.33,0,0,0-.19-1.37,3,3,0,0,0-.53-1.09,2.45,2.45,0,0,0-.87-.73,2.67,2.67,0,0,0-1.21-.26Z"/><path d="M247,29.93a5.17,5.17,0,0,1-.46,2.26,4.36,4.36,0,0,1-1.34,1.61,5.78,5.78,0,0,1-2.09,1,10.69,10.69,0,0,1-2.76.33,12,12,0,0,1-1.49-.06,11.26,11.26,0,0,1-1.3-.16,12.18,12.18,0,0,1-1.19-.3,8.13,8.13,0,0,1-1.16-.44V30.44a14.4,14.4,0,0,0,2.65,1c.45.12.89.22,1.32.29a6.6,6.6,0,0,0,1.17.1,4.2,4.2,0,0,0,1-.11,2.2,2.2,0,0,0,.7-.31,1.19,1.19,0,0,0,.39-.47,1.39,1.39,0,0,0,.12-.57,1.71,1.71,0,0,0-.09-.55,1.37,1.37,0,0,0-.43-.52,7.85,7.85,0,0,0-1-.61c-.44-.23-1-.51-1.75-.84a12.18,12.18,0,0,1-1.86-1,5.48,5.48,0,0,1-1.28-1.07,3.88,3.88,0,0,1-.76-1.34,5.7,5.7,0,0,1-.25-1.79,4.46,4.46,0,0,1,.44-2,3.91,3.91,0,0,1,1.25-1.43,5.35,5.35,0,0,1,1.94-.85,10.15,10.15,0,0,1,2.52-.29,10.93,10.93,0,0,1,2.79.34,14.7,14.7,0,0,1,2.71,1l-1.35,3.16a17.89,17.89,0,0,0-2.13-.86,6.18,6.18,0,0,0-2-.34,2.15,2.15,0,0,0-1.31.32,1.07,1.07,0,0,0-.4.88,1.15,1.15,0,0,0,.1.52,1.33,1.33,0,0,0,.41.47,5.46,5.46,0,0,0,.87.53c.37.19.85.42,1.45.69s1.31.61,1.87.9a6.51,6.51,0,0,1,1.44,1,4,4,0,0,1,.92,1.34A4.82,4.82,0,0,1,247,29.93Z"/><path d="M249.88,14.18a2.65,2.65,0,0,1,.19-1,1.9,1.9,0,0,1,.52-.67,1.92,1.92,0,0,1,.78-.36,4.47,4.47,0,0,1,1.88,0,2,2,0,0,1,.77.36,1.82,1.82,0,0,1,.53.67,2.8,2.8,0,0,1,0,2.09A1.77,1.77,0,0,1,254,16a2,2,0,0,1-.77.37,4.07,4.07,0,0,1-1.88,0,1.88,1.88,0,0,1-.78-.37,1.66,1.66,0,0,1-.52-.68A2.73,2.73,0,0,1,249.88,14.18Zm4.66,20.61h-4.47V18.42h4.47Z"/><path d="M272.29,18.44v2.44l-2.39.74a4,4,0,0,1,.41,1,5.54,5.54,0,0,1,.12,1.15A6.32,6.32,0,0,1,270,26a4.69,4.69,0,0,1-1.17,1.77A5.16,5.16,0,0,1,266.91,29a8.15,8.15,0,0,1-2.73.41h-.73a3.68,3.68,0,0,1-.58-.08,2.07,2.07,0,0,0-.46.52,1.13,1.13,0,0,0-.17.65.65.65,0,0,0,.19.49,1.54,1.54,0,0,0,.49.3,3,3,0,0,0,.72.14,6,6,0,0,0,.85,0H267a7.64,7.64,0,0,1,2.13.27,4.26,4.26,0,0,1,1.59.83,3.79,3.79,0,0,1,1,1.41,5.48,5.48,0,0,1,.35,2,5.65,5.65,0,0,1-.56,2.52,5.16,5.16,0,0,1-1.66,1.9,8.44,8.44,0,0,1-2.75,1.2,15.09,15.09,0,0,1-3.79.42,12,12,0,0,1-2.92-.32,6.32,6.32,0,0,1-2.08-.9,4,4,0,0,1-1.25-1.43,4.14,4.14,0,0,1-.42-1.89,3.72,3.72,0,0,1,1.18-2.66A4.4,4.4,0,0,1,259,34a7.82,7.82,0,0,1,1.34-.45,2.55,2.55,0,0,1-.61-.37,2.76,2.76,0,0,1-.54-.54,3.11,3.11,0,0,1-.4-.68,2.08,2.08,0,0,1-.15-.78,2.45,2.45,0,0,1,.14-.85,2.37,2.37,0,0,1,.4-.71,4.36,4.36,0,0,1,.66-.63c.26-.19.56-.39.89-.6a4.37,4.37,0,0,1-2-1.78,5.56,5.56,0,0,1-.75-2.9,6.12,6.12,0,0,1,.41-2.36,4.76,4.76,0,0,1,1.2-1.77,5.17,5.17,0,0,1,2-1.1,8.52,8.52,0,0,1,2.7-.38h.65l.73.09.67.11.48.1ZM260.57,37.11a1.74,1.74,0,0,0,.15.71,1.48,1.48,0,0,0,.51.6,2.65,2.65,0,0,0,.92.42,5.6,5.6,0,0,0,1.41.16,7.29,7.29,0,0,0,3.44-.65,1.94,1.94,0,0,0,1.15-1.73,1.2,1.2,0,0,0-.71-1.23,6,6,0,0,0-2.23-.31h-2.07a4,4,0,0,0-.85.1,2.49,2.49,0,0,0-.83.33,2,2,0,0,0-.64.62A1.79,1.79,0,0,0,260.57,37.11Zm1.61-13.33a3.55,3.55,0,0,0,.5,2.06,1.7,1.7,0,0,0,1.51.73,1.67,1.67,0,0,0,1.52-.73,3.79,3.79,0,0,0,.47-2.06,4.25,4.25,0,0,0-.46-2.1,1.63,1.63,0,0,0-1.53-.77C262.85,20.91,262.18,21.86,262.18,23.78Z"/><path d="M289,34.79h-4.47V25.23a5.32,5.32,0,0,0-.53-2.66,1.88,1.88,0,0,0-1.71-.89,2.77,2.77,0,0,0-1.46.35,2.49,2.49,0,0,0-.93,1,5.22,5.22,0,0,0-.49,1.69,15,15,0,0,0-.15,2.32v7.7h-4.47V18.42h3.41l.61,2.09h.24a4.5,4.5,0,0,1,.86-1.08,4.92,4.92,0,0,1,1.11-.75,5.14,5.14,0,0,1,1.27-.43,7,7,0,0,1,3.56.2,4.26,4.26,0,0,1,1.69,1.08,5.09,5.09,0,0,1,1.08,1.87,8.58,8.58,0,0,1,.38,2.71V34.79Z"/><path d="M80.11,52.33h1a6.85,6.85,0,0,1,.91.11l-.35,2.46-.85-.13a7.34,7.34,0,0,0-.81-.05,3.71,3.71,0,0,0-3,1.44,5.28,5.28,0,0,0-.85,1.67,7.18,7.18,0,0,0-.3,2.16v8.68H73.15V52.62h2.17l.32,3h.11c.25-.42.51-.83.79-1.22a5.87,5.87,0,0,1,.93-1,4.39,4.39,0,0,1,1.17-.72A3.91,3.91,0,0,1,80.11,52.33Z"/><path d="M90.73,69a7.78,7.78,0,0,1-2.94-.54,6.4,6.4,0,0,1-2.3-1.58A7.26,7.26,0,0,1,84,64.3a10.82,10.82,0,0,1-.53-3.52A12.23,12.23,0,0,1,84,57.22a8.11,8.11,0,0,1,1.37-2.66,5.76,5.76,0,0,1,2.1-1.66,6.71,6.71,0,0,1,5.31,0,5.56,5.56,0,0,1,2,1.46A6.67,6.67,0,0,1,96,56.64a9.41,9.41,0,0,1,.43,2.93v1.66H86.23a6.7,6.7,0,0,0,1.2,4.16,4.1,4.1,0,0,0,3.33,1.33,12.75,12.75,0,0,0,1.38-.07q.61-.08,1.23-.21A9.4,9.4,0,0,0,94.52,66c.37-.14.75-.3,1.13-.47V67.9a11.61,11.61,0,0,1-1.15.48,9.45,9.45,0,0,1-1.15.34,10.46,10.46,0,0,1-1.23.19A6.87,6.87,0,0,1,90.73,69Zm-.66-14.46a3.29,3.29,0,0,0-2.64,1.14A5.69,5.69,0,0,0,86.29,59H93.5a8,8,0,0,0-.2-1.82,4.08,4.08,0,0,0-.61-1.42,2.93,2.93,0,0,0-1.07-.91A3.47,3.47,0,0,0,90.07,54.54Z"/><path d="M109.6,64.3a4.76,4.76,0,0,1-.42,2A3.92,3.92,0,0,1,108,67.82a5.52,5.52,0,0,1-1.92.89,10.31,10.31,0,0,1-2.54.29,12.6,12.6,0,0,1-2.74-.26,7.1,7.1,0,0,1-2-.75V65.56c.3.15.64.31,1,.46a12.13,12.13,0,0,0,2.44.69,8,8,0,0,0,1.29.11,7.36,7.36,0,0,0,1.62-.16,3.31,3.31,0,0,0,1.09-.47,1.78,1.78,0,0,0,.6-.73,2.31,2.31,0,0,0,.19-1,2.52,2.52,0,0,0-.14-.82,2.13,2.13,0,0,0-.54-.72,5.54,5.54,0,0,0-1.06-.73,18.38,18.38,0,0,0-1.73-.82c-.73-.3-1.33-.6-1.89-.89a6.8,6.8,0,0,1-1.43-1,3.78,3.78,0,0,1-.9-1.26,4.5,4.5,0,0,1,.08-3.51,3.78,3.78,0,0,1,1.14-1.34,5.25,5.25,0,0,1,1.76-.82,8.33,8.33,0,0,1,2.28-.28,9.9,9.9,0,0,1,2.6.31,12.71,12.71,0,0,1,2.24.8l-.93,2.16a16,16,0,0,0-2-.74,6.8,6.8,0,0,0-2-.32,4.09,4.09,0,0,0-2.22.49,1.6,1.6,0,0,0-.71,1.4,2.31,2.31,0,0,0,.16.9,2.11,2.11,0,0,0,.58.71,6,6,0,0,0,1.1.69c.46.23,1,.48,1.72.77a20,20,0,0,1,1.88.87,6.94,6.94,0,0,1,1.41,1,4,4,0,0,1,.9,1.25A4.32,4.32,0,0,1,109.6,64.3Z"/><path d="M119.42,69a7.78,7.78,0,0,1-2.94-.54,6.4,6.4,0,0,1-2.3-1.58,7.24,7.24,0,0,1-1.48-2.58,10.82,10.82,0,0,1-.53-3.52,12,12,0,0,1,.48-3.56A8.06,8.06,0,0,1,114,54.56a5.76,5.76,0,0,1,2.1-1.66,6.3,6.3,0,0,1,2.7-.57,6.15,6.15,0,0,1,2.61.52,5.56,5.56,0,0,1,2,1.46,6.67,6.67,0,0,1,1.24,2.28,9.41,9.41,0,0,1,.43,2.93v1.66H114.92a6.7,6.7,0,0,0,1.2,4.16,4.1,4.1,0,0,0,3.33,1.33,12.75,12.75,0,0,0,1.38-.07q.61-.07,1.23-.21a7.67,7.67,0,0,0,1.15-.36c.37-.14.75-.3,1.13-.47v2.37a11.61,11.61,0,0,1-1.15.48,9.45,9.45,0,0,1-1.15.34,10.46,10.46,0,0,1-1.23.19A10.25,10.25,0,0,1,119.42,69Zm-.66-14.46a3.29,3.29,0,0,0-2.64,1.14A5.74,5.74,0,0,0,115,59h7.21a8,8,0,0,0-.2-1.82,4.08,4.08,0,0,0-.61-1.42,2.93,2.93,0,0,0-1.07-.91A3.53,3.53,0,0,0,118.76,54.54Z"/><path d="M137.53,68.71,137,66.48h-.12a8.33,8.33,0,0,1-1,1.14,4.7,4.7,0,0,1-1,.78,4.81,4.81,0,0,1-1.27.45A8.17,8.17,0,0,1,132,69a5.88,5.88,0,0,1-1.86-.29,3.85,3.85,0,0,1-1.47-.87,4.12,4.12,0,0,1-1-1.5,5.92,5.92,0,0,1-.35-2.13A4.37,4.37,0,0,1,129,60.52a9,9,0,0,1,5.15-1.41l2.7-.1V58a5.36,5.36,0,0,0-.22-1.64A2.44,2.44,0,0,0,136,55.3a2.2,2.2,0,0,0-1-.58,4.4,4.4,0,0,0-1.35-.18,7.27,7.27,0,0,0-2.27.35,14.64,14.64,0,0,0-2,.85l-.94-2a12.47,12.47,0,0,1,2.42-1,9.83,9.83,0,0,1,2.8-.41,10.17,10.17,0,0,1,2.58.3,4.29,4.29,0,0,1,1.8.95,4,4,0,0,1,1.07,1.66,7.53,7.53,0,0,1,.35,2.45v11Zm-4.89-1.86a4.89,4.89,0,0,0,1.65-.28,3.59,3.59,0,0,0,1.32-.84,4,4,0,0,0,.87-1.42,5.9,5.9,0,0,0,.32-2V60.84l-2.1.1a10.23,10.23,0,0,0-2.21.3,3.79,3.79,0,0,0-1.43.65,2.37,2.37,0,0,0-.77,1,3.6,3.6,0,0,0-.23,1.34,2.51,2.51,0,0,0,.71,2A2.7,2.7,0,0,0,132.64,66.85Z"/><path d="M150.7,52.33h1a6.85,6.85,0,0,1,.91.11l-.35,2.46-.84-.13a7.52,7.52,0,0,0-.82-.05,3.92,3.92,0,0,0-1.68.37,3.77,3.77,0,0,0-1.31,1.07,5.28,5.28,0,0,0-.85,1.67A7,7,0,0,0,146.4,60v8.68h-2.66V52.62h2.17l.32,3h.12a14,14,0,0,1,.78-1.22,5.57,5.57,0,0,1,.94-1,4.1,4.1,0,0,1,1.16-.72A3.91,3.91,0,0,1,150.7,52.33Z"/><path d="M161.15,69a8.18,8.18,0,0,1-2.77-.46,5.68,5.68,0,0,1-2.24-1.47,7.1,7.1,0,0,1-1.49-2.56,11.39,11.39,0,0,1-.55-3.76,12,12,0,0,1,.56-3.9,6.9,6.9,0,0,1,1.53-2.61,5.78,5.78,0,0,1,2.28-1.45,8.35,8.35,0,0,1,2.8-.46,9.84,9.84,0,0,1,2.23.25,8.29,8.29,0,0,1,1.82.61l-.79,2.26c-.22-.1-.47-.19-.74-.29a7.59,7.59,0,0,0-.85-.24,6.72,6.72,0,0,0-.87-.18,5.29,5.29,0,0,0-.8-.07,3.84,3.84,0,0,0-3.36,1.48,7.92,7.92,0,0,0-1,4.57A7.55,7.55,0,0,0,158,65.24a3.74,3.74,0,0,0,3.23,1.43,7.76,7.76,0,0,0,2.14-.27,10.77,10.77,0,0,0,1.75-.64v2.38a7.18,7.18,0,0,1-1.69.64A9,9,0,0,1,161.15,69Z"/><path d="M178.33,68.71V58.35a4.48,4.48,0,0,0-.77-2.86,2.94,2.94,0,0,0-2.41-1,4.72,4.72,0,0,0-2,.38A3.13,3.13,0,0,0,171.86,56a4.88,4.88,0,0,0-.71,1.83,13,13,0,0,0-.21,2.49v8.34h-2.67V45.91H171v6.77l-.12,2.11H171a4.35,4.35,0,0,1,.87-1.09,5.65,5.65,0,0,1,1.11-.77,4.81,4.81,0,0,1,1.27-.45,6.41,6.41,0,0,1,1.38-.15,5.4,5.4,0,0,1,4,1.4A6.23,6.23,0,0,1,181,58.2V68.71Z"/><path d="M197.4,69.07a8.43,8.43,0,0,1-2.77-.46,5.68,5.68,0,0,1-2.24-1.47,7,7,0,0,1-1.5-2.56,11.42,11.42,0,0,1-.54-3.76,12,12,0,0,1,.56-3.9,6.9,6.9,0,0,1,1.53-2.61,5.87,5.87,0,0,1,2.28-1.46,8.54,8.54,0,0,1,2.79-.45,9.93,9.93,0,0,1,2.24.25,7.8,7.8,0,0,1,1.82.61l-.79,2.26c-.22-.1-.47-.19-.75-.29s-.55-.17-.85-.25a7.25,7.25,0,0,0-.86-.17,4.43,4.43,0,0,0-.81-.07,3.81,3.81,0,0,0-3.35,1.48,7.86,7.86,0,0,0-1.06,4.57,7.63,7.63,0,0,0,1.07,4.52,3.74,3.74,0,0,0,3.23,1.43,7.76,7.76,0,0,0,2.14-.27,10.77,10.77,0,0,0,1.75-.64V68.2a6.8,6.8,0,0,1-1.69.65A9,9,0,0,1,197.4,69.07Z"/><path d="M210.68,69.07a7.67,7.67,0,0,1-3-.54,6.18,6.18,0,0,1-2.29-1.59A7.07,7.07,0,0,1,204,64.37a11.08,11.08,0,0,1-.52-3.52,12,12,0,0,1,.48-3.56,7.81,7.81,0,0,1,1.36-2.66,5.76,5.76,0,0,1,2.1-1.66,6.3,6.3,0,0,1,2.7-.57,6.15,6.15,0,0,1,2.61.52,5.56,5.56,0,0,1,2,1.46A6.62,6.62,0,0,1,216,56.65a9.43,9.43,0,0,1,.43,2.94v1.66H206.18a6.64,6.64,0,0,0,1.19,4.16,4.12,4.12,0,0,0,3.33,1.33,8.54,8.54,0,0,0,1.39-.07,10.22,10.22,0,0,0,1.23-.22,9.5,9.5,0,0,0,1.15-.35c.37-.14.74-.3,1.13-.48V68c-.4.18-.78.35-1.15.48a9.6,9.6,0,0,1-1.16.34,10.46,10.46,0,0,1-1.23.19Q211.42,69.07,210.68,69.07ZM210,54.61a3.28,3.28,0,0,0-2.65,1.14,5.64,5.64,0,0,0-1.13,3.33h7.2a8,8,0,0,0-.19-1.83,4.34,4.34,0,0,0-.62-1.41,2.91,2.91,0,0,0-1.06-.91A3.62,3.62,0,0,0,210,54.61Z"/><path d="M229.89,68.78V58.42a4.54,4.54,0,0,0-.77-2.86,2.94,2.94,0,0,0-2.41-1,4.72,4.72,0,0,0-2,.38,3.16,3.16,0,0,0-1.3,1.13,5,5,0,0,0-.7,1.83,12.21,12.21,0,0,0-.22,2.49v8.34h-2.66v-16H222l.38,2.17h.14a5.09,5.09,0,0,1,.87-1.09A4.69,4.69,0,0,1,224.5,53a5.22,5.22,0,0,1,1.27-.46,7.1,7.1,0,0,1,1.38-.14,5.35,5.35,0,0,1,4,1.4,6.27,6.27,0,0,1,1.35,4.47v10.5Z"/><path d="M241.86,66.89h.59l.64-.08a3.45,3.45,0,0,0,.56-.1l.39-.1v2a4.68,4.68,0,0,1-.48.18c-.21.06-.43.11-.65.15s-.47.08-.73.1h-.74a5.71,5.71,0,0,1-1.69-.24,3.07,3.07,0,0,1-1.34-.8,3.88,3.88,0,0,1-.89-1.55A8.13,8.13,0,0,1,237.2,64V54.7h-2.27V53.51l2.27-1.14L238.35,49h1.53v3.69h4.05v2h-4.05V64a4,4,0,0,0,.47,2.14A1.64,1.64,0,0,0,241.86,66.89Z"/><path d="M253.74,52.4h.95a5.62,5.62,0,0,1,.91.1l-.36,2.5-.84-.13a7.34,7.34,0,0,0-.81,0,3.82,3.82,0,0,0-1.69.37,3.89,3.89,0,0,0-1.31,1.07,5.28,5.28,0,0,0-.85,1.67,7.18,7.18,0,0,0-.3,2.16v8.67h-2.66V52.69h2.16l.33,3h.11c.25-.42.51-.83.79-1.22a5.52,5.52,0,0,1,.93-1,4.39,4.39,0,0,1,1.17-.72A3.91,3.91,0,0,1,253.74,52.4Z"/><path d="M264.36,69.07a7.78,7.78,0,0,1-2.94-.54,6.22,6.22,0,0,1-2.3-1.59,7.11,7.11,0,0,1-1.48-2.57,10.82,10.82,0,0,1-.53-3.52,12,12,0,0,1,.48-3.56A8.11,8.11,0,0,1,259,54.63,5.85,5.85,0,0,1,261.06,53a6.71,6.71,0,0,1,5.31,0,5.56,5.56,0,0,1,2,1.46,6.62,6.62,0,0,1,1.24,2.27,9.73,9.73,0,0,1,.43,2.94v1.66H259.86a6.7,6.7,0,0,0,1.2,4.16,4.1,4.1,0,0,0,3.33,1.33,8.36,8.36,0,0,0,1.38-.07,10.22,10.22,0,0,0,1.23-.22,9,9,0,0,0,1.15-.35c.37-.14.75-.3,1.13-.48V68a11.61,11.61,0,0,1-1.15.48,9.45,9.45,0,0,1-1.15.34,10.31,10.31,0,0,1-1.24.19Q265.11,69.07,264.36,69.07Zm-.66-14.46a3.29,3.29,0,0,0-2.64,1.14,5.72,5.72,0,0,0-1.14,3.33h7.21a8,8,0,0,0-.2-1.83,4.11,4.11,0,0,0-.61-1.41,2.93,2.93,0,0,0-1.07-.91,3.62,3.62,0,0,0-1.55-.32Z"/><path d="M20.31,11.65c6.37,10.43,14.35,23.5,19.24,34.62C42.18,43.2,46.33,38.63,50,34.93V9H18.7Z"/><path d="M40.86,49.37a44.78,44.78,0,0,1,3,10.45c.46,3.45-.19,6.47-1.78,8.28a4.71,4.71,0,0,1-3.6,1.68A5,5,0,0,1,34.92,68a9.64,9.64,0,0,1-2.3-7.33,22.91,22.91,0,0,1,4.8-11.8C32.72,37.74,24.36,24,17.75,13.21L15.19,9H0V74H50V39.23C46.46,42.93,42.85,47,40.86,49.37Z"/><path d="M37.11,66a2.24,2.24,0,0,0,1.38.83,1.78,1.78,0,0,0,1.35-.67c1-1.12,1.39-3.39,1.06-5.91a38.16,38.16,0,0,0-2.16-8,18.94,18.94,0,0,0-3.13,8.68A6.84,6.84,0,0,0,37.11,66Z"/><circle cx="55.5" cy="34.5" r="2.5"/><path d="M18,3a3,3,0,1,1-3-3A3,3,0,0,1,18,3Z"/></svg>
