<?xml version="1.0" encoding="UTF-8"?>
<svg id="Layer_1" data-name="Layer 1" xmlns="http://www.w3.org/2000/svg" xmlns:xlink="http://www.w3.org/1999/xlink" version="1.1" viewBox="0 0 58 74">
  <defs>
    <style>
      .cls-1 {
        clip-path: url(#clippath);
      }

      .cls-2 {
        fill: none;
      }

      .cls-2, .cls-3 {
        stroke-width: 0px;
      }

      .cls-3 {
        fill: #00a0cc;
      }
    </style>
    <symbol id="idrc_symbol" data-name="idrc symbol" viewBox="0 0 116 148">
      <g>
        <g>
          <path class="cls-3" d="M40.6,23.3c12.7,20.9,28.7,47,38.5,69.2,5.2-6.1,13.6-15.3,20.9-22.7V18h-62.6c1.1,1.7,2.1,3.5,3.2,5.3Z"/>
          <path class="cls-3" d="M81.7,98.7c3.1,7.7,5.2,14.8,6,20.9.9,6.9-.4,13-3.6,16.6-1.9,2.2-4.4,3.4-7.2,3.4s-5-1.3-7.2-3.6c-3.3-3.6-5-8.9-4.6-14.7.7-9.8,5.5-18.1,9.6-23.6-9.4-22.3-26.1-49.7-39.3-71.3-1.8-2.9-3.5-5.7-5.1-8.4H0v130h100v-69.5c-7.1,7.4-14.3,15.5-18.3,20.3Z"/>
          <path class="cls-3" d="M74.2,131.9c1.1,1.2,2.2,1.7,2.8,1.7,1,0,1.9-.4,2.7-1.3,2-2.3,2.8-6.8,2.1-11.8-.6-4.7-2.1-10.1-4.3-16-3,4.6-5.8,10.6-6.3,17.4-.3,4,.8,7.8,3,10.1Z"/>
        </g>
        <path class="cls-3" d="M116,69c0,2.8-2.2,5-5,5s-5-2.2-5-5,2.2-5,5-5,5,2.2,5,5Z"/>
        <path class="cls-3" d="M36,6c0,3.3-2.7,6-6,6s-6-2.7-6-6S26.7,0,30,0s6,2.7,6,6Z"/>
      </g>
    </symbol>
    <clipPath id="clippath">
      <rect class="cls-2" width="58" height="74"/>
    </clipPath>
  </defs>
  <g class="cls-1">
    <use width="116" height="148" transform="scale(.5)" xlink:href="#idrc_symbol"/>
  </g>
</svg>