<svg id="logo" class="w-10 fill-current" viewBox="0 0 58 74" xmlns="http://www.w3.org/2000/svg"><path d="m20.31 11.65c6.37 10.43 14.35 23.5 19.24 34.62 2.63-3.07 6.78-7.64 10.45-11.34v-25.93h-31.3z"/><path d="m40.86 49.37a44.78 44.78 0 0 1 3 10.45c.46 3.45-.19 6.47-1.78 8.28a4.71 4.71 0 0 1 -3.6 1.68 5 5 0 0 1 -3.56-1.78 9.64 9.64 0 0 1 -2.3-7.33 22.91 22.91 0 0 1 4.8-11.8c-4.7-11.13-13.06-24.87-19.67-35.66l-2.56-4.21h-15.19v65h50v-34.77c-3.54 3.7-7.15 7.77-9.14 10.14z"/><path d="m37.11 66a2.24 2.24 0 0 0 1.38.83 1.78 1.78 0 0 0 1.35-.67c1-1.12 1.39-3.39 1.06-5.91a38.16 38.16 0 0 0 -2.16-8 18.94 18.94 0 0 0 -3.13 8.68 6.84 6.84 0 0 0 1.5 5.07z"/><circle cx="55.5" cy="34.5" r="2.5"/><path d="m18 3a3 3 0 1 1 -3-3 3 3 0 0 1 3 3z"/></svg>
