<svg viewBox="0 0 1536 1536" xmlns="http://www.w3.org/2000/svg" aria-hidden="true" focusable="false"><path d="m182.1 406.9c1.9-18.9-5.3-37.5-19.4-50.2l-143.3-172.9v-25.8h445.3l344.2 755.2 302.6-755.2h424.5v25.8l-122.6 117.6c-10.6 8.1-15.8 21.3-13.6 34.4v864.3c-2.2 13.1 3.1 26.4 13.6 34.4l119.8 117.6v25.8h-602.4v-25.8l124.1-120.5c12.2-12.2 12.2-15.8 12.2-34.4v-698.5l-344.9 876.4h-46.6l-401.7-876.4v587.4c-3.3 24.7 4.8 49.6 22.2 67.4l161.3 195.8v25.8h-457.4v-25.8l161.3-195.8c17.3-17.9 25-42.9 20.8-67.4z"/></svg>
