<svg width="184" height="69" viewBox="0 0 184 69" fill="none" xmlns="http://www.w3.org/2000/svg" role="presentation" aria-hidden="true">
<path d="M41.4394 30.0796L40.6503 28.1106C40.5384 27.8246 40.4279 27.5382 40.3189 27.2514C40.2171 26.9837 40.1277 26.749 40.0505 26.5475C39.9725 26.3281 39.8918 26.1093 39.8085 25.8912C39.8226 26.0467 39.8331 26.1877 39.8401 26.3144L39.8612 26.69C39.8682 26.8138 39.8717 26.9419 39.8717 27.0743V30.0796H38.6827V24.3195H40.3031L41.0291 26.1589C41.1693 26.5159 41.2939 26.8412 41.4026 27.1348C41.5113 27.4284 41.6042 27.6817 41.6814 27.8947C41.7726 28.1423 41.8533 28.3668 41.9234 28.5683L41.8866 28.0329C41.8762 27.8862 41.8692 27.7394 41.8655 27.5925C41.862 27.4486 41.8603 27.3017 41.8603 27.1521V24.3195H43.0492V30.0796H41.4394ZM47.5945 28.7324C47.5945 29.193 47.442 29.5485 47.1369 29.799C46.8317 30.0494 46.3705 30.1746 45.7533 30.1746C45.1711 30.1746 44.7204 30.0436 44.4012 29.7817C44.0821 29.5197 43.9225 29.1441 43.9225 28.6547V27.0657C43.9225 26.5418 44.0786 26.1517 44.3907 25.8955C44.7029 25.6393 45.157 25.5112 45.7533 25.5112C46.104 25.5112 46.3968 25.5472 46.6318 25.6192C46.8668 25.6911 47.0562 25.7919 47.2 25.9214C47.3438 26.051 47.4455 26.2093 47.5051 26.3964C47.5647 26.5835 47.5945 26.7922 47.5945 27.0225V28.1106H45.0904V28.8101C45.0904 28.9886 45.15 29.1225 45.2693 29.2117C45.3885 29.301 45.5498 29.3456 45.7533 29.3456C45.9777 29.3456 46.1443 29.3038 46.253 29.2204C46.3618 29.1369 46.4161 28.9742 46.4161 28.7324V28.6633H47.5945V28.7324ZM46.4266 26.8843C46.4266 26.4928 46.2022 26.2971 45.7533 26.2971C45.5358 26.2971 45.371 26.3489 45.2587 26.4525C45.1465 26.5562 45.0904 26.7001 45.0904 26.8843V27.342H46.4266V26.8843ZM53.0658 30.0796H51.7295L51.235 27.8947C51.1999 27.7335 51.1666 27.5723 51.1351 27.4111C51.1032 27.248 51.0804 27.0837 51.0667 26.9189C51.0257 27.2468 50.9625 27.5726 50.8773 27.8947L50.3302 30.0796H49.0044L48.0575 25.6062H49.2464L49.6673 28.0934C49.7217 28.4088 49.7638 28.7256 49.7936 29.0433C49.8637 28.6115 49.9479 28.1797 50.0461 27.7479C50.1232 27.3852 50.2004 27.0283 50.2776 26.6771C50.3547 26.3259 50.4319 25.9689 50.509 25.6062H51.6664L52.1609 28.0934C52.196 28.2546 52.2276 28.4129 52.2556 28.5683C52.2837 28.718 52.3047 28.8677 52.3187 29.0174C52.3328 28.8677 52.3503 28.718 52.3714 28.5683C52.4001 28.4096 52.4316 28.2513 52.466 28.0934L52.9185 25.6062H54.1074L53.0658 30.0796ZM58.0741 25.1485V26.6944H59.768V27.5234H58.0741V30.0796H56.822V24.3195H60.0311V25.1485H58.0741ZM63.2402 26.6166C63.0788 26.6224 62.9315 26.6353 62.7983 26.6555C62.6704 26.6742 62.5464 26.7076 62.43 26.7548C62.3142 26.8031 62.2107 26.8691 62.1249 26.9491C62.0337 27.0326 61.953 27.1377 61.8829 27.2643C61.8602 27.296 61.8409 27.3293 61.825 27.3636C61.8005 27.4126 61.7882 27.4486 61.7882 27.4716V30.0796H60.5992V25.6062H61.7356V26.323C61.8408 26.1906 61.9408 26.0769 62.0354 25.9819C62.1255 25.8905 62.2299 25.8092 62.3458 25.7401C62.4624 25.6721 62.5923 25.621 62.7299 25.589C62.8969 25.5508 63.0676 25.5248 63.2402 25.5112V26.6166ZM67.4173 28.6288C67.4173 29.1182 67.2524 29.4981 66.9227 29.7687C66.5931 30.0393 66.1301 30.1746 65.5339 30.1746C64.9377 30.1746 64.473 30.0379 64.1398 29.7644C63.8066 29.491 63.64 29.1124 63.64 28.6288V26.9966C63.64 26.7721 63.6856 26.5691 63.7768 26.3878C63.8634 26.2119 63.9943 26.053 64.1608 25.9214C64.3257 25.7919 64.5238 25.6911 64.7553 25.6192C64.9868 25.5472 65.2428 25.5112 65.5234 25.5112C66.1266 25.5112 66.5931 25.6408 66.9227 25.8998C67.2524 26.1589 67.4173 26.5245 67.4173 26.9966V28.6288ZM66.2283 26.988C66.2283 26.8037 66.1652 26.6541 66.0389 26.5389C65.9127 26.4238 65.7443 26.3662 65.5339 26.3662C65.3164 26.3662 65.1446 26.4223 65.0183 26.5346C64.8921 26.6469 64.8289 26.798 64.8289 26.988V28.7152C64.8289 28.9051 64.8903 29.0534 65.0131 29.1599C65.1358 29.2664 65.3094 29.3197 65.5339 29.3197C65.7513 29.3197 65.9214 29.2664 66.0442 29.1599C66.1669 29.0534 66.2283 28.9051 66.2283 28.7152V26.988ZM70.6789 30.0796V26.9189C70.6789 26.585 70.5246 26.418 70.216 26.418C69.9495 26.418 69.6864 26.5274 69.4269 26.7462V30.0796H68.2379V25.6062H69.3111L69.3637 26.0208C69.5672 25.8538 69.7653 25.7271 69.9582 25.6408C70.1511 25.5544 70.3598 25.5112 70.5843 25.5112C71.0051 25.5112 71.3243 25.6091 71.5417 25.8048C71.7592 26.0006 71.8679 26.2885 71.8679 26.6684V30.0796H70.6789ZM75.5294 30.0624C75.3961 30.0854 75.2629 30.1041 75.1296 30.1185C74.9963 30.1329 74.863 30.1401 74.7298 30.1401C74.2037 30.1401 73.8197 30.0293 73.5777 29.8076C73.3357 29.5859 73.2147 29.265 73.2147 28.8447V26.3576H72.5097V25.6062H73.2252V24.5095L74.4141 24.354V25.6062H75.4979V26.3576H74.4141V28.8447C74.4141 29.0117 74.4615 29.1412 74.5562 29.2333C74.6509 29.3254 74.8034 29.3715 75.0139 29.3715C75.1004 29.3713 75.1868 29.3641 75.2716 29.3499C75.3593 29.3355 75.4452 29.3225 75.5294 29.311V30.0624ZM76.1186 25.0449V24.0518H77.3076V25.0449H76.1186ZM76.1186 30.0796V25.6062H77.3076V30.0796H76.1186ZM81.7898 28.7324C81.7898 29.193 81.6372 29.5485 81.3321 29.799C81.027 30.0494 80.5658 30.1746 79.9485 30.1746C79.3663 30.1746 78.9156 30.0436 78.5965 29.7817C78.2773 29.5197 78.1177 29.1441 78.1177 28.6547V27.0657C78.1177 26.5418 78.2738 26.1517 78.5859 25.8955C78.8981 25.6393 79.3523 25.5112 79.9485 25.5112C80.2992 25.5112 80.5921 25.5472 80.827 25.6192C81.062 25.6911 81.2514 25.7919 81.3952 25.9214C81.539 26.051 81.6407 26.2093 81.7003 26.3964C81.76 26.5835 81.7898 26.7922 81.7898 27.0225V28.1106H79.2856V28.8101C79.2856 28.9886 79.3452 29.1225 79.4645 29.2117C79.5837 29.301 79.7451 29.3456 79.9485 29.3456C80.173 29.3456 80.3395 29.3038 80.4483 29.2204C80.557 29.1369 80.6114 28.9742 80.6114 28.7324V28.6633H81.7898V28.7324ZM80.6219 26.8843C80.6219 26.4928 80.3974 26.2971 79.9485 26.2971C79.731 26.2971 79.5662 26.3489 79.454 26.4525C79.3417 26.5562 79.2856 26.7001 79.2856 26.8843V27.342H80.6219V26.8843ZM85.2303 26.6166C85.069 26.6224 84.9217 26.6353 84.7884 26.6555C84.6606 26.6742 84.5366 26.7076 84.4202 26.7548C84.3044 26.8031 84.2008 26.8691 84.115 26.9491C84.0239 27.0326 83.9432 27.1377 83.873 27.2643C83.8504 27.296 83.831 27.3293 83.8152 27.3636C83.7906 27.4126 83.7784 27.4486 83.7784 27.4716V30.0796H82.5894V25.6062H83.7257V26.323C83.831 26.1906 83.9309 26.0769 84.0256 25.9819C84.1157 25.8905 84.2201 25.8092 84.336 25.7401C84.4526 25.6721 84.5825 25.621 84.72 25.589C84.887 25.5508 85.0578 25.5248 85.2303 25.5112V26.6166ZM89.3232 28.9829C89.3232 29.3456 89.1584 29.6349 88.8287 29.8508C88.4991 30.0667 88.0536 30.1746 87.4925 30.1746C86.8963 30.1746 86.4316 30.0624 86.0984 29.8378C85.7652 29.6133 85.5986 29.3053 85.5986 28.9138V28.7324H86.7875V28.8533C86.7875 29.0664 86.8472 29.2146 86.9664 29.2981C87.0857 29.3816 87.268 29.4233 87.5135 29.4233C87.9204 29.4233 88.1238 29.2765 88.1238 28.9829C88.1238 28.8447 88.0642 28.7281 87.9449 28.6331C87.8257 28.5381 87.6784 28.4474 87.503 28.3611C87.3276 28.2747 87.1365 28.1898 86.9296 28.1063C86.724 28.0236 86.5315 27.9206 86.3562 27.7997C86.1815 27.6796 86.0322 27.5366 85.9142 27.3766C85.795 27.2154 85.7354 27.0139 85.7354 26.7721V26.6684C85.7354 26.2942 85.8879 26.0092 86.1931 25.8135C86.4982 25.6177 86.9383 25.5199 87.5135 25.5199C88.0606 25.5199 88.485 25.6235 88.7866 25.8308C89.0883 26.038 89.2391 26.3259 89.2391 26.6944V26.8757H88.0922V26.7462C88.0922 26.5677 88.0396 26.4439 87.9344 26.3748C87.8292 26.3057 87.6678 26.2712 87.4504 26.2712C87.0716 26.2712 86.8822 26.4094 86.8822 26.6857C86.8822 26.8124 86.9436 26.9232 87.0664 27.0182C87.1891 27.1132 87.3399 27.2039 87.5188 27.2902C87.6977 27.3766 87.8923 27.4644 88.1027 27.5536C88.3132 27.6429 88.5078 27.7465 88.6867 27.8645C88.8642 27.9813 89.0171 28.1214 89.1391 28.279C89.2619 28.4374 89.3232 28.6317 89.3232 28.862V28.9829Z" fill="currentColor"/>
<path d="M64.7622 40.4495L63.973 38.4806C63.8611 38.1945 63.7507 37.9081 63.6416 37.6213C63.5399 37.3536 63.4505 37.119 63.3733 36.9175C63.2953 36.698 63.2146 36.4792 63.1313 36.2611C63.1453 36.4166 63.1559 36.5576 63.1629 36.6843L63.1839 37.0599C63.1909 37.1837 63.1944 37.3118 63.1944 37.4442V40.4495H62.0055V34.6894H63.6258L64.3518 36.5288C64.4921 36.8858 64.6166 37.2111 64.7253 37.5047C64.8341 37.7983 64.927 38.0516 65.0042 38.2647C65.0953 38.5122 65.176 38.7368 65.2462 38.9383L65.2093 38.4028C65.1989 38.2561 65.1919 38.1093 65.1883 37.9624C65.1848 37.8185 65.183 37.6717 65.183 37.522V34.6894H66.372V40.4495H64.7622ZM71.1277 38.9987C71.1277 39.4881 70.9629 39.8681 70.6332 40.1387C70.3035 40.4092 69.8406 40.5445 69.2444 40.5445C68.6481 40.5445 68.1834 40.4078 67.8502 40.1343C67.5171 39.8609 67.3505 39.4823 67.3505 38.9987V37.3665C67.3505 37.142 67.3961 36.939 67.4872 36.7577C67.5739 36.5818 67.7048 36.4229 67.8713 36.2914C68.0361 36.1618 68.2343 36.0611 68.4658 35.9891C68.6972 35.9171 68.9533 35.8811 69.2338 35.8811C69.8371 35.8811 70.3035 36.0107 70.6332 36.2698C70.9629 36.5288 71.1277 36.8944 71.1277 37.3665V38.9987ZM69.9388 37.3579C69.9388 37.1737 69.8757 37.024 69.7494 36.9088C69.6231 36.7937 69.4548 36.7361 69.2444 36.7361C69.0269 36.7361 68.8551 36.7922 68.7288 36.9045C68.6025 37.0168 68.5394 37.1679 68.5394 37.3579V39.0851C68.5394 39.2751 68.6008 39.4233 68.7235 39.5298C68.8463 39.6363 69.0199 39.6896 69.2444 39.6896C69.4618 39.6896 69.6319 39.6363 69.7547 39.5298C69.8774 39.4233 69.9388 39.2751 69.9388 39.0851V37.3579ZM74.5052 40.4495L74.4526 40.0609C74.2742 40.2025 74.0701 40.3205 73.8476 40.4107C73.6232 40.5006 73.3765 40.5464 73.1268 40.5445C72.8954 40.5445 72.7025 40.5114 72.5481 40.4452C72.3996 40.3832 72.2728 40.2911 72.1799 40.1775C72.0887 40.0652 72.0238 39.9328 71.9852 39.7803C71.946 39.6225 71.9266 39.4619 71.9274 39.301V35.9761H73.1163V39.1801C73.1163 39.3067 73.1479 39.4132 73.211 39.4996C73.2741 39.586 73.3934 39.6291 73.5687 39.6291C73.7301 39.6291 73.8774 39.596 74.0106 39.5298C74.141 39.4654 74.2642 39.3917 74.3789 39.3096V35.9761H75.5678V40.4495H74.5052ZM78.8506 40.4495H77.4302L76.1571 35.9761H77.367L77.9036 38.2992C77.9527 38.4949 77.9948 38.6893 78.0299 38.8821C78.065 39.075 78.093 39.2693 78.1141 39.4651C78.2333 38.8778 78.3613 38.2949 78.4981 37.7163C78.6353 37.136 78.7738 36.556 78.9137 35.9761H80.1027L78.8506 40.4495ZM84.164 39.1023C84.164 39.5629 84.0114 39.9184 83.7063 40.1689C83.4012 40.4193 82.94 40.5445 82.3227 40.5445C81.7405 40.5445 81.2898 40.4136 80.9707 40.1516C80.6515 39.8896 80.492 39.514 80.492 39.0246V37.4356C80.492 36.9117 80.648 36.5216 80.9602 36.2654C81.2723 36.0092 81.7265 35.8811 82.3227 35.8811C82.6734 35.8811 82.9663 35.9171 83.2013 35.9891C83.4363 36.0611 83.6256 36.1618 83.7694 36.2914C83.9132 36.4209 84.0149 36.5792 84.0746 36.7663C84.1342 36.9534 84.164 37.1621 84.164 37.3924V38.4806H81.6599V39.1801C81.6599 39.3585 81.7195 39.4924 81.8387 39.5816C81.958 39.6709 82.1193 39.7155 82.3227 39.7155C82.5472 39.7155 82.7138 39.6738 82.8225 39.5903C82.9312 39.5068 82.9856 39.3441 82.9856 39.1023V39.0333H84.164V39.1023ZM82.9961 37.2543C82.9961 36.8628 82.7716 36.667 82.3227 36.667C82.1053 36.667 81.9404 36.7188 81.8282 36.8225C81.716 36.9261 81.6599 37.07 81.6599 37.2543V37.712H82.9961V37.2543ZM84.9636 34.4217H86.1526V40.4495H84.9636V34.4217ZM87.1206 34.4217H88.3095V40.4495H87.1206V34.4217ZM93.0022 39.1023C93.0022 39.5629 92.8496 39.9184 92.5445 40.1689C92.2393 40.4193 91.7781 40.5445 91.1609 40.5445C90.5787 40.5445 90.128 40.4136 89.8088 40.1516C89.4897 39.8896 89.3301 39.514 89.3301 39.0246V37.4356C89.3301 36.9117 89.4862 36.5216 89.7983 36.2654C90.1105 36.0092 90.5646 35.8811 91.1609 35.8811C91.5116 35.8811 91.8044 35.9171 92.0394 35.9891C92.2744 36.0611 92.4638 36.1618 92.6076 36.2914C92.7514 36.4209 92.8531 36.5792 92.9127 36.7663C92.9723 36.9534 93.0022 37.1621 93.0022 37.3924V38.4806H90.498V39.1801C90.498 39.3585 90.5576 39.4924 90.6769 39.5816C90.7961 39.6709 90.9575 39.7155 91.1609 39.7155C91.3853 39.7155 91.5519 39.6738 91.6606 39.5903C91.7694 39.5068 91.8237 39.3441 91.8237 39.1023V39.0333H93.0022V39.1023ZM91.8343 37.2543C91.8343 36.8628 91.6098 36.667 91.1609 36.667C90.9434 36.667 90.7786 36.7188 90.6664 36.8225C90.5541 36.9261 90.498 37.07 90.498 37.2543V37.712H91.8343V37.2543ZM97.3686 39.3528C97.3686 39.7155 97.2038 40.0048 96.8741 40.2207C96.5444 40.4366 96.099 40.5445 95.5379 40.5445C94.9416 40.5445 94.4769 40.4323 94.1437 40.2077C93.8106 39.9832 93.644 39.6752 93.644 39.2837V39.1023H94.8329V39.2232C94.8329 39.4363 94.8925 39.5845 95.0118 39.668C95.131 39.7515 95.3134 39.7932 95.5589 39.7932C95.9657 39.7932 96.1692 39.6464 96.1692 39.3528C96.1692 39.2146 96.1095 39.098 95.9903 39.003C95.871 38.908 95.7237 38.8174 95.5484 38.731C95.373 38.6446 95.1819 38.5597 94.975 38.4762C94.7694 38.3935 94.5768 38.2905 94.4015 38.1697C94.2269 38.0495 94.0776 37.9065 93.9596 37.7465C93.8404 37.5853 93.7808 37.3838 93.7808 37.142V37.0384C93.7808 36.6641 93.9333 36.3792 94.2384 36.1834C94.5436 35.9877 94.9837 35.8898 95.5589 35.8898C96.106 35.8898 96.5304 35.9934 96.832 36.2007C97.1336 36.4079 97.2844 36.6958 97.2844 37.0643V37.2456H96.1376V37.1161C96.1376 36.9376 96.085 36.8138 95.9798 36.7447C95.8746 36.6756 95.7132 36.6411 95.4958 36.6411C95.117 36.6411 94.9276 36.7793 94.9276 37.0556C94.9276 37.1823 94.989 37.2931 95.1117 37.3881C95.2345 37.4831 95.3853 37.5738 95.5642 37.6601C95.743 37.7465 95.9377 37.8343 96.1481 37.9235C96.3586 38.0128 96.5532 38.1164 96.7321 38.2344C96.9096 38.3512 97.0625 38.4913 97.1845 38.649C97.3072 38.8073 97.3686 39.0016 97.3686 39.2319V39.3528ZM102.672 35.1557C102.567 35.1402 102.462 35.1273 102.356 35.1169C102.262 35.1081 102.167 35.1038 102.072 35.1039C101.826 35.1039 101.656 35.1471 101.561 35.2334C101.467 35.3198 101.419 35.4954 101.419 35.7602V35.9761H102.43V36.7275H101.419V40.4495H100.23V36.7275H99.4729V35.9761H100.23V35.743C100.23 34.7642 100.781 34.2749 101.882 34.2749C102.044 34.2749 102.193 34.2792 102.33 34.2878C102.47 34.2969 102.609 34.3157 102.745 34.3439L102.672 35.1557ZM105.439 36.9865C105.277 36.9923 105.13 37.0053 104.997 37.0254C104.869 37.0441 104.745 37.0775 104.629 37.1247C104.513 37.173 104.409 37.239 104.323 37.319C104.232 37.4025 104.152 37.5076 104.081 37.6342C104.059 37.666 104.039 37.6992 104.024 37.7336C103.999 37.7825 103.987 37.8185 103.987 37.8415V40.4495H102.798V35.9761H103.934V36.6929C104.039 36.5605 104.139 36.4468 104.234 36.3518C104.324 36.2604 104.428 36.1791 104.544 36.11C104.661 36.0421 104.791 35.9909 104.928 35.9589C105.095 35.9207 105.266 35.8947 105.439 35.8811V36.9865ZM109.405 38.9987C109.405 39.4881 109.241 39.8681 108.911 40.1387C108.581 40.4092 108.118 40.5445 107.522 40.5445C106.926 40.5445 106.461 40.4078 106.128 40.1343C105.795 39.8609 105.628 39.4823 105.628 38.9987V37.3665C105.628 37.142 105.674 36.939 105.765 36.7577C105.852 36.5818 105.982 36.4229 106.149 36.2914C106.314 36.1618 106.512 36.0611 106.743 35.9891C106.975 35.9171 107.231 35.8811 107.511 35.8811C108.115 35.8811 108.581 36.0107 108.911 36.2698C109.241 36.5288 109.405 36.8944 109.405 37.3665V38.9987ZM108.216 37.3579C108.216 37.1737 108.153 37.024 108.027 36.9088C107.901 36.7937 107.732 36.7361 107.522 36.7361C107.305 36.7361 107.133 36.7922 107.006 36.9045C106.88 37.0168 106.817 37.1679 106.817 37.3579V39.0851C106.817 39.2751 106.878 39.4233 107.001 39.5298C107.124 39.6363 107.298 39.6896 107.522 39.6896C107.739 39.6896 107.91 39.6363 108.032 39.5298C108.155 39.4233 108.216 39.2751 108.216 39.0851V37.3579ZM112.667 40.4495V37.2888C112.667 36.9549 112.513 36.7879 112.204 36.7879C111.938 36.7879 111.675 36.8973 111.415 37.1161V40.4495H110.226V35.9761H111.299L111.352 36.3907C111.555 36.2237 111.753 36.097 111.946 36.0107C112.139 35.9243 112.348 35.8811 112.572 35.8811C112.993 35.8811 113.312 35.979 113.53 36.1748C113.747 36.3705 113.856 36.6584 113.856 37.0384V40.4495H112.667ZM117.412 40.4323C117.279 40.4553 117.146 40.474 117.012 40.4884C116.879 40.5028 116.746 40.51 116.613 40.51C116.087 40.51 115.703 40.3992 115.461 40.1775C115.219 39.9559 115.098 39.6349 115.098 39.2146V36.7275H114.393V35.9761H115.108V34.8794L116.297 34.7239V35.9761H117.381V36.7275H116.297V39.2146C116.297 39.3816 116.344 39.5111 116.439 39.6032C116.534 39.6953 116.686 39.7414 116.897 39.7414C116.983 39.7412 117.07 39.734 117.155 39.7198C117.242 39.7054 117.328 39.6925 117.412 39.6809V40.4323ZM117.896 35.4148V34.4217H119.085V35.4148H117.896ZM117.896 40.4495V35.9761H119.085V40.4495H117.896ZM123.557 39.1023C123.557 39.5629 123.404 39.9184 123.099 40.1689C122.794 40.4193 122.333 40.5445 121.716 40.5445C121.133 40.5445 120.683 40.4136 120.364 40.1516C120.044 39.8896 119.885 39.514 119.885 39.0246V37.4356C119.885 36.9117 120.041 36.5216 120.353 36.2654C120.665 36.0092 121.119 35.8811 121.716 35.8811C122.066 35.8811 122.359 35.9171 122.594 35.9891C122.829 36.0611 123.019 36.1618 123.162 36.2914C123.306 36.4209 123.408 36.5792 123.467 36.7663C123.527 36.9534 123.557 37.1621 123.557 37.3924V38.4806H121.053V39.1801C121.053 39.3585 121.112 39.4924 121.232 39.5816C121.351 39.6709 121.512 39.7155 121.716 39.7155C121.94 39.7155 122.107 39.6738 122.215 39.5903C122.324 39.5068 122.378 39.3441 122.378 39.1023V39.0333H123.557V39.1023ZM122.389 37.2543C122.389 36.8628 122.165 36.667 121.716 36.667C121.498 36.667 121.333 36.7188 121.221 36.8225C121.109 36.9261 121.053 37.07 121.053 37.2543V37.712H122.389V37.2543ZM121.442 35.4148L120.642 34.1626H121.884L122.336 35.4148H121.442ZM126.997 36.9865C126.836 36.9923 126.689 37.0053 126.556 37.0254C126.428 37.0441 126.304 37.0775 126.187 37.1247C126.072 37.173 125.968 37.239 125.882 37.319C125.791 37.4025 125.71 37.5076 125.64 37.6342C125.618 37.666 125.598 37.6992 125.582 37.7336C125.558 37.7825 125.545 37.8185 125.545 37.8415V40.4495H124.357V35.9761H125.493V36.6929C125.598 36.5605 125.698 36.4468 125.793 36.3518C125.883 36.2604 125.987 36.1791 126.103 36.11C126.22 36.0421 126.35 35.9909 126.487 35.9589C126.654 35.9207 126.825 35.8947 126.997 35.8811V36.9865ZM131.269 39.1023C131.269 39.5629 131.117 39.9184 130.812 40.1689C130.506 40.4193 130.045 40.5445 129.428 40.5445C128.846 40.5445 128.395 40.4136 128.076 40.1516C127.757 39.8896 127.597 39.514 127.597 39.0246V37.4356C127.597 36.9117 127.753 36.5216 128.065 36.2654C128.378 36.0092 128.832 35.8811 129.428 35.8811C129.779 35.8811 130.072 35.9171 130.307 35.9891C130.541 36.0611 130.731 36.1618 130.875 36.2914C131.018 36.4209 131.12 36.5792 131.18 36.7663C131.239 36.9534 131.269 37.1621 131.269 37.3924V38.4806H128.765V39.1801C128.765 39.3585 128.825 39.4924 128.944 39.5816C129.063 39.6709 129.225 39.7155 129.428 39.7155C129.652 39.7155 129.819 39.6738 129.928 39.5903C130.036 39.5068 130.091 39.3441 130.091 39.1023V39.0333H131.269V39.1023ZM130.101 37.2543C130.101 36.8628 129.877 36.667 129.428 36.667C129.211 36.667 129.046 36.7188 128.933 36.8225C128.821 36.9261 128.765 37.07 128.765 37.2543V37.712H130.101V37.2543ZM135.636 39.3528C135.636 39.7155 135.471 40.0048 135.141 40.2207C134.812 40.4366 134.366 40.5445 133.805 40.5445C133.209 40.5445 132.744 40.4323 132.411 40.2077C132.078 39.9832 131.911 39.6752 131.911 39.2837V39.1023H133.1V39.2232C133.1 39.4363 133.16 39.5845 133.279 39.668C133.398 39.7515 133.58 39.7932 133.826 39.7932C134.233 39.7932 134.436 39.6464 134.436 39.3528C134.436 39.2146 134.377 39.098 134.257 39.003C134.138 38.908 133.991 38.8174 133.815 38.731C133.64 38.6446 133.449 38.5597 133.242 38.4762C133.036 38.3935 132.844 38.2905 132.669 38.1697C132.494 38.0495 132.345 37.9065 132.227 37.7465C132.107 37.5853 132.048 37.3838 132.048 37.142V37.0384C132.048 36.6641 132.2 36.3792 132.506 36.1834C132.811 35.9877 133.251 35.8898 133.826 35.8898C134.373 35.8898 134.798 35.9934 135.099 36.2007C135.401 36.4079 135.552 36.6958 135.552 37.0643V37.2456H134.405V37.1161C134.405 36.9376 134.352 36.8138 134.247 36.7447C134.142 36.6756 133.98 36.6411 133.763 36.6411C133.384 36.6411 133.195 36.7793 133.195 37.0556C133.195 37.1823 133.256 37.2931 133.379 37.3881C133.502 37.4831 133.652 37.5738 133.831 37.6601C134.01 37.7465 134.205 37.8343 134.415 37.9235C134.626 38.0128 134.82 38.1164 134.999 38.2344C135.177 38.3512 135.33 38.4913 135.452 38.649C135.574 38.8073 135.636 39.0016 135.636 39.2319V39.3528Z" fill="currentColor"/>
<path d="M92.1637 24.9663V24.1459H93.0896V24.9663H92.1637ZM92.1847 30.0788V25.6226H93.0686V30.0788H92.1847ZM96.4881 30.0788V26.7712C96.4881 26.6215 96.4495 26.492 96.3723 26.3826C96.2952 26.2732 96.1514 26.2185 95.941 26.2185C95.7619 26.2176 95.5871 26.2629 95.4412 26.348C95.2965 26.4302 95.161 26.5227 95.0361 26.6244V30.0788H94.1523V25.6226H94.973L95.0045 26.0371C95.1607 25.9035 95.3375 25.7874 95.5306 25.6917C95.7237 25.5946 95.946 25.5437 96.1724 25.5449C96.6003 25.5449 96.9072 25.6399 97.0931 25.8299C97.279 26.0199 97.3719 26.2818 97.3719 26.6157V30.0788H96.4881ZM103.811 30.0788L102.527 27.4707L101.78 27.488V30.0788H100.855V24.3186H102.454C102.755 24.3186 103.031 24.3488 103.28 24.4093C103.529 24.4697 103.741 24.5633 103.916 24.6899C104.092 24.8166 104.228 24.9764 104.327 25.1692C104.425 25.3621 104.474 25.5881 104.474 25.8472C104.474 26.1509 104.38 26.4496 104.2 26.7151C104.018 26.9885 103.748 27.1828 103.39 27.298L104.779 30.0788H103.811ZM103.548 25.8644C103.548 25.6802 103.518 25.5291 103.459 25.411C103.399 25.293 103.313 25.1995 103.201 25.1304C103.089 25.0613 102.952 25.0123 102.791 24.9836C102.629 24.9548 102.447 24.9404 102.243 24.9404H101.78V26.9094H102.159C102.587 26.9094 102.926 26.8302 103.175 26.6719C103.424 26.5136 103.548 26.2444 103.548 25.8644ZM108.641 28.9215C108.641 29.3361 108.495 29.6484 108.204 29.8585C107.913 30.0687 107.518 30.1737 107.02 30.1737C106.48 30.1737 106.068 30.0543 105.784 29.8154C105.5 29.5764 105.358 29.2382 105.358 28.8006V26.9353C105.358 26.492 105.507 26.148 105.805 25.9033C106.103 25.6586 106.522 25.5363 107.062 25.5363C107.567 25.5363 107.957 25.6557 108.23 25.8946C108.504 26.1336 108.641 26.4574 108.641 26.8662V28.0234H106.242V28.887C106.242 29.0885 106.303 29.2468 106.426 29.362C106.548 29.4771 106.74 29.5347 106.999 29.5347C107.322 29.5347 107.531 29.4742 107.625 29.3533C107.72 29.2324 107.767 29.0655 107.767 28.8525V28.7056H108.641V28.9215ZM107.788 26.8144C107.788 26.6129 107.725 26.4502 107.599 26.3264C107.473 26.2027 107.28 26.1408 107.02 26.1408C106.754 26.1408 106.556 26.2012 106.426 26.3221C106.296 26.443 106.231 26.6071 106.231 26.8144V27.4362H107.788V26.8144ZM112.786 29.0597C112.786 29.457 112.635 29.7419 112.334 29.9147C112.032 30.0874 111.632 30.1737 111.134 30.1737C110.622 30.1737 110.212 30.0773 109.903 29.8844C109.594 29.6916 109.44 29.3879 109.44 28.9734V28.7229H110.324V28.9302C110.324 29.3735 110.601 29.5951 111.155 29.5951C111.366 29.5951 111.543 29.552 111.687 29.4656C111.83 29.3792 111.902 29.2439 111.902 29.0597C111.902 28.9043 111.844 28.769 111.729 28.6538C111.603 28.5309 111.458 28.4221 111.297 28.33C111.125 28.2292 110.938 28.1285 110.734 28.0277C110.534 27.9288 110.346 27.8146 110.171 27.6866C110 27.5608 109.855 27.4136 109.74 27.2505C109.624 27.0864 109.566 26.8863 109.566 26.6503V26.5639C109.566 26.3739 109.61 26.2142 109.698 26.0846C109.786 25.9551 109.903 25.85 110.05 25.7694C110.205 25.6864 110.376 25.6264 110.555 25.5924C110.745 25.555 110.939 25.5361 111.134 25.5363C111.345 25.5363 111.543 25.5593 111.729 25.6053C111.904 25.6471 112.069 25.7159 112.213 25.8083C112.349 25.8975 112.458 26.0112 112.539 26.1494C112.619 26.2876 112.66 26.4517 112.66 26.6417V26.8662H111.808V26.6848C111.808 26.4891 111.744 26.3452 111.618 26.253C111.492 26.1609 111.317 26.1149 111.092 26.1149C110.91 26.1149 110.752 26.1494 110.619 26.2185C110.485 26.2876 110.419 26.4056 110.419 26.5726C110.419 26.7223 110.477 26.8532 110.592 26.9655C110.708 27.0778 110.855 27.1857 111.034 27.2893C111.213 27.393 111.402 27.4952 111.602 27.5959C111.802 27.6967 111.992 27.8104 112.171 27.937C112.347 28.061 112.496 28.2084 112.612 28.3732C112.728 28.5372 112.786 28.7315 112.786 28.9561V29.0597ZM116.868 28.9215C116.868 29.3361 116.723 29.6484 116.432 29.8585C116.141 30.0687 115.746 30.1737 115.248 30.1737C114.708 30.1737 114.296 30.0543 114.012 29.8154C113.728 29.5764 113.586 29.2382 113.586 28.8006V26.9353C113.586 26.492 113.735 26.148 114.033 25.9033C114.331 25.6586 114.75 25.5363 115.29 25.5363C115.795 25.5363 116.185 25.6557 116.458 25.8946C116.732 26.1336 116.868 26.4574 116.868 26.8662V28.0234H114.47V28.887C114.47 29.0885 114.531 29.2468 114.654 29.362C114.776 29.4771 114.968 29.5347 115.227 29.5347C115.55 29.5347 115.758 29.4742 115.853 29.3533C115.948 29.2324 115.995 29.0655 115.995 28.8525V28.7056H116.868V28.9215ZM116.016 26.8144C116.016 26.6129 115.953 26.4502 115.827 26.3264C115.701 26.2027 115.508 26.1408 115.248 26.1408C114.982 26.1408 114.783 26.2012 114.654 26.3221C114.524 26.443 114.459 26.6071 114.459 26.8144V27.4362H116.016V26.8144ZM120.256 30.0788L120.235 29.7074C120.079 29.8315 119.899 29.9349 119.704 30.014C119.509 30.0921 119.295 30.132 119.078 30.1306C118.664 30.1306 118.336 30.0313 118.094 29.8326C117.852 29.634 117.731 29.3648 117.731 29.0252V28.7834C117.731 28.507 117.808 28.2782 117.963 28.0968C118.116 27.9163 118.317 27.7671 118.552 27.6607C118.799 27.5486 119.065 27.4672 119.341 27.4189C119.619 27.3684 119.9 27.3309 120.183 27.3066V26.728C120.183 26.538 120.128 26.3883 120.02 26.2789C119.911 26.1696 119.734 26.1149 119.488 26.1149C119.32 26.1149 119.187 26.135 119.088 26.1753C118.995 26.2123 118.916 26.2708 118.862 26.3437C118.81 26.4157 118.776 26.5006 118.762 26.5985C118.748 26.6963 118.741 26.8029 118.741 26.918H117.889V26.7712C117.889 26.3336 118.033 26.017 118.32 25.8212C118.608 25.6255 119.008 25.5276 119.52 25.5276C120.004 25.5276 120.383 25.6197 120.656 25.804C120.93 25.9882 121.067 26.2876 121.067 26.7021V30.0788H120.256ZM120.183 27.8248C120.014 27.842 119.837 27.868 119.651 27.9025C119.473 27.9347 119.302 27.987 119.141 28.0579C118.991 28.1238 118.862 28.2168 118.762 28.33C118.664 28.4422 118.615 28.5876 118.615 28.7661V28.9474C118.615 29.1317 118.669 29.2756 118.778 29.3792C118.887 29.4829 119.06 29.5347 119.299 29.5347C119.47 29.5357 119.638 29.4968 119.783 29.4224C119.928 29.3491 120.062 29.2621 120.183 29.1633V27.8248ZM124.433 26.3826C124.076 26.3941 123.779 26.4733 123.544 26.6201C123.309 26.7669 123.122 26.9727 122.981 27.2375V30.0788H122.098V25.6226H122.95V26.3567C123.146 26.1149 123.351 25.9263 123.565 25.791C123.779 25.6557 124.069 25.5737 124.433 25.5449V26.3826ZM128.179 28.9302C128.179 29.3447 128.035 29.6556 127.748 29.8629C127.46 30.0701 127.071 30.1737 126.58 30.1737C126.054 30.1737 125.652 30.0557 125.375 29.8197C125.098 29.5836 124.96 29.2497 124.96 28.8179V26.8057C124.96 26.4085 125.11 26.0962 125.412 25.8687C125.714 25.6413 126.099 25.5276 126.569 25.5276C127.032 25.5276 127.411 25.6327 127.706 25.8428C128 26.053 128.148 26.3538 128.148 26.7453V27.108H127.264V26.8921C127.264 26.8 127.255 26.7093 127.237 26.6201C127.223 26.5371 127.187 26.4577 127.132 26.3869C127.078 26.3195 127.004 26.2645 126.917 26.2271C126.825 26.1868 126.703 26.1667 126.548 26.1667C126.408 26.1667 126.292 26.1868 126.201 26.2271C126.113 26.2652 126.038 26.3218 125.985 26.3912C125.933 26.4603 125.896 26.5409 125.875 26.633C125.854 26.7251 125.843 26.8201 125.843 26.918V28.7315C125.843 28.8352 125.852 28.9359 125.87 29.0338C125.887 29.1317 125.922 29.218 125.975 29.2929C126.027 29.3677 126.101 29.4267 126.196 29.4699C126.291 29.5131 126.415 29.5347 126.569 29.5347C126.731 29.5347 126.86 29.5131 126.959 29.4699C127.057 29.4267 127.131 29.3692 127.18 29.2972C127.23 29.221 127.263 29.1374 127.274 29.0511C127.288 28.959 127.295 28.8611 127.295 28.7575V28.5329H128.179V28.9302ZM131.483 30.0788V26.7539C131.483 26.61 131.448 26.4876 131.378 26.3869C131.308 26.2861 131.174 26.2358 130.978 26.2358C130.796 26.2358 130.618 26.2761 130.447 26.3567C130.275 26.4373 130.119 26.5236 129.978 26.6157V30.0788H129.095V24.1113H129.978V25.9853C130.168 25.8702 130.373 25.7694 130.594 25.6831C130.812 25.5972 131.051 25.5529 131.294 25.5535C131.504 25.5535 131.678 25.5838 131.814 25.6442C131.951 25.7047 132.062 25.7867 132.146 25.8903C132.23 25.994 132.288 26.1134 132.319 26.2487C132.351 26.384 132.367 26.5265 132.367 26.6762V30.0788H131.483ZM136.902 24.9404V26.7798H138.659V27.4016H136.902V30.0788H135.976V24.3186H138.932V24.9404H136.902ZM142.089 30.0788L142.047 29.6901C141.878 29.8229 141.686 29.9348 141.478 30.0226C141.267 30.112 141.032 30.158 140.795 30.1565C140.577 30.1565 140.397 30.1277 140.253 30.0701C140.113 30.0156 139.994 29.9323 139.905 29.8283C139.815 29.7189 139.752 29.5955 139.721 29.4656C139.686 29.3274 139.669 29.1806 139.669 29.0252V25.6226H140.553V28.982C140.553 29.1259 140.582 29.2425 140.642 29.3317C140.702 29.421 140.844 29.4656 141.068 29.4656C141.251 29.4656 141.422 29.4296 141.584 29.3577C141.742 29.2876 141.884 29.1956 142.005 29.0856V25.6226H142.888V30.0788H142.089ZM146.497 30.0788V26.7712C146.497 26.6215 146.459 26.492 146.382 26.3826C146.304 26.2732 146.161 26.2185 145.95 26.2185C145.771 26.2176 145.596 26.2629 145.45 26.348C145.306 26.4302 145.17 26.5227 145.045 26.6244V30.0788H144.161V25.6226H144.982L145.014 26.0371C145.17 25.9035 145.347 25.7874 145.54 25.6917C145.733 25.5946 145.955 25.5437 146.182 25.5449C146.61 25.5449 146.916 25.6399 147.102 25.8299C147.288 26.0199 147.381 26.2818 147.381 26.6157V30.0788H146.497ZM151.106 30.0788L151.085 29.716C150.909 29.8312 150.722 29.9334 150.522 30.0226C150.322 30.1119 150.099 30.1565 149.854 30.1565C149.636 30.1565 149.45 30.1234 149.296 30.0572C149.146 29.9938 149.015 29.9038 148.912 29.7938C148.807 29.6789 148.73 29.5484 148.686 29.4095C148.636 29.256 148.611 29.0977 148.612 28.9388V26.8576C148.612 26.6906 148.633 26.5279 148.675 26.3696C148.717 26.2113 148.786 26.0717 148.88 25.9508C148.976 25.8292 149.106 25.7285 149.259 25.6572C149.417 25.5823 149.615 25.5449 149.854 25.5449C150.099 25.5449 150.318 25.5852 150.511 25.6658C150.704 25.7464 150.888 25.8529 151.064 25.9853V24.1113H151.947V30.0788H151.106ZM151.064 26.5467C150.935 26.4548 150.793 26.3751 150.643 26.3092C150.481 26.2372 150.32 26.2012 150.159 26.2012C150.019 26.2012 149.905 26.2185 149.817 26.253C149.729 26.2876 149.661 26.3351 149.612 26.3955C149.56 26.462 149.528 26.5373 149.517 26.6157C149.503 26.7021 149.496 26.7942 149.496 26.8921V28.8697C149.496 29.0482 149.543 29.1979 149.638 29.3188C149.733 29.4397 149.903 29.5001 150.148 29.5001C150.31 29.5001 150.473 29.4642 150.638 29.3922C150.792 29.3261 150.936 29.2433 151.064 29.1461V26.5467Z" fill="currentColor"/>
<path d="M39.6337 35.3325V37.1719H41.3908V37.7937H39.6337V40.4708H38.7078V34.7107H41.6643V35.3325H39.6337ZM45.8625 39.2186C45.8625 39.6562 45.7134 39.9901 45.4153 40.2204C45.1172 40.4507 44.7051 40.5658 44.179 40.5658C43.6529 40.5658 43.2408 40.4493 42.9427 40.2161C42.6446 39.9829 42.4955 39.6504 42.4955 39.2186V37.2237C42.4955 36.7977 42.6499 36.4738 42.9585 36.2522C43.2671 36.0305 43.674 35.9197 44.179 35.9197C44.7191 35.9197 45.1347 36.0291 45.4258 36.2479C45.7169 36.4667 45.8625 36.7919 45.8625 37.2237V39.2186ZM44.9786 37.2324C44.9786 37.0309 44.9067 36.8682 44.7629 36.7444C44.6192 36.6207 44.4245 36.5588 44.179 36.5588C43.9195 36.5588 43.7213 36.6207 43.5845 36.7444C43.4478 36.8682 43.3794 37.0309 43.3794 37.2324V39.2618C43.3794 39.4691 43.4495 39.6317 43.5898 39.7497C43.7301 39.8678 43.9265 39.9268 44.179 39.9268C44.4385 39.9268 44.6367 39.8678 44.7735 39.7497C44.9103 39.6317 44.9786 39.4691 44.9786 39.2618V37.2324ZM49.2189 40.4708V37.1633C49.2189 37.0136 49.1803 36.8841 49.1031 36.7747C49.026 36.6653 48.8822 36.6106 48.6717 36.6106C48.4927 36.6097 48.3179 36.655 48.1719 36.7401C48.0273 36.8223 47.8917 36.9148 47.7669 37.0165V40.4708H46.8831V36.0147H47.7037L47.7353 36.4292C47.8914 36.2956 48.0683 36.1795 48.2614 36.0838C48.4545 35.9867 48.6768 35.9358 48.9032 35.937C49.3311 35.937 49.638 36.032 49.8238 36.222C50.0097 36.412 50.1027 36.6739 50.1027 37.0078V40.4708H49.2189ZM53.8273 40.4708L53.8063 40.1081C53.6309 40.2233 53.4433 40.3255 53.2434 40.4147C53.0435 40.5039 52.8207 40.5486 52.5752 40.5486C52.3578 40.5486 52.1719 40.5155 52.0176 40.4492C51.8674 40.3859 51.7362 40.2959 51.6336 40.1859C51.5286 40.071 51.4518 39.9405 51.4073 39.8016C51.3572 39.6481 51.3324 39.4898 51.3337 39.3309V37.2496C51.3337 37.0827 51.3547 36.92 51.3968 36.7617C51.4389 36.6034 51.5073 36.4638 51.602 36.3429C51.6975 36.2213 51.8275 36.1206 51.9808 36.0492C52.1386 35.9744 52.3368 35.937 52.5752 35.937C52.8207 35.937 53.0399 35.9773 53.2328 36.0579C53.4257 36.1385 53.6099 36.245 53.7852 36.3774V34.5034H54.669V40.4708H53.8273ZM53.7852 36.9387C53.6562 36.8469 53.5151 36.7672 53.3644 36.7013C53.203 36.6293 53.0417 36.5933 52.8804 36.5933C52.7401 36.5933 52.6261 36.6106 52.5384 36.6451C52.4507 36.6797 52.3823 36.7272 52.3332 36.7876C52.2815 36.8541 52.2491 36.9294 52.2386 37.0078C52.2245 37.0942 52.2175 37.1863 52.2175 37.2842V39.2618C52.2175 39.4403 52.2649 39.59 52.3596 39.7109C52.4542 39.8318 52.6243 39.8922 52.8699 39.8922C53.0312 39.8922 53.1943 39.8563 53.3591 39.7843C53.5139 39.7182 53.6572 39.6354 53.7852 39.5382V36.9387ZM58.8566 39.4518C58.8566 39.8491 58.7058 40.134 58.4042 40.3068C58.1026 40.4795 57.7028 40.5658 57.2048 40.5658C56.6927 40.5658 56.2824 40.4694 55.9737 40.2765C55.6651 40.0837 55.5108 39.78 55.5108 39.3654V39.115H56.3946V39.3223C56.3946 39.7656 56.6717 39.9872 57.2258 39.9872C57.4362 39.9872 57.6133 39.9441 57.7571 39.8577C57.9009 39.7713 57.9728 39.636 57.9728 39.4518C57.9728 39.2964 57.915 39.1611 57.7992 39.0459C57.6732 38.923 57.5282 38.8141 57.3678 38.7221C57.196 38.6213 57.0083 38.5206 56.8049 38.4198C56.6046 38.3209 56.4161 38.2067 56.242 38.0787C56.0711 37.9529 55.9255 37.8057 55.8106 37.6426C55.6949 37.4785 55.637 37.2784 55.637 37.0424V36.956C55.637 36.766 55.6809 36.6063 55.7686 36.4767C55.8562 36.3472 55.9737 36.2421 56.121 36.1615C56.2753 36.0785 56.4463 36.0185 56.6261 35.9845C56.8156 35.947 57.0098 35.9282 57.2048 35.9283C57.4152 35.9283 57.6133 35.9514 57.7992 35.9974C57.9748 36.0392 58.1391 36.108 58.2832 36.2004C58.42 36.2896 58.5287 36.4033 58.6094 36.5415C58.6901 36.6797 58.7304 36.8438 58.7304 37.0337V37.2583H57.8781V37.0769C57.8781 36.8812 57.815 36.7372 57.6887 36.6451C57.5625 36.553 57.3871 36.507 57.1627 36.507C56.9803 36.507 56.8225 36.5415 56.6892 36.6106C56.5559 36.6797 56.4893 36.7977 56.4893 36.9647C56.4893 37.1143 56.5472 37.2453 56.6629 37.3576C56.7786 37.4699 56.9259 37.5778 57.1048 37.6814C57.2837 37.7851 57.4731 37.8873 57.673 37.988C57.8729 38.0888 58.0623 38.2025 58.2411 38.3291C58.4173 38.4531 58.5667 38.6005 58.683 38.7652C58.7988 38.9293 58.8566 39.1236 58.8566 39.3482V39.4518Z" fill="currentColor"/>
<path d="M141.408 39.3136C141.408 39.7282 141.263 40.0405 140.972 40.2506C140.681 40.4608 140.286 40.5658 139.788 40.5658C139.248 40.5658 138.836 40.4464 138.552 40.2074C138.268 39.9685 138.126 39.6303 138.126 39.1927V37.3274C138.126 36.8841 138.275 36.5401 138.573 36.2954C138.871 36.0507 139.29 35.9283 139.83 35.9283C140.335 35.9283 140.725 36.0478 140.998 36.2867C141.272 36.5257 141.408 36.8495 141.408 37.2583V38.4155H139.01V39.2791C139.01 39.4806 139.071 39.6389 139.194 39.7541C139.316 39.8692 139.508 39.9268 139.767 39.9268C140.09 39.9268 140.298 39.8663 140.393 39.7454C140.488 39.6245 140.535 39.4576 140.535 39.2445V39.0977H141.408V39.3136ZM140.556 37.2065C140.556 37.005 140.493 36.8423 140.367 36.7185C140.241 36.5948 140.048 36.5329 139.788 36.5329C139.522 36.5329 139.323 36.5933 139.194 36.7142C139.064 36.8351 138.999 36.9992 138.999 37.2065V37.8283H140.556V37.2065ZM144.849 40.4708V37.1633C144.849 37.0136 144.81 36.8841 144.733 36.7747C144.656 36.6653 144.512 36.6106 144.302 36.6106C144.123 36.6097 143.948 36.655 143.802 36.7401C143.657 36.8223 143.522 36.9148 143.397 37.0165V40.4708H142.513V36.0147H143.334L143.365 36.4292C143.522 36.2956 143.698 36.1795 143.892 36.0838C144.085 35.9867 144.307 35.9358 144.533 35.937C144.961 35.937 145.268 36.032 145.454 36.222C145.64 36.412 145.733 36.6739 145.733 37.0078V40.4708H144.849ZM151.446 36.7747C151.088 36.7862 150.792 36.8653 150.557 37.0122C150.322 37.159 150.134 37.3648 149.994 37.6296V40.4708H149.11V36.0147H149.963V36.7488C150.159 36.507 150.364 36.3184 150.578 36.1831C150.792 36.0478 151.081 35.9658 151.446 35.937V36.7747ZM155.423 39.3136C155.423 39.7282 155.278 40.0405 154.987 40.2506C154.696 40.4608 154.301 40.5658 153.803 40.5658C153.263 40.5658 152.851 40.4464 152.567 40.2074C152.283 39.9685 152.141 39.6303 152.141 39.1927V37.3274C152.141 36.8841 152.29 36.5401 152.588 36.2954C152.886 36.0507 153.305 35.9283 153.845 35.9283C154.35 35.9283 154.739 36.0478 155.013 36.2867C155.286 36.5257 155.423 36.8495 155.423 37.2583V38.4155H153.024V39.2791C153.024 39.4806 153.086 39.6389 153.208 39.7541C153.331 39.8692 153.522 39.9268 153.782 39.9268C154.105 39.9268 154.313 39.8663 154.408 39.7454C154.503 39.6245 154.55 39.4576 154.55 39.2445V39.0977H155.423V39.3136ZM154.571 37.2065C154.571 37.005 154.508 36.8423 154.382 36.7185C154.255 36.5948 154.062 36.5329 153.803 36.5329C153.536 36.5329 153.338 36.5933 153.208 36.7142C153.079 36.8351 153.014 36.9992 153.014 37.2065V37.8283H154.571V37.2065ZM159.558 39.3223C159.558 39.7368 159.414 40.0477 159.127 40.2549C158.839 40.4622 158.45 40.5658 157.959 40.5658C157.433 40.5658 157.031 40.4478 156.754 40.2118C156.477 39.9757 156.339 39.6418 156.339 39.21V37.1978C156.339 36.8006 156.489 36.4882 156.791 36.2608C157.093 36.0334 157.478 35.9197 157.948 35.9197C158.411 35.9197 158.79 36.0248 159.085 36.2349C159.379 36.4451 159.527 36.7459 159.527 37.1374V37.5001H158.643V37.2842C158.643 37.1921 158.634 37.1014 158.617 37.0122C158.602 36.9292 158.566 36.8498 158.511 36.779C158.457 36.7116 158.383 36.6566 158.296 36.6192C158.204 36.5789 158.082 36.5588 157.927 36.5588C157.787 36.5588 157.671 36.5789 157.58 36.6192C157.492 36.6573 157.417 36.7139 157.364 36.7833C157.312 36.8524 157.275 36.933 157.254 37.0251C157.233 37.1172 157.222 37.2122 157.222 37.3101V39.1236C157.222 39.2273 157.231 39.328 157.249 39.4259C157.266 39.5238 157.301 39.6101 157.354 39.685C157.407 39.7598 157.48 39.8188 157.575 39.862C157.67 39.9052 157.794 39.9268 157.948 39.9268C158.11 39.9268 158.24 39.9052 158.338 39.862C158.436 39.8188 158.51 39.7613 158.559 39.6893C158.609 39.6131 158.642 39.5295 158.653 39.4432C158.667 39.3511 158.674 39.2532 158.674 39.1495V38.925H159.558V39.3223ZM162.862 40.4708V37.146C162.862 37.0021 162.827 36.8797 162.757 36.779C162.687 36.6782 162.553 36.6279 162.357 36.6279C162.175 36.6279 161.998 36.6682 161.826 36.7488C161.654 36.8294 161.498 36.9157 161.357 37.0078V40.4708H160.474V34.5034H161.357V36.3774C161.547 36.2623 161.752 36.1615 161.973 36.0752C162.191 35.9893 162.431 35.945 162.673 35.9456C162.883 35.9456 163.057 35.9758 163.193 36.0363C163.33 36.0967 163.441 36.1788 163.525 36.2824C163.609 36.3861 163.667 36.5055 163.698 36.6408C163.73 36.7761 163.746 36.9186 163.746 37.0683V40.4708H162.862ZM168.239 39.3136C168.239 39.7282 168.093 40.0405 167.802 40.2506C167.511 40.4608 167.116 40.5658 166.618 40.5658C166.078 40.5658 165.666 40.4464 165.382 40.2074C165.098 39.9685 164.956 39.6303 164.956 39.1927V37.3274C164.956 36.8841 165.105 36.5401 165.403 36.2954C165.701 36.0507 166.12 35.9283 166.66 35.9283C167.165 35.9283 167.555 36.0478 167.828 36.2867C168.102 36.5257 168.239 36.8495 168.239 37.2583V38.4155H165.84V39.2791C165.84 39.4806 165.901 39.6389 166.024 39.7541C166.147 39.8692 166.338 39.9268 166.597 39.9268C166.92 39.9268 167.129 39.8663 167.223 39.7454C167.318 39.6245 167.365 39.4576 167.365 39.2445V39.0977H168.239V39.3136ZM167.386 37.2065C167.386 37.005 167.323 36.8423 167.197 36.7185C167.071 36.5948 166.878 36.5329 166.618 36.5329C166.352 36.5329 166.154 36.5933 166.024 36.7142C165.894 36.8351 165.829 36.9992 165.829 37.2065V37.8283H167.386V37.2065ZM171.574 36.7747C171.216 36.7862 170.92 36.8653 170.685 37.0122C170.45 37.159 170.262 37.3648 170.122 37.6296V40.4708H169.238V36.0147H170.09V36.7488C170.287 36.507 170.492 36.3184 170.706 36.1831C170.92 36.0478 171.209 35.9658 171.574 35.937V36.7747ZM175.425 39.3223C175.425 39.7368 175.281 40.0477 174.993 40.2549C174.706 40.4622 174.317 40.5658 173.826 40.5658C173.299 40.5658 172.898 40.4478 172.621 40.2118C172.344 39.9757 172.205 39.6418 172.205 39.21V37.1978C172.205 36.8006 172.356 36.4882 172.658 36.2608C172.959 36.0334 173.345 35.9197 173.815 35.9197C174.278 35.9197 174.657 36.0248 174.951 36.2349C175.246 36.4451 175.393 36.7459 175.393 37.1374V37.5001H174.509V37.2842C174.509 37.1921 174.501 37.1014 174.483 37.0122C174.468 36.9292 174.433 36.8498 174.378 36.779C174.324 36.7116 174.249 36.6566 174.162 36.6192C174.071 36.5789 173.948 36.5588 173.794 36.5588C173.654 36.5588 173.538 36.5789 173.447 36.6192C173.358 36.6573 173.284 36.7139 173.231 36.7833C173.178 36.8524 173.142 36.933 173.121 37.0251C173.1 37.1172 173.089 37.2122 173.089 37.3101V39.1236C173.089 39.2273 173.098 39.328 173.115 39.4259C173.133 39.5238 173.168 39.6101 173.221 39.685C173.273 39.7598 173.347 39.8188 173.442 39.862C173.536 39.9052 173.661 39.9268 173.815 39.9268C173.976 39.9268 174.106 39.9052 174.204 39.862C174.303 39.8188 174.376 39.7613 174.425 39.6893C174.476 39.6131 174.508 39.5295 174.52 39.4432C174.534 39.3511 174.541 39.2532 174.541 39.1495V38.925H175.425V39.3223ZM178.729 40.4708V37.146C178.729 37.0021 178.694 36.8797 178.623 36.779C178.553 36.6782 178.42 36.6279 178.224 36.6279C178.041 36.6279 177.864 36.6682 177.692 36.7488C177.52 36.8294 177.364 36.9157 177.224 37.0078V40.4708H176.34V34.5034H177.224V36.3774C177.413 36.2623 177.619 36.1615 177.84 36.0752C178.058 35.9893 178.297 35.945 178.539 35.9456C178.75 35.9456 178.923 35.9758 179.06 36.0363C179.197 36.0967 179.307 36.1788 179.391 36.2824C179.476 36.3861 179.534 36.5055 179.565 36.6408C179.597 36.7761 179.612 36.9186 179.612 37.0683V40.4708H178.729ZM184 39.3136C184 39.7282 183.854 40.0405 183.563 40.2506C183.272 40.4608 182.878 40.5658 182.38 40.5658C181.84 40.5658 181.427 40.4464 181.143 40.2074C180.859 39.9685 180.717 39.6303 180.717 39.1927V37.3274C180.717 36.8841 180.866 36.5401 181.164 36.2954C181.462 36.0507 181.882 35.9283 182.422 35.9283C182.927 35.9283 183.316 36.0478 183.59 36.2867C183.863 36.5257 184 36.8495 184 37.2583V38.4155H181.601V39.2791C181.601 39.4806 181.662 39.6389 181.785 39.7541C181.908 39.8692 182.099 39.9268 182.359 39.9268C182.681 39.9268 182.89 39.8663 182.985 39.7454C183.079 39.6245 183.127 39.4576 183.127 39.2445V39.0977H184V39.3136ZM183.148 37.2065C183.148 37.005 183.085 36.8423 182.958 36.7185C182.832 36.5948 182.639 36.5329 182.38 36.5329C182.113 36.5329 181.915 36.5933 181.785 36.7142C181.655 36.8351 181.59 36.9992 181.59 37.2065V37.8283H183.148V37.2065Z" fill="currentColor"/>
<path d="M43.572 13.1707L44.7392 10.0796L41.6456 8.79698L40.4651 11.9534L43.572 13.1707ZM36.5916 11.2539L39.8128 11.9513L40.3417 8.73807L37.279 8.15692L36.5916 11.2539ZM35.8475 11.2114L35.8251 8.01343L32.5152 7.96045L32.5203 11.1855L35.8475 11.2114ZM28.0699 8.74957L28.7299 11.8741L31.7954 11.1521L31.2813 8.09065L28.0699 8.74957ZM27.9082 12.0874L26.7998 9.02218L23.6638 10.0954L24.792 13.2181L27.9082 12.0874ZM22.5507 10.6381L24.1735 13.5805L21.3284 15.2286L19.7039 12.4146L22.5507 10.6381ZM18.2925 17.641L20.7866 15.5476L18.6104 13.0529L16.1796 15.1738L18.2925 17.641ZM15.2307 16.0328L17.7176 18.0259L15.6823 20.628L13.2051 18.5086L15.2307 16.0328ZM12.4152 19.5533L15.2052 21.2962L13.5623 24.0773L10.7675 22.4427L12.4152 19.5533ZM10.244 23.6621L9.08746 26.7654L12.0866 27.846L13.2473 24.7883L10.244 23.6621ZM8.7809 28.0136L11.9476 28.5568L11.3819 31.88L8.2098 31.2945L8.7809 28.0136ZM8.15108 32.4967L8.05518 35.8164L11.1685 35.7805L11.3575 32.559L8.15108 32.4967ZM8.21483 37.168L8.74139 40.289L11.9083 39.7564L11.3154 36.4866L8.21483 37.168ZM9.08763 41.6898L10.2374 44.5317L13.2733 43.5315L12.2658 40.5315L9.08763 41.6898ZM10.7242 45.8601L12.4167 48.734L15.3068 47.0515L13.5941 44.2386L10.7242 45.8601ZM15.5435 47.6107L13.0619 49.8225L15.1179 52.2136L17.5878 50.1329L15.5435 47.6107ZM18.1646 50.6585L16.0995 53.224L18.4916 55.2539L20.6808 52.7498L18.1646 50.6585ZM21.3884 53.1916L19.687 56.0985L22.4103 57.676L24.2707 54.82L21.3884 53.1916ZM24.8062 55.1278L23.6622 58.3022L26.7206 59.3176L27.9319 56.2667L24.8062 55.1278ZM28.5997 56.4903L28.0898 59.6249L31.2296 60.2069L31.7748 57L28.5997 56.4903ZM32.5336 57.1254L32.5894 60.3138L35.8547 60.3711L35.8428 57.1272L32.5336 57.1254ZM36.6194 57.1049L37.2271 60.1726L40.285 59.5653L39.6988 56.4627L36.6194 57.1049ZM40.572 56.2472L41.7316 59.3373L44.7031 58.1242L43.5702 55.1333L40.572 56.2472ZM44.3223 54.8767L45.9492 57.5354L48.6461 55.9287L47.0629 53.3337L44.3223 54.8767ZM47.8331 52.7694L49.8463 55.1689L52.2625 53.1383L50.2231 50.7964L47.8331 52.7694Z" fill="currentColor"/>
<path d="M46.3257 10.0045L49.0482 11.5991L50.7168 8.80287L47.9335 7.1977L46.3257 10.0045ZM43.1132 5.17714L41.9412 8.2817L44.8938 9.40054L46.1147 6.28449L43.1132 5.17714ZM37.8764 4.08704L37.3374 7.32144L40.5196 7.92504L41.1063 4.6197L37.8764 4.08704ZM32.6553 3.93115L32.6611 7.15406L35.8518 7.21997L35.8811 3.98952L32.6553 3.93115ZM27.4126 4.73769L28.0153 7.91444L31.1017 7.33419L30.5435 4.19299L27.4126 4.73769ZM22.4857 6.41631L23.5667 9.39103L26.4891 8.13588L25.434 5.26263L22.4857 6.41631ZM17.7972 8.80575L19.428 11.6598L22.2515 9.98457L20.576 7.2162L17.7972 8.80575ZM13.5664 12.1172L15.6874 14.5416L18.0959 12.3817L16.0744 9.96571L13.5664 12.1172ZM12.1281 13.5324L14.6312 15.6519L12.5322 18.058L10.1198 15.9602L12.1281 13.5324ZM7.34294 20.4494L10.0716 22.0657L11.7495 19.1946L8.97433 17.6336L7.34294 20.4494ZM6.52635 22.253L5.3513 25.3109L8.30069 26.3956L9.46353 23.4432L6.52635 22.253ZM4.78469 27.2647L4.1863 30.6027L7.44998 31.135L8.01138 27.8045L4.78469 27.2647ZM4.09399 32.5212L4.12381 35.8009L7.33953 35.7831L7.3363 32.5088L4.09399 32.5212ZM4.23713 37.8056L4.81828 40.8966L7.91476 40.4275L7.41442 37.2457L4.23713 37.8056ZM5.37896 43.0502L6.54269 45.9105L9.44091 44.787L8.29387 41.8909L5.37896 43.0502ZM7.30828 47.877L8.99373 50.7122L11.6786 48.979L10.0835 46.2497L7.30828 47.877ZM10.0989 52.3024L12.5726 50.2054L14.695 52.628L12.168 54.8142L10.0989 52.3024ZM15.6511 53.7009L18.1221 55.8089L16.0748 58.3661L13.6147 56.1643L15.6511 53.7009ZM19.4185 56.716L17.7158 59.4878L20.4747 61.0714L22.195 58.3025L19.4185 56.716ZM23.4241 58.8386L22.4351 61.8855L25.4481 63.1234L26.5942 59.9846L23.4241 58.8386ZM27.9892 60.4395L27.4726 63.5814L30.6274 64.1591L31.1067 60.8439L27.9892 60.4395ZM32.637 61.1009L32.7245 64.3541L35.8948 64.3913V61.1052L32.637 61.1009ZM37.2851 60.8669L37.85 64.192L41.0301 63.5517L40.5007 60.3012L37.2851 60.8669ZM41.8887 60.0217L43.0654 63.0712L46.1314 61.8769L44.97 58.8506L41.8887 60.0217ZM46.289 58.2856L47.9192 61.0353L50.7998 59.4066L49.1799 56.7171L46.289 58.2856ZM50.3535 55.8686L52.3717 58.3153L54.9036 56.1692L52.8361 53.7061L50.3535 55.8686ZM53.988 52.6862L55.9456 50.3063L58.4645 52.361L56.3627 54.8183L53.988 52.6862Z" fill="currentColor"/>
<path d="M61.8127 48.2736L64.6069 49.8064L62.9999 52.7386L60.2023 50.9983L61.8127 48.2736ZM58.9854 52.7193L56.9147 55.2357L59.3338 57.4668L61.5743 54.832L58.9854 52.7193ZM52.8411 58.9631L55.0251 61.5013L57.6575 59.3236L55.4184 56.8027L52.8411 58.9631ZM48.2368 61.7464L49.9731 64.5897L52.8258 62.9098L51.0368 60.0568L48.2368 61.7464ZM43.3611 63.7691L46.2981 62.5362L47.5678 65.7141L44.4381 66.8482L43.3611 63.7691ZM37.9839 64.9562L38.5634 68.1766L41.7766 67.5461L41.2425 64.3393L37.9839 64.9562ZM32.5752 65.1015H35.8561V68.2702H32.5595L32.5752 65.1015ZM27.2062 64.2705L30.4926 64.9377L29.8941 68.1963L26.6383 67.4555L27.2062 64.2705ZM22.1735 62.6384L25.1114 63.8219L23.9676 66.8897L20.9979 65.7126L22.1735 62.6384ZM17.3839 60.1024L20.2151 61.7336L18.5153 64.6162L15.7336 62.9179L17.3839 60.1024ZM13.1587 56.8145L15.5979 58.8561L13.4992 61.4551L10.9496 59.3052L13.1587 56.8145ZM9.46364 52.7183L11.6368 55.2183L9.10123 57.4759L6.97543 54.8753L9.46364 52.7183ZM6.6017 48.1472L8.24279 51.0323L5.41139 52.6294L3.7509 49.8761L6.6017 48.1472ZM4.5912 43.158L5.69298 46.1747L2.67911 47.4182L1.59224 44.2828L4.5912 43.158ZM3.50253 37.7919L4.02765 41.1227L0.89633 41.7804L0.326852 38.4438L3.50253 37.7919ZM0.0871009 35.7519H3.29492V32.4013H0L0.0871009 35.7519ZM0.300812 29.7948L3.48421 30.3686L4.051 27.1532L0.91375 26.5158L0.300812 29.7948ZM1.54896 23.9651L2.62973 20.8755L5.72064 21.9767L4.54864 25.0949L1.54896 23.9651ZM3.80801 18.3946L5.43078 15.6094L8.3236 17.2314L6.64588 20.0526L3.80801 18.3946ZM6.98459 13.3413L9.40078 15.4291L11.5113 13.0127L9.05005 10.8605L6.98459 13.3413ZM10.9754 8.99186L13.0339 11.5377L15.6243 9.43024L13.5371 6.83355L10.9754 8.99186ZM15.7035 5.37331L17.3282 8.1934L20.2566 6.52825L18.52 3.60669L15.7035 5.37331ZM20.9868 2.63314L22.1168 5.62276L25.1179 4.49889L23.9885 1.42127L20.9868 2.63314ZM26.7586 0.797015L27.227 3.88362L30.461 3.37466L29.9535 0.34032L26.7586 0.797015ZM32.6226 0.116551L32.6396 3.18142L35.8537 3.15718L35.8766 0L32.6226 0.116551ZM38.4923 0.15822L37.9738 3.30606L41.1335 3.93714L41.7637 0.786958L38.4923 0.15822ZM44.4485 1.41068L43.2825 4.45436L46.2254 5.59241L47.4956 2.52431L44.4485 1.41068ZM49.9323 3.67152L48.2632 6.52717L51.0183 8.17975L52.6326 5.34368L49.9323 3.67152ZM54.9673 6.863L52.8794 9.34421L55.2742 11.5314L57.4099 8.93995L54.9673 6.863Z" fill="currentColor"/>
<path d="M18.4872 30.6222L41.3852 13.3433L13.4545 26.2416M13.4545 26.2416L14.672 28.2796L29.8753 55.9037L26.5195 13.1792L13.2561 41.8055L44.908 53.1897L13.4545 26.2416Z" stroke="currentColor" stroke-width="1.2"/>
<path d="M26.5812 19.166H27.8453V20.4301H26.5812V19.166Z" fill="currentColor"/>
<path d="M26.7096 23.2148H27.9737V24.479H26.7096V23.2148Z" fill="currentColor"/>
<path d="M21.7034 21.5039H22.9675V22.768H21.7034V21.5039Z" fill="currentColor"/>
<path d="M17.9271 29.9731H19.1913V31.2373H17.9271V29.9731Z" fill="currentColor"/>
<path d="M16.6021 32.5889H17.8662V33.853H16.6021V32.5889Z" fill="currentColor"/>
<path d="M27.9399 38.2549H29.2041V39.519H27.9399V38.2549Z" fill="currentColor"/>
<path d="M23.5748 44.9507H24.839V46.2148H23.5748V44.9507Z" fill="currentColor"/>
<path d="M28.4956 46.8242H29.7597V48.0883H28.4956V46.8242Z" fill="currentColor"/>
</svg>
