<svg viewBox="0 0 1536 1536" xmlns="http://www.w3.org/2000/svg" aria-hidden="true" focusable="false"><path d="m1533 292.4c-42.9 62.4-96.5 117.9-157.9 162.8 1 13.6 1 27.3 1 40.9 0 416.2-316.8 895.7-895.7 895.7-178.4 0-344-51.7-483.4-141.3 25.3 2.9 49.7 3.9 76 3.9 147.2 0 282.6-49.7 390.8-134.5-138.4-2.9-254.4-93.6-294.3-218.3 19.5 2.9 39 4.9 59.5 4.9 28.3 0 56.5-3.9 82.8-10.7-144.2-29.2-252.4-155.9-252.4-309v-3.9c41.9 23.4 90.6 38 142.3 40-84.8-56.5-140.3-153-140.3-262.2 0-58.5 15.6-112.1 42.9-158.9 155 191 387.9 315.8 649.1 329.4-4.9-23.4-7.8-47.8-7.8-72.1 0-173.5 140.3-314.8 314.8-314.8 90.6 0 172.5 38 230 99.4 71.1-13.6 139.4-40 199.8-76-23.4 73.1-73.1 134.5-138.4 173.5 63.3-6.9 124.7-24.4 181.2-48.8z"/></svg>
