<svg viewBox="0 0 1536 1536" xmlns="http://www.w3.org/2000/svg" aria-hidden="true" focusable="false"><path d="m609.4 966.9 414.9-214.3-414.9-216.9zm158.6-738.9c323.1 0 537.4 15.4 537.4 15.4 30 3.4 96 3.4 154.3 65.1 0 0 47.1 46.3 60.9 152.6 16.3 124.3 15.4 248.6 15.4 248.6v116.6s.9 124.3-15.4 248.6c-13.7 105.4-60.9 152.6-60.9 152.6-58.3 60.9-124.3 60.9-154.3 64.3 0 0-214.3 16.3-537.4 16.3-399.4-3.4-522-15.4-522-15.4-34.3-6-111.4-4.3-169.7-65.1 0 0-47.1-47.1-60.9-152.6-16.2-124.4-15.4-248.7-15.4-248.7v-116.6s-.9-124.3 15.4-248.6c13.7-106.3 60.9-152.6 60.9-152.6 58.3-61.7 124.3-61.7 154.3-65.1 0 0 214.3-15.4 537.4-15.4z"/></svg>
