<svg height="32" viewBox="0 0 32 32" width="32" xmlns="http://www.w3.org/2000/svg"><g fill="#00a0cc" transform="translate(5.419427)"><path d="m8.7827027 5.03783784c2.7545946 4.51027027 6.2054054 10.16216216 8.32 14.97081076 1.1372973-1.3275675 2.9318919-3.3037837 4.5189189-4.9037837v-11.21297301h-13.53513511z"/><path d="m17.6691892 21.3491892c.6143635 1.4480258 1.0500059 2.9655136 1.2972973 4.5189189.1989189 1.4918919-.0821622 2.7978378-.7697297 3.5805405-.3864093.4598657-.9561005.7257216-1.5567568.7264865-.5975637-.0324736-1.1549423-.3111629-1.5394595-.7697297-.7564037-.8731265-1.1165773-2.020984-.9945946-3.1697297.1955836-1.8629263.9153018-3.6322336 2.0756757-5.1027027-2.0324324-4.812973-5.6475675-10.7545946-8.50594592-15.42054057l-1.10702703-1.82054054h-6.56864865v28.10810811h21.6216216v-15.0356757c-1.5308108 1.6-3.0918919 3.36-3.9524324 4.3848649z"/><path d="m16.0475676 28.5405405c.1475489.1894784.360223.3173911.5967567.358919.2278967-.0053665.4416923-.1114724.5837838-.2897298.4324324-.4843243.6010811-1.4659459.4583784-2.5556756-.1848531-1.1836398-.4980506-2.3436304-.9340541-3.4594595-.7537022 1.1204596-1.218671 2.4098937-1.3535135 3.7535135-.0863964.7882124.1473007 1.5781089.6486487 2.1924324z"/><circle cx="24" cy="14.918919" r="1.081081"/><path d="m7.78378378 1.2972973c0 .71647751-.58081978 1.29729729-1.29729729 1.29729729-.71647752 0-1.2972973-.58081978-1.2972973-1.29729729 0-.71647752.58081978-1.2972973 1.2972973-1.2972973.71647751 0 1.29729729.58081978 1.29729729 1.2972973z"/></g></svg>