<?xml version="1.0" encoding="UTF-8"?>
<svg id="Layer_1" data-name="Layer 1" xmlns="http://www.w3.org/2000/svg" xmlns:xlink="http://www.w3.org/1999/xlink" viewBox="0 0 340 247">
  <defs>
    <style>
      .cls-1 {
        fill: #fff;
      }

      .cls-2 {
        fill: #85e8ff;
      }

      .cls-3 {
        clip-path: url(#clippath-1);
      }

      .cls-4 {
        clip-path: url(#clippath);
      }

      .cls-5 {
        fill: none;
      }
    </style>
    <symbol id="idrc_symbol" data-name="idrc symbol" viewBox="0 0 116 148">
      <g>
        <g>
          <path class="cls-2" d="m40.6,23.3c12.7,20.9,28.7,47,38.5,69.2,5.3-6.1,13.6-15.2,20.9-22.6V18h-62.6c1.1,1.7,2.1,3.5,3.2,5.3Z"/>
          <path class="cls-2" d="m81.7,98.7c3.1,7.7,5.2,14.8,6,20.9.9,6.9-.4,13-3.6,16.6-1.9,2.2-4.4,3.4-7.2,3.4-2.5,0-5-1.3-7.2-3.6-3.3-3.6-5-8.9-4.6-14.7.7-9.8,5.5-18.1,9.6-23.6-9.3-22.2-26-49.6-39.2-71.3-1.8-2.9-3.5-5.7-5.1-8.4H0v130h100v-69.5c-7.1,7.4-14.3,15.4-18.3,20.2Z"/>
          <path class="cls-2" d="m74.2,131.9c1.1,1.2,2.2,1.7,2.8,1.7,1,0,1.9-.4,2.7-1.3,2-2.3,2.8-6.8,2.1-11.8-.6-4.7-2.1-10.1-4.3-16-3,4.6-5.8,10.6-6.3,17.4-.3,3.9.8,7.7,3,10Z"/>
        </g>
        <path class="cls-2" d="m116,69c0,2.8-2.2,5-5,5s-5-2.2-5-5,2.2-5,5-5,5,2.2,5,5Z"/>
        <path class="cls-2" d="m36,6c0,3.3-2.7,6-6,6s-6-2.7-6-6S26.7,0,30,0s6,2.7,6,6Z"/>
      </g>
    </symbol>
    <clipPath id="clippath">
      <rect class="cls-5" x="123.1" y="56.1" width="104.6" height="133.4"/>
    </clipPath>
    <clipPath id="clippath-1">
      <rect class="cls-5" x="123.07" y="56.09" width="104.57" height="133.42"/>
    </clipPath>
  </defs>
  <rect class="cls-1" width="340" height="247"/>
  <g class="cls-4">
    <g class="cls-3">
      <use width="116" height="148" transform="translate(123.07 56.09) scale(.9)" xlink:href="#idrc_symbol"/>
    </g>
  </g>
</svg>