<svg viewBox="0 0 12000 12000" xmlns="http://www.w3.org/2000/svg"><g class="fill-current"><path d="m3366 6585.19c-61.82-32.6-62.48-115.5-1.17-146.94 29.33-15 72.31-7.25 94.46 17.14 37.21 40.94 25.76 103.53-23.56 128.82-18.37 9.43-52.79 9.91-69.73 1z"/><path d="m2534.24 6037.08c-61.82-32.59-62.48-115.49-1.17-146.94 29.33-15 72.31-7.24 94.47 17.14 37.2 40.95 25.76 103.54-23.57 128.83-18.37 9.42-52.79 9.9-69.73 1z"/><path d="m3257.61 6099.68c-61.82-32.59-62.48-115.49-1.17-146.94 29.33-15 72.31-7.24 94.46 17.14 37.21 40.95 25.76 103.53-23.56 128.83-18.38 9.42-52.79 9.9-69.73 1z"/><path d="m3577.56 5397.18c-61.82-32.59-62.48-115.49-1.17-146.94 29.33-15 72.31-7.24 94.46 17.14 37.21 40.95 25.76 103.54-23.56 128.83-18.38 9.42-52.79 9.9-69.73 1z"/><path d="m3146.32 5487.6c-61.82-32.59-62.48-115.49-1.17-146.94 29.33-15 72.31-7.24 94.46 17.14 37.21 40.95 25.76 103.54-23.56 128.83-18.37 9.42-52.79 9.9-69.73 1z"/><path d="m2770.73 5515.43c-61.82-32.6-62.48-115.5-1.17-146.94 29.33-15 72.31-7.25 94.46 17.14 37.21 40.94 25.76 103.53-23.56 128.82-18.38 9.43-52.79 9.91-69.73 1z"/><path d="m3640.16 5091.14c-61.82-32.59-62.48-115.49-1.17-146.94 29.33-15 72.31-7.24 94.46 17.14 37.21 40.95 25.76 103.54-23.56 128.83-18.38 9.42-52.79 9.9-69.73 1z"/><path d="m4057.48 5132.88c-61.82-32.6-62.48-115.5-1.16-146.94 29.32-15 72.3-7.24 94.46 17.14 37.2 40.94 25.76 103.53-23.57 128.82-18.37 9.43-52.79 9.91-69.73 1z"/><path d="m3584.51 4736.42c-61.82-32.6-62.48-115.5-1.16-146.94 29.32-15 72.3-7.24 94.46 17.14 37.2 40.94 25.76 103.53-23.57 128.82-18.37 9.43-52.79 9.91-69.73 1z"/><path d="m3181.1 4806c-61.82-32.59-62.48-115.5-1.17-146.94 29.33-15 72.31-7.24 94.46 17.14 37.21 40.95 25.76 103.53-23.56 128.83-18.38 9.42-52.79 9.9-69.73 1z"/><path d="m3417.58 5258.07c-61.82-32.59-62.48-115.49-1.16-146.94 29.32-15 72.3-7.24 94.46 17.14 37.2 40.95 25.76 103.54-23.57 128.83-18.37 9.42-52.79 9.9-69.73 1z"/><path d="m2819.42 4931.17c-61.83-32.59-62.48-115.5-1.17-146.94 29.32-15 72.3-7.24 94.46 17.14 37.21 40.94 25.76 103.53-23.57 128.83-18.37 9.42-52.79 9.9-69.72 1z"/><path d="m2290.8 4207.8c-61.82-32.59-62.48-115.49-1.17-146.94 29.33-15 72.31-7.24 94.46 17.14 37.21 40.95 25.76 103.53-23.56 128.83-18.37 9.42-52.79 9.9-69.73 1z"/><path d="m3222.83 4291.27c-61.82-32.59-62.48-115.5-1.17-146.94 29.33-15 72.31-7.24 94.46 17.14 37.21 40.94 25.76 103.53-23.56 128.83-18.37 9.42-52.79 9.9-69.73 1z"/><path d="m2617.71 3714c-61.82-32.6-62.48-115.5-1.17-146.94 29.33-15 72.31-7.24 94.46 17.14 37.21 40.94 25.76 103.53-23.56 128.82-18.38 9.43-52.79 9.91-69.73 1z"/><path d="m3709.71 3595.72c-61.82-32.59-62.48-115.49-1.17-146.94 29.33-15 72.31-7.24 94.46 17.14 37.21 40.95 25.76 103.54-23.56 128.83-18.37 9.42-52.79 9.9-69.73 1z"/><path d="m3215.88 3950.45c-61.83-32.59-62.48-115.5-1.17-146.94 29.32-15 72.3-7.24 94.46 17.14 37.21 40.95 25.76 103.53-23.57 128.83-18.37 9.42-52.79 9.9-69.72 1z"/><path d="m5617.76 3320.77c57-40.46 131.26-3.63 131.65 65.27.19 33-26.17 67.8-57.92 76.56-53.33 14.73-104-23.73-104.33-79.16-.16-20.65 14.98-51.58 30.6-62.67z"/><path d="m6069.7 2662.09c57-40.46 131.27-3.63 131.65 65.27.19 33-26.16 67.79-57.92 76.56-53.33 14.72-104-23.74-104.33-79.17-.1-20.65 14.99-51.57 30.6-62.66z"/><path d="m7012.05 2604.4c57-40.47 131.27-3.64 131.66 65.26.18 33-26.17 67.8-57.93 76.56-53.33 14.73-104-23.73-104.33-79.16-.11-20.65 14.99-51.58 30.6-62.66z"/><path d="m8131.88 2646.13c57-40.46 131.26-3.64 131.65 65.27.19 32.95-26.17 67.79-57.92 76.56-53.33 14.72-104-23.74-104.33-79.17-.12-20.65 14.98-51.58 30.6-62.66z"/><path d="m6027.68 7273c57-40.46 131.26-3.64 131.65 65.27.19 32.95-26.17 67.79-57.92 76.56-53.33 14.72-104-23.74-104.33-79.17-.08-20.66 14.99-51.66 30.6-62.66z"/><path d="m5417.07 7795.28c57-40.46 131.27-3.64 131.66 65.27.18 32.95-26.17 67.79-57.93 76.56-53.33 14.72-104-23.74-104.32-79.17-.12-20.65 14.98-51.58 30.59-62.66z"/><path d="m4334.12 7855.65c57-40.46 131.26-3.63 131.65 65.27.19 33-26.17 67.79-57.92 76.56-53.33 14.73-104-23.73-104.33-79.17-.12-20.64 14.99-51.57 30.6-62.66z"/><path d="m3787 7030.27c57-40.46 131.26-3.63 131.65 65.27.19 33-26.17 67.79-57.92 76.56-53.33 14.73-104-23.73-104.33-79.16-.16-20.65 14.95-51.58 30.6-62.67z"/><path d="m7277.8 5888.66c57-40.46 131.26-3.63 131.65 65.27.19 33-26.17 67.79-57.92 76.56-53.34 14.73-104-23.74-104.33-79.17-.12-20.65 14.98-51.57 30.6-62.66z"/><path d="m7026.73 4380.1c57-40.46 131.26-3.64 131.65 65.27.19 32.95-26.17 67.79-57.92 76.56-53.34 14.72-104-23.74-104.33-79.17-.13-20.65 14.98-51.58 30.6-62.66z"/><path d="m6247.72 5214.75c57-40.46 131.26-3.63 131.65 65.27.19 33-26.17 67.79-57.92 76.56-53.34 14.73-104-23.74-104.33-79.17-.12-20.64 14.98-51.57 30.6-62.66z"/><path d="m6449.42 5054.78c57-40.46 131.27-3.64 131.66 65.26.18 33-26.17 67.8-57.93 76.56-53.33 14.73-104-23.73-104.33-79.16-.11-20.65 14.99-51.58 30.6-62.66z"/><path d="m6150.34 5395.59c57-40.46 131.26-3.63 131.65 65.27.19 33-26.17 67.79-57.92 76.56-53.33 14.73-104-23.73-104.33-79.17-.12-20.64 14.99-51.57 30.6-62.66z"/><path d="m6994.27 4827.56c57-40.46 131.26-3.63 131.65 65.27.19 33-26.17 67.8-57.92 76.56-53.33 14.73-104-23.73-104.33-79.16-.12-20.65 14.98-51.58 30.6-62.67z"/><path d="m6609.4 6160.69c57-40.46 131.26-3.63 131.65 65.27.19 33-26.17 67.79-57.92 76.56-53.33 14.73-104-23.74-104.33-79.17-.12-20.65 14.99-51.57 30.6-62.66z"/><path d="m5489.57 6821.46c57-40.46 131.27-3.64 131.66 65.27.18 33-26.17 67.79-57.93 76.56-53.33 14.72-104-23.74-104.33-79.17-.11-20.65 15.03-51.58 30.6-62.66z"/><path d="m6505.07 4039.28c57-40.46 131.26-3.63 131.65 65.27.19 33-26.17 67.79-57.92 76.56-53.33 14.73-104-23.73-104.33-79.17-.12-20.64 14.98-51.57 30.6-62.66z"/><path d="m8237 4296.63c57-40.46 131.27-3.63 131.66 65.27.18 33-26.17 67.79-57.93 76.56-53.33 14.73-104-23.73-104.33-79.17-.14-20.64 14.96-51.57 30.6-62.66z"/><path d="m7131.06 3413.29c57-40.46 131.26-3.63 131.65 65.27.19 33-26.17 67.79-57.92 76.56-53.33 14.73-104-23.73-104.33-79.17-.12-20.64 14.98-51.57 30.6-62.66z"/><path d="m4743.86 3229.19c69.88.08 109.05 73.16 69.41 129.52-19 27-60.63 40.06-91.59 28.79-52-18.93-71-79.66-39.09-125 11.88-16.89 42.12-33.33 61.27-33.31z"/><path d="m3719.77 3118.61c69.89.08 109.05 73.15 69.41 129.52-18.95 27-60.63 40-91.58 28.78-52-18.92-71-79.65-39.09-125 11.87-16.91 42.11-33.32 61.26-33.3z"/><path d="m3281.58 3271.63c69.89.08 109.05 73.15 69.41 129.52-19 27-60.63 40-91.58 28.78-52-18.92-71-79.65-39.1-125 11.88-16.88 42.12-33.32 61.27-33.3z"/><path d="m2975.54 2395.24c69.89.08 109.05 73.16 69.41 129.52-19 27-60.63 40.06-91.58 28.79-52-18.93-71-79.65-39.1-125 11.88-16.89 42.12-33.33 61.27-33.31z"/><path d="m3991 1289.33c69.89.08 109 73.15 69.42 129.52-19 27-60.63 40.05-91.59 28.78-52-18.93-71-79.65-39.09-125 11.91-16.88 42.14-33.32 61.26-33.3z"/><path d="m2725.14 1052.84c69.89.08 109.05 73.16 69.42 129.52-19 27-60.63 40.06-91.59 28.79-52-18.93-71-79.65-39.09-125 11.88-16.89 42.12-33.33 61.26-33.31z"/><path d="m1786.16 3730.69c69.89.08 109 73.15 69.41 129.52-19 26.95-60.63 40.05-91.58 28.78-52-18.93-71-79.65-39.1-125 11.88-16.88 42.11-33.32 61.27-33.3z"/><path d="m3671.08 4064.55c69.89.08 109.05 73.15 69.42 129.52-19 27-60.63 40.05-91.59 28.78-52-18.92-71-79.65-39.09-125 11.88-16.85 42.11-33.32 61.26-33.3z"/><path d="m4025.81 4050.64c69.89.08 109 73.15 69.41 129.52-18.95 26.95-60.63 40.05-91.58 28.78-52-18.93-71-79.65-39.09-125 11.87-16.88 42.11-33.32 61.26-33.3z"/><path d="m4867.42 3549.85c69.89.08 109.05 73.15 69.41 129.51-19 27-60.63 40.06-91.58 28.79-52-18.93-71-79.65-39.1-125 11.85-16.88 42.12-33.32 61.27-33.3z"/><path d="m4151 3605.49c69.89.08 109.05 73.15 69.41 129.52-19 27-60.63 40-91.58 28.78-52-18.92-71-79.65-39.1-125 11.89-16.88 42.13-33.32 61.27-33.3z"/><path d="m4624 2430c69.89.08 109.05 73.16 69.41 129.52-19 27-60.63 40.05-91.58 28.78-52-18.92-71-79.65-39.1-125 11.86-16.86 42.1-33.3 61.27-33.3z"/><path d="m5090 2743c69.89.08 109.05 73.15 69.42 129.51-19 27-60.63 40.06-91.59 28.79-52-18.93-71-79.65-39.09-125 11.87-16.87 42.1-33.3 61.26-33.3z"/><path d="m5250 3188.16c69.88.08 109.05 73.16 69.41 129.52-19 27-60.63 40.06-91.58 28.79-52-18.93-71-79.65-39.1-125 11.85-16.89 42.09-33.33 61.27-33.31z"/><path d="m4477.91 3146.43c69.89.08 109.05 73.16 69.42 129.52-19 27-60.63 40.06-91.59 28.79-52-18.93-71-79.66-39.09-125 11.88-16.89 42.12-33.33 61.26-33.31z"/><path d="m4227.52 2638.68c69.88.08 109 73.16 69.41 129.52-19 27-60.63 40.06-91.58 28.79-52-18.93-71-79.65-39.1-125 11.88-16.89 42.12-33.33 61.27-33.31z"/><path d="m3434.6 2770.84c69.88.08 109.05 73.15 69.41 129.51-19 27-60.63 40.06-91.58 28.79-52-18.93-71-79.65-39.1-125 11.88-16.88 42.12-33.32 61.27-33.3z"/><path d="m3977.12 3222.94c69.89.08 109.05 73.16 69.42 129.52-19 27-60.63 40.06-91.59 28.79-52-18.93-71-79.66-39.09-125 11.88-16.89 42.14-33.33 61.26-33.31z"/><path d="m4540.51 3556.8c69.89.08 109.05 73.16 69.42 129.52-19 27-60.63 40.06-91.59 28.79-52-18.93-71-79.66-39.09-125 11.88-16.89 42.11-33.33 61.26-33.31z"/><path d="m5103.9 4377.55c69.89.07 109.05 73.15 69.42 129.51-19 27-60.63 40.06-91.59 28.79-52-18.93-71-79.65-39.09-125 11.88-16.85 42.12-33.33 61.26-33.3z"/><path d="m4797.86 4398.41c69.89.08 109.06 73.16 69.42 129.52-19 27-60.63 40-91.59 28.78-52-18.92-71-79.65-39.09-125 11.88-16.88 42.12-33.32 61.26-33.3z"/><path d="m4978.71 4155c69.88.08 109.05 73.15 69.41 129.52-19 27-60.63 40.05-91.59 28.78-52-18.92-71-79.65-39.09-125 11.88-16.91 42.12-33.3 61.27-33.3z"/><path d="m5055.22 3876.75c69.88.08 109.05 73.16 69.41 129.52-19 27-60.63 40.06-91.59 28.79-52-18.93-71-79.66-39.09-125 11.88-16.89 42.12-33.33 61.27-33.31z"/><path d="m4352.72 4106.28c69.88.08 109.05 73.16 69.41 129.52-19 27-60.63 40.06-91.59 28.79-52-18.93-71-79.66-39.09-125 11.88-16.89 42.12-33.33 61.27-33.31z"/><path d="m4610.07 4175.84c69.88.08 109.05 73.15 69.41 129.51-19 27-60.63 40.06-91.58 28.79-52-18.93-71-79.65-39.1-125 11.88-16.88 42.12-33.32 61.27-33.3z"/><path d="m4436.18 4753.14c69.89.08 109 73.15 69.42 129.52-19 26.95-60.64 40.05-91.59 28.78-52-18.93-71-79.65-39.09-125 11.87-16.88 42.08-33.32 61.26-33.3z"/><path d="m4596.16 5087c69.88.08 109.05 73.15 69.41 129.52-19 27-60.63 40-91.59 28.78-52-18.92-71-79.65-39.09-125 11.88-16.88 42.11-33.3 61.27-33.3z"/><path d="m5062.17 5024.4c69.89.08 109.05 73.15 69.41 129.52-18.95 27-60.63 40.05-91.58 28.78-52-18.92-71-79.65-39.09-125 11.87-16.88 42.09-33.32 61.26-33.3z"/><path d="m4669.19 5420.86c69.89.08 109.05 73.15 69.41 129.52-19 27-60.63 40.05-91.58 28.78-52-18.92-71-79.65-39.1-125 11.88-16.88 42.08-33.32 61.27-33.3z"/><path d="m6891.45 5233.06c69.89.08 109.05 73.16 69.42 129.52-19 27-60.63 40.06-91.59 28.79-52-18.93-71-79.65-39.09-125 11.88-16.89 42.11-33.37 61.26-33.31z"/><path d="m5535.14 2979.5c69.89.08 109 73.16 69.41 129.52-18.95 27-60.63 40.05-91.58 28.78-52-18.92-71-79.65-39.09-125 11.87-16.88 42.12-33.32 61.26-33.3z"/><path d="m1431.43 5337.4c69.89.07 109 73.15 69.41 129.51-18.95 27-60.63 40.06-91.58 28.79-52-18.93-71-79.65-39.09-125 11.83-16.89 42.11-33.33 61.26-33.3z"/><path d="m7009.69 1421.48c69.89.08 109.06 73.16 69.42 129.52-19 27-60.63 40.06-91.59 28.79-52-18.93-71-79.66-39.09-125 11.88-16.89 42.12-33.33 61.26-33.31z"/><path d="m5771.63 2297.87c69.88.08 109.05 73.15 69.41 129.51-19 27-60.63 40.06-91.59 28.79-52-18.93-71-79.65-39.09-125 11.88-16.88 42.12-33.32 61.27-33.3z"/><path d="m6168.09 698.12c69.88.08 109.05 73.15 69.41 129.51-19 27-60.63 40.06-91.59 28.79-52-18.93-71-79.65-39.09-125 11.88-16.88 42.12-33.32 61.27-33.3z"/><path d="m8797.24 823.32c69.89.07 109.05 73.15 69.42 129.51-19 27-60.63 40.06-91.59 28.79-52-18.93-71-79.65-39.09-125 11.88-16.89 42.11-33.33 61.26-33.3z"/><path d="m7662.55 4520.12c68.22 15.18 90.67 95 39.79 141.46-24.34 22.22-67.86 26-95.65 8.31-46.67-29.72-52.09-93.11-11.15-130.49 15.24-13.92 48.32-23.44 67-19.28z"/><path d="m6862.18 4651.85c68.22 15.18 90.67 95 39.79 141.45-24.34 22.23-67.86 26-95.65 8.32-46.66-29.72-52.08-93.11-11.15-130.49 15.25-13.92 48.32-23.44 67-19.28z"/><path d="m7588.36 5073.29c68.22 15.18 90.67 95 39.79 141.45-24.34 22.23-67.86 26-95.65 8.32-46.67-29.72-52.09-93.11-11.15-130.49 15.24-13.93 48.32-23.44 67-19.28z"/><path d="m6346.88 5532.24c68.21 15.18 90.66 95 39.78 141.46-24.34 22.22-67.86 26-95.64 8.31-46.67-29.71-52.09-93.11-11.16-130.49 15.25-13.92 48.32-23.44 67-19.28z"/><path d="m6695.18 4827.45c68.22 15.18 90.66 95 39.78 141.45-24.34 22.23-67.85 26-95.64 8.32-46.67-29.72-52.09-93.11-11.16-130.49 15.25-13.93 48.33-23.44 67-19.28z"/><path d="m4658.31 6365.89c-44.33 54-125.68 38-144.18-28.33-8.85-31.75 7.41-72.29 35.74-89.11 47.58-28.23 106.6-4.46 121.48 48.94 5.55 19.89-.89 53.7-13.04 68.5z"/><path d="m4643.12 7017.71c-44.33 54-125.68 38-144.18-28.34-8.85-31.74 7.41-72.28 35.74-89.1 47.58-28.23 106.59-4.46 121.48 48.94 5.54 19.89-.89 53.7-13.04 68.5z"/><path d="m3529.41 7309.07c-44.33 54-125.68 38-144.19-28.34-8.85-31.74 7.42-72.28 35.75-89.1 47.57-28.23 106.59-4.46 121.48 48.94 5.55 19.89-.89 53.7-13.04 68.5z"/><path d="m2438.05 7563.4c-44.33 54-125.69 38-144.19-28.34-8.85-31.74 7.42-72.28 35.75-89.1 47.57-28.23 106.59-4.46 121.48 48.94 5.54 19.89-.89 53.7-13.04 68.5z"/><path d="m3048.12 5599.77c-44.33 54-125.69 38-144.19-28.33-8.85-31.75 7.42-72.29 35.75-89.1 47.57-28.24 106.59-4.47 121.48 48.93 5.54 19.89-.89 53.73-13.04 68.5z"/><path d="m3767.52 5686c-44.33 54-125.68 38-144.18-28.34-8.85-31.75 7.41-72.29 35.74-89.1 47.58-28.24 106.6-4.46 121.48 48.93 5.55 19.86-.89 53.67-13.04 68.51z"/><path d="m1902.46 5998.68c-44.33 54-125.69 38-144.19-28.34-8.85-31.74 7.41-72.29 35.74-89.1 47.58-28.24 106.6-4.46 121.49 48.93 5.5 19.89-.89 53.71-13.04 68.51z"/><path d="m3201.8 6560c-44.33 54-125.68 38-144.19-28.33-8.85-31.75 7.42-72.29 35.75-89.11 47.58-28.23 106.59-4.46 121.48 48.94 5.54 19.86-.84 53.67-13.04 68.5z"/><path d="m5553.35 6109.59c-67.45 18.3-124.46-41.89-101-106.7 11.19-31 47.95-54.59 80.78-51.86 55.14 4.58 89.44 58.17 70.6 110.3-7.06 19.42-31.9 43.24-50.38 48.26z"/><path d="m6576.71 5915.58c-67.45 18.3-124.45-41.89-101-106.7 11.2-31 48-54.59 80.79-51.86 55.13 4.58 89.43 58.17 70.59 110.3-7.09 19.42-31.9 43.24-50.38 48.26z"/><path d="m7022.51 5614.41c-67.45 18.31-124.46-41.89-101-106.7 11.2-31 48-54.59 80.79-51.86 55.13 4.58 89.43 58.17 70.59 110.3-7.05 19.42-31.89 43.24-50.38 48.26z"/><path d="m7478.76 6449c-67.44 18.31-124.45-41.89-101-106.7 11.2-31 48-54.59 80.79-51.86 55.14 4.58 89.44 58.17 70.6 110.31-7.06 19.39-31.91 43.25-50.39 48.25z"/><path d="m6790 7783.07c-67.44 18.31-124.45-41.88-101-106.69 11.2-31 48-54.59 80.79-51.87 55.14 4.59 89.43 58.18 70.6 110.31-7.09 19.42-31.94 43.24-50.39 48.25z"/><path d="m7804.54 6129.47c-67.44 18.31-124.45-41.89-101-106.7 11.2-31 48-54.59 80.79-51.86 55.14 4.58 89.43 58.17 70.6 110.31-7.06 19.42-31.93 43.23-50.39 48.25z"/><path d="m8274.94 4847.67c-67.45 18.31-124.46-41.89-101-106.69 11.19-31 48-54.6 80.78-51.87 55.14 4.59 89.44 58.17 70.6 110.31-7.06 19.42-31.9 43.23-50.38 48.25z"/><path d="m6399.88 5063.17c-67.45 18.31-124.46-41.89-101.05-106.69 11.2-31 48-54.6 80.79-51.87 55.14 4.58 89.44 58.17 70.6 110.31-7.02 19.42-31.87 43.23-50.34 48.25z"/><path d="m6760.32 5312.5c-67.44 18.3-124.45-41.89-101-106.7 11.2-31 48-54.59 80.79-51.86 55.14 4.58 89.43 58.17 70.6 110.3-7.06 19.42-31.91 43.24-50.39 48.26z"/><path d="m5349.78 5832.73c-67.44 18.31-124.45-41.89-101-106.69 11.2-31 48-54.6 80.79-51.87 55.13 4.58 89.43 58.17 70.6 110.31-7.06 19.42-31.91 43.23-50.39 48.25z"/><path d="m6061.1 5611.45c-67.45 18.31-124.46-41.89-101-106.7 11.2-31 47.95-54.59 80.78-51.86 55.14 4.58 89.44 58.17 70.6 110.3-7.06 19.42-31.9 43.24-50.38 48.26z"/><path d="m5616.78 6745.31c-67.44 18.31-124.45-41.89-101-106.7 11.2-31 48-54.59 80.79-51.86 55.14 4.58 89.43 58.17 70.6 110.31-7.06 19.42-31.91 43.23-50.39 48.25z"/><path d="m5375.12 6697.52c-67.44 18.31-124.45-41.89-101-106.7 11.2-31 48-54.59 80.79-51.86 55.14 4.58 89.43 58.17 70.6 110.3-7.06 19.42-31.91 43.24-50.39 48.26z"/><path d="m5107.15 6233.62c-67.44 18.31-124.45-41.89-101-106.69 11.2-31 48-54.6 80.79-51.87 55.14 4.59 89.44 58.18 70.6 110.31-7.06 19.42-31.91 43.24-50.39 48.25z"/><path d="m5831.69 6119.47c-67.44 18.31-124.45-41.89-101-106.69 11.2-31 48-54.6 80.79-51.87 55.14 4.58 89.43 58.17 70.6 110.31-7.08 19.42-31.91 43.23-50.39 48.25z"/><path d="m6206.84 6543.46c-67.44 18.31-124.45-41.89-101-106.69 11.2-31 48-54.6 80.79-51.87 55.14 4.58 89.43 58.17 70.6 110.31-7.06 19.42-31.91 43.23-50.39 48.25z"/><path d="m6937.07 6207.37c-67.45 18.31-124.46-41.89-101-106.7 11.2-31 47.95-54.59 80.78-51.86 55.14 4.58 89.44 58.17 70.6 110.31-7.05 19.42-31.9 43.23-50.38 48.25z"/><path d="m6294.72 5913.91c-67.45 18.31-124.46-41.89-101-106.69 11.2-31 47.95-54.6 80.78-51.87 55.14 4.59 89.44 58.17 70.6 110.31-7.05 19.42-31.9 43.23-50.38 48.25z"/><path d="m5684.21 5757.41c-67.45 18.31-124.45-41.89-101-106.69 11.2-31 48-54.6 80.79-51.87 55.13 4.58 89.43 58.17 70.59 110.31-7.05 19.42-31.9 43.23-50.38 48.25z"/><path d="m4810 4755.58c-67.45 18.31-124.46-41.89-101-106.69 11.19-31 47.95-54.6 80.78-51.87 55.14 4.59 89.44 58.18 70.6 110.31-7.07 19.42-31.91 43.24-50.38 48.25z"/><path d="m5694.45 4891.43c-67.45 18.31-124.46-41.89-101-106.7 11.19-31 47.95-54.59 80.78-51.86 55.14 4.58 89.44 58.17 70.6 110.3-7.06 19.42-31.9 43.24-50.38 48.26z"/><path d="m4432.89 5330.36c-67.44 18.31-124.45-41.89-101-106.69 11.2-31 48-54.6 80.79-51.87 55.13 4.59 89.43 58.18 70.6 110.31-7.06 19.42-31.91 43.24-50.39 48.25z"/><path d="m4995.66 5698.9c-67.45 18.31-124.46-41.89-101-106.7 11.2-31 47.95-54.59 80.78-51.86 55.14 4.58 89.44 58.17 70.6 110.3-7.04 19.42-31.9 43.24-50.38 48.26z"/><path d="m5717.36 5244c-67.44 18.31-124.45-41.89-101-106.7 11.2-31 48-54.59 80.79-51.86 55.13 4.58 89.43 58.17 70.6 110.31-7.06 19.37-31.91 43.19-50.39 48.25z"/><path d="m5468.17 4924.6c-67.45 18.31-124.46-41.89-101-106.69 11.19-31 47.95-54.6 80.78-51.87 55.14 4.59 89.44 58.18 70.6 110.31-7.06 19.42-31.9 43.24-50.38 48.25z"/><path d="m4855.62 6558.64c-67.45 18.31-124.45-41.88-101-106.69 11.2-31 48-54.59 80.79-51.87 55.13 4.59 89.43 58.18 70.59 110.31-7 19.42-31.9 43.24-50.38 48.25z"/><path d="m3842.87 8449.7c-67.44 18.31-124.45-41.89-101-106.7 11.2-31 48-54.59 80.79-51.86 55.14 4.58 89.43 58.17 70.6 110.3-7.06 19.42-31.91 43.24-50.39 48.26z"/><path d="m5115 6909.21c-67.45 18.31-124.46-41.89-101-106.7 11.2-31 48-54.59 80.78-51.86 55.14 4.58 89.44 58.17 70.6 110.31-7.03 19.42-31.88 43.23-50.38 48.25z"/><path d="m8318.5 7777.47c68.22 15.18 90.66 95 39.78 141.46-24.33 22.22-67.85 26-95.64 8.31-46.67-29.71-52.09-93.11-11.16-130.49 15.25-13.92 48.33-23.44 67-19.28z"/><path d="m7963.28 6981.81c68.22 15.18 90.66 95 39.78 141.46-24.33 22.22-67.85 26-95.64 8.31-46.67-29.72-52.09-93.11-11.16-130.49 15.25-13.92 48.33-23.44 67-19.28z"/><path d="m8306.92 6432.06c68.22 15.18 90.67 95 39.79 141.46-24.34 22.22-67.86 26-95.64 8.31-46.67-29.72-52.09-93.11-11.16-130.49 15.25-13.92 48.32-23.44 67-19.28z"/><path d="m7498.35 7851.79c68.22 15.18 90.66 95 39.78 141.46-24.33 22.22-67.85 26-95.64 8.31-46.67-29.71-52.09-93.11-11.16-130.49 15.25-13.92 48.33-23.44 67-19.28z"/><path d="m5342.08 9508.48c-44.33 54-125.68 38-144.18-28.34-8.85-31.74 7.41-72.28 35.74-89.1 47.58-28.23 106.6-4.46 121.48 48.94 5.54 19.89-.89 53.7-13.04 68.5z"/><path d="m5079.34 10262.86c-44.33 54-125.69 38-144.19-28.34-8.85-31.75 7.41-72.29 35.74-89.1 47.58-28.24 106.6-4.47 121.49 48.93 5.54 19.89-.89 53.7-13.04 68.51z"/><path d="m3781.94 10775.09c-44.33 54-125.68 38-144.18-28.34-8.85-31.75 7.41-72.29 35.74-89.1 47.58-28.24 106.59-4.46 121.48 48.93 5.54 19.89-.89 53.7-13.04 68.51z"/><path d="m3274.84 9596.6c-44.33 54-125.69 38-144.19-28.34-8.85-31.75 7.42-72.29 35.74-89.1 47.58-28.24 106.6-4.47 121.49 48.93 5.54 19.91-.88 53.7-13.04 68.51z"/><path d="m3704.07 8857.13c-44.34 54-125.69 38-144.19-28.34-8.85-31.75 7.41-72.29 35.74-89.1 47.58-28.24 106.6-4.46 121.48 48.93 5.55 19.89-.89 53.7-13.03 68.51z"/><path d="m1108 2663.36c-44.33 54-125.68 38-144.19-28.34-8.85-31.74 7.42-72.29 35.75-89.1 47.57-28.24 106.59-4.46 121.48 48.93 5.56 19.89-.87 53.71-13.04 68.51z"/><path d="m2558.41 9256c-44.34 54-125.69 38-144.19-28.33-8.85-31.75 7.41-72.29 35.74-89.11 47.58-28.23 106.6-4.46 121.48 48.94 5.56 19.92-.89 53.73-13.03 68.5z"/><path d="m6626.62 8754.86c-67.45 18.31-124.45-41.89-101-106.69 11.2-31 48-54.6 80.79-51.87 55.13 4.58 89.43 58.17 70.59 110.31-7 19.39-31.9 43.23-50.38 48.25z"/><path d="m8024 5522.47c-67.45 18.31-124.46-41.89-101-106.69 11.19-31 47.95-54.6 80.78-51.87 55.14 4.59 89.44 58.18 70.6 110.31-7.1 19.42-31.94 43.24-50.38 48.25z"/><path d="m7608.9 8941.31c-67.44 18.31-124.45-41.88-101-106.69 11.2-31 48-54.6 80.79-51.87 55.13 4.59 89.43 58.18 70.6 110.31-7.06 19.42-31.91 43.24-50.39 48.25z"/><path d="m8134.71 9706.32c-67.44 18.31-124.45-41.89-101-106.69 11.2-31 48-54.6 80.79-51.87 55.14 4.59 89.43 58.17 70.6 110.31-7.1 19.42-31.91 43.23-50.39 48.25z"/><path d="m7445.92 11040.43c-67.45 18.31-124.45-41.89-101-106.7 11.2-31 48-54.59 80.79-51.86 55.13 4.58 89.43 58.17 70.6 110.31-7.06 19.42-31.91 43.23-50.39 48.25z"/><path d="m8757.26 10295.67c-67.45 18.3-124.46-41.89-101-106.7 11.19-31 48-54.59 80.78-51.86 55.14 4.58 89.44 58.17 70.6 110.3-7.06 19.42-31.9 43.24-50.38 48.26z"/><path d="m8930.88 8105c-67.44 18.31-124.45-41.88-101-106.69 11.2-31 48-54.59 80.79-51.87 55.14 4.59 89.43 58.18 70.6 110.31-7.06 19.44-31.91 43.25-50.39 48.25z"/><path d="m7312 7101c-67.44 18.31-124.45-41.89-101-106.69 11.2-31 48-54.6 80.79-51.87 55.14 4.59 89.44 58.18 70.6 110.31-7.05 19.42-31.9 43.25-50.39 48.25z"/><path d="m6556.11 7513.78c-67.44 18.31-124.45-41.89-101-106.69 11.2-31 48-54.6 80.79-51.87 55.14 4.59 89.44 58.17 70.6 110.31-7.06 19.47-31.91 43.23-50.39 48.25z"/><path d="m6005.73 9090.08c-67.45 18.31-124.45-41.89-101-106.69 11.2-31 48-54.6 80.79-51.87 55.13 4.59 89.43 58.18 70.59 110.31-7.05 19.42-31.9 43.24-50.38 48.25z"/><path d="m4948 7735.06c-67.44 18.31-124.45-41.89-101-106.69 11.2-31 48-54.6 80.79-51.87 55.14 4.59 89.43 58.18 70.6 110.31-7.02 19.42-31.87 43.24-50.39 48.25z"/><path d="m10912.48 4347.32c-67.45 18.31-124.46-41.89-101-106.69 11.2-31 48-54.6 80.78-51.87 55.14 4.58 89.44 58.17 70.6 110.31-7.05 19.42-31.86 43.23-50.38 48.25z"/><path d="m9116.78 5292.21c-67.44 18.31-124.45-41.89-101-106.69 11.2-31 48-54.6 80.79-51.87 55.14 4.58 89.43 58.17 70.6 110.31-7.06 19.42-31.91 43.23-50.39 48.25z"/><path d="m8815.39 6372.07c-67.44 18.31-124.45-41.89-101-106.69 11.2-31 48-54.6 80.79-51.87 55.14 4.59 89.44 58.18 70.6 110.31-7.06 19.42-31.91 43.24-50.39 48.25z"/><path d="m6862.79 9800.81c-67.45 18.31-124.45-41.89-101-106.69 11.2-31 48-54.6 80.79-51.87 55.13 4.59 89.43 58.18 70.59 110.31-7.05 19.44-31.9 43.24-50.38 48.25z"/><path d="m6486.47 2014c-67.45 18.31-124.46-41.89-101-106.69 11.2-31 47.95-54.6 80.78-51.87 55.14 4.58 89.44 58.17 70.6 110.31-7.05 19.39-31.85 43.25-50.38 48.25z"/><path d="m6467.67 8014.34c-67.44 18.31-124.45-41.89-101-106.69 11.2-31 48-54.6 80.79-51.87 55.14 4.58 89.43 58.17 70.6 110.31-7.06 19.42-31.91 43.23-50.39 48.25z"/><path d="m5689.67 7250.16c-67.45 18.31-124.46-41.89-101-106.7 11.2-31 47.95-54.59 80.78-51.86 55.14 4.58 89.44 58.17 70.6 110.3-7.05 19.42-31.9 43.24-50.38 48.26z"/><path d="m5914.52 7641c-67.45 18.31-124.45-41.89-101-106.69 11.2-31 48-54.6 80.79-51.87 55.13 4.59 89.43 58.18 70.59 110.31-7.05 19.45-31.9 43.25-50.38 48.25z"/><path d="m5739.17 8535.55c-67.44 18.31-124.45-41.89-101-106.69 11.2-31 48-54.6 80.79-51.87 55.14 4.59 89.43 58.17 70.6 110.31-7.06 19.42-31.91 43.23-50.39 48.25z"/><path d="m9884 6839.48c-67.45 18.31-124.45-41.89-101-106.7 11.2-31 48-54.59 80.79-51.86 55.13 4.58 89.43 58.17 70.6 110.31-7.07 19.42-31.92 43.23-50.39 48.25z"/><path d="m6272.46 7685.21c-67.45 18.3-124.46-41.89-101-106.7 11.19-31 47.95-54.59 80.78-51.86 55.14 4.58 89.44 58.17 70.6 110.3-7.06 19.42-31.9 43.24-50.38 48.26z"/><path d="m7044.55 7379.76c-67.45 18.31-124.45-41.89-101-106.69 11.2-31 48-54.6 80.79-51.87 55.13 4.59 89.43 58.18 70.6 110.31-7.06 19.42-31.94 43.24-50.39 48.25z"/><path d="m10046.51 4233.1c-67.44 18.31-124.45-41.89-101-106.7 11.2-31 48-54.59 80.79-51.86 55.14 4.58 89.44 58.17 70.6 110.31-7.06 19.42-31.9 43.23-50.39 48.25z"/><path d="m4347.91 9729.18c-67.45 18.3-124.46-41.89-101-106.7 11.2-31 48-54.59 80.79-51.86 55.13 4.58 89.43 58.17 70.59 110.3-7.05 19.42-31.9 43.24-50.38 48.26z"/><path d="m5462.73 10535.83c-67.45 18.31-124.45-41.88-101-106.69 11.2-31 48-54.6 80.79-51.87 55.13 4.59 89.43 58.18 70.59 110.31-7.05 19.42-31.9 43.24-50.38 48.25z"/><path d="m9604.79 8594.53c-67.44 18.31-124.45-41.89-101-106.7 11.2-31 48-54.59 80.79-51.86 55.13 4.58 89.43 58.17 70.6 110.3-7.06 19.42-31.91 43.24-50.39 48.26z"/><path d="m1386.45 8295.14c-67.45 18.31-124.46-41.89-101-106.7 11.2-31 47.95-54.59 80.78-51.86 55.14 4.58 89.44 58.17 70.6 110.31-7.05 19.42-31.9 43.23-50.38 48.25z"/><path d="m3116.48 7470.36c33.86 0 60.6 15.6 75.48 43.92 21.2 40.31 6.46 87.68-33.87 108.89-75.77 39.83-152.36-49.13-102.87-119.5 11.87-16.89 42.11-33.33 61.26-33.31z"/><path d="m4533.68 6670c-61.82-32.59-62.48-115.49-1.17-146.94 29.33-15 72.31-7.24 94.46 17.14 37.21 40.95 25.76 103.54-23.56 128.83-18.41 9.4-52.79 9.88-69.73.97z"/><path d="m4832.43 6767.89c-61.83-32.6-62.48-115.5-1.17-146.94 29.32-15 72.3-7.24 94.46 17.14 37.21 40.94 25.76 103.53-23.57 128.82-18.37 9.43-52.78 9.91-69.72 1z"/><path d="m5024.74 6729.42c-61.82-32.59-62.48-115.49-1.17-146.94 29.33-15 72.31-7.24 94.46 17.14 37.21 40.95 25.77 103.54-23.56 128.83-18.37 9.42-52.79 9.9-69.73 1z"/><path d="m4755.5 6993.86c-61.82-32.59-62.48-115.5-1.17-146.94 29.33-15 72.31-7.24 94.46 17.14 37.21 40.94 25.76 103.53-23.56 128.83-18.38 9.42-52.79 9.9-69.73 1z"/><path d="m5063.21 7109.25c-61.83-32.59-62.48-115.5-1.17-146.94 29.32-15 72.3-7.24 94.46 17.14 37.21 40.94 25.76 103.53-23.57 128.83-18.37 9.42-52.79 9.9-69.72 1z"/><path d="m5724.38 6606.12c-61.82-32.59-62.48-115.5-1.17-146.94 29.33-15 72.31-7.24 94.46 17.14 37.21 41 25.76 103.53-23.56 128.83-18.37 9.42-52.79 9.9-69.73.97z"/><path d="m5223.1 6525.64c-18.21-9.27-40.48-36.26-43.58-52.84-7-37.34 5.47-69 35.7-90.58 10.92-7.79 18.19-9.35 43.37-9.35 34 0 47.15 6.47 67.56 33.23 9.85 12.93 11.08 17.95 11.08 45.41s-1.23 32.48-11.08 45.4c-18.94 24.83-33.93 32.93-63.44 34.29-18.64.86-30.18-.75-39.61-5.56z"/><path d="m3974.12 6444.81c-61.82-32.6-62.48-115.5-1.16-146.94 29.32-15 72.3-7.25 94.46 17.14 37.2 40.94 25.76 103.53-23.57 128.82-18.37 9.43-52.79 9.91-69.73 1z"/><path d="m4869.42 6210.9c-61.82-32.59-62.48-115.5-1.17-146.94 29.32-15 72.3-7.24 94.46 17.14 37.21 40.95 25.76 103.53-23.57 128.83-18.37 9.42-52.78 9.9-69.72.97z"/><path d="m5623.69 6239.54c-61.82-32.59-62.48-115.5-1.17-146.94 29.32-15 72.3-7.24 94.46 17.14 37.21 40.95 25.76 103.53-23.57 128.83-18.41 9.43-52.78 9.9-69.72.97z"/><path d="m4168.15 6073.47c-61.82-32.59-62.48-115.5-1.17-146.94 29.33-15 72.31-7.24 94.47 17.14 37.2 40.95 25.76 103.53-23.57 128.83-18.37 9.42-52.79 9.9-69.73 1z"/><path d="m5430.17 5957.9c-61.82-32.59-62.48-115.5-1.17-146.94 29.32-15 72.3-7.24 94.46 17.14 37.21 40.94 25.76 103.53-23.57 128.82-18.37 9.43-52.78 9.91-69.72 1z"/><path d="m5154.59 5940.62c-61.82-32.59-62.48-115.5-1.17-146.94 29.33-15 72.31-7.24 94.47 17.14 37.2 41 25.76 103.53-23.57 128.83-18.37 9.42-52.79 9.9-69.73 1z"/><path d="m4716.17 5775.35c-61.82-32.59-62.48-115.5-1.17-146.94 29.33-15 72.31-7.24 94.46 17.14 37.21 40.95 25.76 103.53-23.56 128.83-18.38 9.42-52.79 9.9-69.73 1z"/><path d="m5934.09 5775.35c-61.82-32.59-62.48-115.5-1.17-146.94 29.33-15 72.31-7.24 94.46 17.14 37.21 40.95 25.76 103.53-23.56 128.83-18.38 9.42-52.82 9.9-69.73.97z"/><path d="m6353.82 5517.09c-29.95-15.79-46.38-42-46.38-74 0-45.55 35.1-80.62 80.66-80.62 71 0 107.13 83.55 59 136.5-21.32 23.48-66.48 32.25-93.28 18.12z"/><path d="m5803.6 5387.1c-30-15.78-46.38-42-46.38-74 0-45.54 35.09-80.62 80.66-80.62 71 0 107.13 83.55 59 136.5-21.32 23.49-66.48 32.25-93.28 18.12z"/><path d="m4087 5412.4c-61.82-32.6-62.48-115.5-1.16-146.94 29.32-15 72.3-7.25 94.46 17.14 37.2 40.94 25.76 103.53-23.57 128.82-18.33 9.43-52.73 9.91-69.73.98z"/><path d="m4741.33 5386.94c-61.82-32.59-62.48-115.5-1.17-146.94 29.33-15 72.31-7.24 94.46 17.14 37.21 40.95 25.76 103.53-23.56 128.83-18.38 9.42-52.79 9.9-69.73 1z"/><path d="m5224.31 5251.08c-30-15.79-46.38-42-46.38-74 0-45.55 35.09-80.62 80.66-80.62 71 0 107.13 83.55 59 136.5-21.32 23.48-66.48 32.25-93.28 18.12z"/><path d="m6227.58 5184.19c-29.95-15.79-46.37-42-46.37-74 0-45.55 35.09-80.62 80.65-80.62 71 0 107.13 83.55 59 136.5-21.33 23.47-66.49 32.24-93.3 18.11z"/><path d="m4667.77 4928.45c-61.82-32.59-62.48-115.49-1.16-146.94 29.32-15 72.3-7.24 94.46 17.14 37.2 41 25.76 103.54-23.57 128.83-18.37 9.42-52.79 9.9-69.73 1z"/><path d="m5223.1 4876.2c-18.21-9.27-40.48-36.26-43.58-52.83-7-37.35 5.47-69 35.7-90.59 10.92-7.78 18.19-9.35 43.37-9.35 34 0 47.15 6.48 67.56 33.24 9.85 12.92 11.08 17.94 11.08 45.4s-1.23 32.48-11.08 45.4c-18.94 24.83-33.93 32.93-63.44 34.3-18.64.86-30.18-.76-39.61-5.57z"/><path d="m6513.59 4603.69c-29.95-15.79-46.38-42-46.38-74 0-45.55 35.09-80.62 80.66-80.62 71 0 107.13 83.55 59 136.5-21.32 23.48-66.48 32.25-93.28 18.12z"/><path d="m6029.28 4661.1c-29.95-15.79-46.38-42-46.38-74 0-45.55 35.09-80.62 80.66-80.62 71 0 107.13 83.55 59 136.5-21.32 23.48-66.48 32.25-93.28 18.12z"/><path d="m6288.67 4712.83c-29.95-15.79-46.38-42-46.38-74 0-45.55 35.09-80.62 80.66-80.62 85.6 0 112 114.39 35.44 153.64-18.39 9.43-52.79 9.91-69.72.98z"/><path d="m5829.31 4027.54c57-40.46 131.26-3.64 131.65 65.27.19 33-26.17 67.79-57.93 76.56-53.33 14.72-104-23.74-104.32-79.17-.12-20.65 14.98-51.58 30.6-62.66z"/><path d="m6007.2 3719.83c57-40.46 131.26-3.63 131.65 65.27.19 33-26.17 67.79-57.92 76.56-53.33 14.73-104-23.73-104.33-79.17-.12-20.64 14.98-51.57 30.6-62.66z"/><path d="m5599.05 4448.33c57-40.47 131.27-3.64 131.66 65.26.18 33-26.17 67.8-57.93 76.56-53.33 14.73-104-23.73-104.33-79.16-.11-20.65 15-51.58 30.6-62.67z"/><path d="m5222.56 5302.51c57-40.46 131.27-3.63 131.66 65.27.18 33-26.17 67.8-57.93 76.56-53.33 14.73-104-23.73-104.33-79.16-.11-20.65 15.04-51.58 30.6-62.67z"/><path d="m5555.38 4919.32c16.5-12.06 50.63-19.75 66.82-15 36.49 10.6 59.12 36 64.72 72.75 2 13.26.14 20.45-11.22 42.92-15.34 30.32-27.06 39.15-60.15 45.28-16 3-21 1.8-45.52-10.6s-28.43-15.75-35.51-30.37c-13.61-28.11-14.08-45.14-2-72.09 7.64-17 14.3-26.59 22.84-32.84z"/><path d="m6137.15 4020.16c57-40.46 131.27-3.64 131.65 65.27.19 33-26.16 67.79-57.92 76.56-53.33 14.72-104-23.74-104.33-79.17-.11-20.65 15-51.57 30.6-62.66z"/><path d="m5961.08 4761.19c57-40.46 131.27-3.63 131.66 65.27.18 33-26.17 67.79-57.93 76.56-53.33 14.72-104-23.74-104.33-79.17-.11-20.65 14.99-51.57 30.6-62.66z"/><path d="m5622.91 5464.82c57-40.46 131.27-3.63 131.66 65.27.18 33-26.17 67.79-57.93 76.56-53.33 14.73-104-23.73-104.33-79.16-.11-20.65 14.99-51.58 30.6-62.67z"/><path d="m6249.22 4282.8c57-40.46 131.26-3.63 131.65 65.27.19 33-26.17 67.79-57.92 76.56-53.33 14.73-104-23.73-104.33-79.17-.12-20.64 15-51.57 30.6-62.66z"/><path d="m6052.84 5162c57-40.46 131.27-3.63 131.66 65.27.18 33-26.17 67.79-57.93 76.56-53.33 14.73-104-23.73-104.33-79.16-.11-20.65 15-51.58 30.6-62.67z"/><path d="m6418.92 4777.72c57-40.46 131.26-3.64 131.65 65.27.19 33-26.17 67.79-57.92 76.56-53.34 14.72-104-23.74-104.33-79.17-.12-20.65 15-51.57 30.6-62.66z"/><path d="m5869.29 5864.57c57-40.46 131.26-3.64 131.65 65.27.19 32.95-26.17 67.79-57.92 76.56-53.34 14.72-104-23.74-104.33-79.17-.12-20.65 14.98-51.58 30.6-62.66z"/><path d="m5841.75 5059.18c57-40.46 131.26-3.64 131.65 65.26.19 33-26.16 67.8-57.92 76.56-53.33 14.73-104-23.73-104.33-79.16-.15-20.65 14.99-51.58 30.6-62.66z"/><path d="m5752.26 4642.71c57-40.46 131.27-3.63 131.66 65.27.18 33-26.17 67.79-57.93 76.56-53.33 14.73-104-23.73-104.33-79.17-.11-20.64 14.99-51.57 30.6-62.66z"/><path d="m5267 5527.27c57-40.46 131.27-3.64 131.66 65.27.18 32.95-26.17 67.79-57.93 76.56-53.33 14.72-104-23.74-104.33-79.17-.15-20.65 14.95-51.58 30.6-62.66z"/><path d="m4842.57 5389.26c57-40.46 131.27-3.64 131.66 65.27.18 32.95-26.17 67.79-57.93 76.56-53.33 14.72-104-23.74-104.33-79.17-.11-20.65 15.03-51.58 30.6-62.66z"/><path d="m4864.27 5747.55c57-40.46 131.26-3.64 131.65 65.26.19 33-26.17 67.8-57.92 76.56-53.34 14.73-104-23.73-104.33-79.16-.12-20.65 14.98-51.58 30.6-62.66z"/><path d="m4740.36 5916.2c57-40.46 131.26-3.64 131.65 65.26.19 33-26.17 67.8-57.92 76.56-53.33 14.73-104-23.73-104.33-79.16-.12-20.65 14.99-51.58 30.6-62.66z"/><path d="m4736.92 6236.29c57-40.46 131.26-3.64 131.65 65.27.19 32.95-26.17 67.79-57.92 76.56-53.33 14.72-104-23.74-104.33-79.17-.12-20.65 14.98-51.58 30.6-62.66z"/><path d="m5216.52 6133.46c57-40.46 131.26-3.63 131.65 65.27.19 33-26.17 67.79-57.92 76.56-53.33 14.73-104-23.73-104.33-79.17-.12-20.64 14.99-51.57 30.6-62.66z"/><path d="m5856 6119.37c57-40.46 131.26-3.63 131.65 65.27.19 33-26.17 67.79-57.92 76.56-53.33 14.73-104-23.73-104.33-79.17-.17-20.64 14.94-51.57 30.6-62.66z"/><path d="m5597.38 6294.8c57-40.46 131.26-3.64 131.65 65.27.19 33-26.17 67.79-57.92 76.56-53.33 14.72-104-23.74-104.33-79.17-.12-20.65 14.99-51.58 30.6-62.66z"/><path d="m6103.33 6666.52c57-40.46 131.27-3.64 131.65 65.27.19 32.95-26.16 67.79-57.92 76.56-53.33 14.72-104-23.74-104.33-79.17-.11-20.65 14.99-51.58 30.6-62.66z"/><path d="m5748.82 6790.42c57-40.46 131.26-3.63 131.65 65.27.19 33-26.16 67.8-57.92 76.56-53.33 14.73-104-23.73-104.33-79.16-.12-20.65 14.99-51.58 30.6-62.67z"/><path d="m5218.78 6759.45c57-40.46 131.26-3.64 131.65 65.27.19 32.95-26.17 67.79-57.92 76.56-53.33 14.72-104-23.74-104.33-79.17-.12-20.65 14.98-51.58 30.6-62.66z"/><path d="m5329.36 7187.35c57-40.46 131.26-3.63 131.65 65.27.19 33-26.17 67.79-57.92 76.56-53.33 14.73-104-23.73-104.33-79.17-.12-20.64 14.99-51.57 30.6-62.66z"/><path d="m6051.7 6012.57c57-40.46 131.27-3.64 131.66 65.27.18 32.95-26.17 67.79-57.93 76.56-53.33 14.72-104-23.74-104.33-79.17-.1-20.65 14.99-51.58 30.6-62.66z"/><path d="m6354.59 6071.37c57-40.46 131.26-3.64 131.65 65.26.19 33-26.17 67.8-57.92 76.56-53.34 14.73-104-23.73-104.33-79.16-.12-20.65 15.01-51.58 30.6-62.66z"/><path d="m6738 5707.17c57-40.46 131.26-3.63 131.65 65.27.19 33-26.17 67.79-57.92 76.56-53.33 14.73-104-23.73-104.33-79.16-.13-20.65 14.97-51.58 30.6-62.67z"/><path d="m4585.48 6084.85c57-40.46 131.26-3.64 131.65 65.26.19 33-26.17 67.8-57.92 76.56-53.33 14.73-104-23.73-104.33-79.16-.12-20.65 14.98-51.58 30.6-62.66z"/><path d="m5050.23 5368.51c57-40.46 131.27-3.63 131.66 65.27.18 33-26.17 67.79-57.93 76.56-53.33 14.73-104-23.73-104.33-79.17-.11-20.64 14.99-51.57 30.6-62.66z"/><path d="m5774.15 6275.89c57-40.46 131.26-3.64 131.65 65.27.19 32.95-26.16 67.79-57.92 76.56-53.33 14.72-104-23.74-104.33-79.17-.12-20.65 14.99-51.55 30.6-62.66z"/><path d="m5814.89 5444c57-40.46 131.26-3.63 131.65 65.27.19 33-26.17 67.79-57.92 76.56-53.33 14.72-104-23.74-104.33-79.17-.12-20.66 14.99-51.54 30.6-62.66z"/><path d="m5418.4 5079.83c57-40.46 131.27-3.64 131.66 65.27.18 32.95-26.17 67.79-57.93 76.56-53.33 14.72-104-23.74-104.33-79.17-.11-20.65 14.99-51.58 30.6-62.66z"/><path d="m5952.31 5304.32c57-40.46 131.26-3.64 131.65 65.26.19 33-26.17 67.8-57.92 76.56-53.34 14.73-104-23.73-104.33-79.16-.12-20.65 14.98-51.58 30.6-62.66z"/><path d="m6107.54 5604.3c57-40.46 131.26-3.63 131.65 65.27.19 33-26.17 67.79-57.92 76.56-53.34 14.72-104-23.74-104.33-79.17-.12-20.65 14.98-51.57 30.6-62.66z"/><path d="m6051.7 5795.73c57-40.46 131.27-3.63 131.66 65.27.18 33-26.17 67.79-57.93 76.56-53.33 14.73-104-23.74-104.33-79.17-.1-20.64 14.99-51.57 30.6-62.66z"/><path d="m5652.45 5830.15c57-40.46 131.26-3.64 131.65 65.27.19 33-26.17 67.79-57.92 76.56-53.33 14.72-104-23.74-104.33-79.17-.12-20.65 14.99-51.57 30.6-62.66z"/><path d="m5910.09 6409.43c27.6-19.6 58.41-22.43 87-8 40.64 20.55 56.11 67.69 35.54 108.36-32 63.36-122.9 57.89-148.44-8.94-11.36-29.62 1.19-73.85 25.9-91.42z"/><path d="m6334.57 5895.57c27.61-19.6 58.41-22.43 87-8 40.64 20.55 56.11 67.69 35.54 108.36-32 63.36-122.9 57.89-148.44-8.94-11.36-29.62 1.2-73.88 25.9-91.42z"/><path d="m6724.53 4995.54c57-40.46 131.26-3.63 131.65 65.27.19 33-26.17 67.79-57.92 76.56-53.33 14.72-104-23.74-104.33-79.17-.12-20.65 15-51.57 30.6-62.66z"/><path d="m6657.45 5467.77c27.6-19.6 58.41-22.43 87-8 40.64 20.55 56.11 67.69 35.54 108.35-32 63.37-122.9 57.9-148.44-8.94-11.36-29.61 1.2-73.87 25.9-91.41z"/><path d="m6310.83 6331.9c27.61-19.6 58.41-22.43 87-8 40.65 20.55 56.11 67.69 35.55 108.35-32.05 63.37-122.91 57.9-148.45-8.93-11.32-29.63 1.24-73.89 25.94-91.43z"/><path d="m7196.51 5116.73c57-40.46 131.26-3.64 131.65 65.27.19 32.95-26.16 67.79-57.92 76.56-53.33 14.72-104-23.74-104.33-79.17-.12-20.65 15-51.58 30.6-62.66z"/><path d="m6478.62 6715c27.61-19.6 58.41-22.43 87-8 40.65 20.55 56.11 67.69 35.55 108.35-32.05 63.37-122.91 57.9-148.45-8.93-11.36-29.6 1.2-73.86 25.9-91.42z"/><path d="m6913.44 6284.15c27.61-19.61 58.41-22.44 87-8 40.65 20.56 56.11 67.7 35.55 108.36-32.05 63.37-122.91 57.9-148.45-8.94-11.36-29.63 1.2-73.88 25.9-91.42z"/><path d="m6825 6691.35c27.61-19.6 58.41-22.43 87-8 40.64 20.55 56.1 67.69 35.54 108.35-38.63 76.39-152.62 48.32-153.11-37.7-.13-20.64 14.97-51.57 30.57-62.65z"/><path d="m5258.3 4176.35c69.89.08 109.05 73.16 69.42 129.52-19 27-60.63 40.05-91.59 28.78-52-18.92-71-79.65-39.09-125 11.88-16.88 42.12-33.32 61.26-33.3z"/><path d="m5407.35 3758.06c69.89.08 109 73.16 69.41 129.52-19 27-60.63 40.06-91.58 28.79-52-18.93-71-79.66-39.1-125 11.92-16.89 42.12-33.37 61.27-33.31z"/><path d="m5322.24 4433.79c69.89.08 109.05 73.15 69.42 129.52-19 27-60.63 40-91.59 28.78-52-18.92-71-79.65-39.09-125 11.88-16.89 42.11-33.33 61.26-33.31z"/><path d="m4047.17 4638c69.89.08 109.05 73.15 69.41 129.51-18.95 27-60.63 40.06-91.58 28.79-52-18.93-71-79.65-39.09-125 11.87-16.92 42.09-33.36 61.26-33.3z"/><path d="m4528.32 4475.92c20.44-.27 52.7 13.26 63.17 26.48 23.58 29.8 27.26 63.65 10.54 96.8-6 12-11.74 16.74-34 28.46-30.07 15.81-44.74 16.2-75.26 2-14.74-6.85-18.16-10.73-30.94-35s-14-29.32-11.32-45.35c5.21-30.79 14.7-44.93 40.19-59.87 16.1-9.44 27.07-13.38 37.65-13.51z"/><path d="m5526.88 4141.79c69.89.08 109.05 73.15 69.41 129.51-19 27-60.63 40.06-91.58 28.79-52-18.93-71-79.65-39.09-125 11.87-16.89 42.11-33.33 61.26-33.31z"/><path d="m4987.84 4589.92c69.89.08 109.05 73.15 69.41 129.51-19 27-60.63 40.06-91.58 28.79-52-18.93-71-79.65-39.1-125 11.88-16.89 42.12-33.33 61.27-33.3z"/><path d="m4593.59 3936c69.89.08 109.05 73.15 69.41 129.52-19 27-60.63 40-91.58 28.78-52-18.92-71-79.65-39.1-125 11.88-16.84 42.12-33.3 61.27-33.3z"/><path d="m4335.89 4996.46c69.89.08 109 73.16 69.42 129.52-19 27-60.64 40.06-91.59 28.79-52-18.93-71-79.66-39.09-125 11.87-16.89 42.11-33.33 61.26-33.31z"/><path d="m5940.67 4282.57c69.88.08 109.05 73.16 69.41 129.52-19 27-60.63 40.05-91.58 28.78-52-18.92-71-79.65-39.1-125 11.88-16.89 42.12-33.33 61.27-33.31z"/><path d="m4805.08 5004.94c69.89.08 109.05 73.15 69.42 129.51-19 27-60.63 40.06-91.59 28.79-52-18.93-71-79.65-39.09-125 11.88-16.89 42.12-33.33 61.26-33.3z"/><path d="m5326.17 4904.12c69.88.08 109.05 73.15 69.41 129.51-19 27-60.63 40.06-91.59 28.79-52-18.93-71-79.65-39.09-125 11.88-16.89 42.12-33.33 61.27-33.31z"/><path d="m4248.15 5470.88c69.89.08 109.05 73.15 69.42 129.52-19 27-60.64 40.05-91.59 28.78-52-18.93-71-79.65-39.09-125 11.87-16.88 42.11-33.32 61.26-33.3z"/><path d="m3965.45 5938.45c33.86 0 60.59 15.59 75.48 43.91 21.2 40.31 6.46 87.69-33.87 108.89-62.85 33-133.71-24.1-115.76-93.36 7.96-30.7 43.85-59.48 74.15-59.44z"/><path d="m4572.65 5637.44c33.85 0 60.59 15.59 75.48 43.91 21.19 40.32 6.46 87.69-33.88 108.89-62.85 33.05-133.7-24.1-115.75-93.36 7.96-30.7 43.85-59.47 74.15-59.44z"/><path d="m6051.92 4932.61c69.89.08 109.05 73.16 69.42 129.52-19 27-60.63 40.06-91.59 28.79-52-18.93-71-79.65-39.09-125 11.88-16.92 42.11-33.33 61.26-33.31z"/><path d="m5448.85 5258.79c69.88.08 109 73.16 69.41 129.52-19 27-60.63 40.06-91.58 28.79-52-18.93-71-79.66-39.1-125 11.88-16.89 42.12-33.33 61.27-33.31z"/><path d="m5120.37 5604.63c33.86 0 60.59 15.59 75.48 43.91 21.2 40.31 6.46 87.69-33.87 108.89-62.85 33-133.71-24.1-115.76-93.36 7.96-30.7 43.85-59.48 74.15-59.44z"/><path d="m4336.9 6107.66c33.86 0 60.59 15.59 75.48 43.91 21.2 40.31 6.46 87.69-33.87 108.89-62.85 33.05-133.71-24.1-115.76-93.36 8-30.7 43.85-59.48 74.15-59.44z"/><path d="m5801.25 5676.83c69.89.08 109.05 73.15 69.42 129.51-19 27-60.64 40.06-91.59 28.79-52-18.93-71-79.65-39.09-125 11.87-16.89 42.11-33.33 61.26-33.31z"/><path d="m5295.89 5935.88c20.43-.27 52.7 13.26 63.16 26.48 23.59 29.8 27.27 63.64 10.55 96.8-6 12-11.74 16.74-34 28.46-30.08 15.81-44.75 16.2-75.26 2-14.74-6.86-18.16-10.73-30.94-35s-14-29.32-11.32-45.35c5.21-30.79 14.7-44.93 40.19-59.87 16.1-9.44 27.06-13.38 37.65-13.51z"/><path d="m4251.44 6517.09c33.86 0 60.6 15.59 75.49 43.91 21.19 40.31 6.45 87.69-33.88 108.89-62.85 33-133.7-24.1-115.75-93.36 7.95-30.7 43.85-59.48 74.14-59.44z"/><path d="m4333.18 6964.22c33.85 0 60.59 15.59 75.48 43.92 21.2 40.31 6.46 87.68-33.87 108.89-62.86 33-133.71-24.1-115.76-93.36 7.97-30.67 43.85-59.48 74.15-59.45z"/><path d="m4855.54 6418.18c33.86 0 60.6 15.59 75.49 43.92 21.19 40.31 6.45 87.68-33.88 108.89-62.85 33-133.7-24.1-115.75-93.36 7.95-30.71 43.85-59.48 74.14-59.45z"/><path d="m4547.38 6698.66c33.86 0 60.59 15.59 75.48 43.91 21.2 40.32 6.46 87.69-33.87 108.89-75.77 39.84-152.36-49.12-102.88-119.49 11.89-16.89 42.12-33.33 61.27-33.31z"/><path d="m4667.58 7126.56c33.85 0 60.59 15.6 75.48 43.92 21.2 40.31 6.46 87.68-33.87 108.89-75.77 39.83-152.36-49.13-102.88-119.5 11.88-16.87 42.12-33.33 61.27-33.31z"/><path d="m6297.48 4815.63c49.73 49.09 26.36 128.63-41.42 141-32.43 5.91-71.31-14-85.46-43.75-23.76-50 5.32-106.56 59.85-116.49 20.32-3.72 53.4 5.78 67.03 19.24z"/><path d="m5891 4878.06c49.74 49.09 26.37 128.64-41.42 141-32.42 5.9-71.31-14-85.45-43.75-23.76-50 5.31-106.56 59.85-116.49 20.31-3.7 53.39 5.8 67 19.25z"/><path d="m5072.81 4835.59c49.74 49.09 26.37 128.64-41.42 141-32.43 5.91-71.31-14-85.46-43.75-23.76-50 5.32-106.55 59.86-116.49 20.31-3.72 53.39 5.79 67.02 19.24z"/><path d="m5587.84 4641.28c14.74 14.15 28.24 46.43 26.42 63.19-4.11 37.78-25.23 64.48-60.41 76.37-12.7 4.29-20.11 3.69-44.21-3.6-32.52-9.84-43.25-19.85-55-51.38-5.7-15.22-5.42-20.38 2.53-46.66s10.58-30.74 23.75-40.25c25.32-18.29 42-21.7 70.65-14.46 18.1 4.57 28.67 9.46 36.31 16.79z"/><path d="m6639.46 5273c49.74 49.1 26.37 128.64-41.42 141-32.42 5.91-71.3-14-85.45-43.75-23.76-50 5.31-106.56 59.85-116.49 20.31-3.7 53.39 5.8 67 19.25z"/><path d="m6680.55 4652.78c49.74 49.1 26.37 128.64-41.42 141-32.43 5.91-71.31-14-85.46-43.75-23.76-50 5.32-106.56 59.86-116.49 20.31-3.71 53.39 5.79 67.02 19.24z"/><path d="m5703.1 5299.26c49.74 49.09 26.37 128.64-41.42 141-32.42 5.91-71.31-14-85.45-43.75-23.76-50 5.31-106.56 59.85-116.49 20.31-3.72 53.39 5.78 67.02 19.24z"/><path d="m5047.62 5235.1c49.74 49.09 26.37 128.64-41.42 141-32.42 5.9-71.31-14-85.45-43.76-23.76-50 5.31-106.55 59.85-116.49 20.31-3.7 53.4 5.8 67.02 19.25z"/><path d="m6585.5 5579.78c49.74 49.09 26.37 128.64-41.42 141-32.42 5.91-71.3-14-85.45-43.75-23.76-50 5.31-106.56 59.85-116.49 20.31-3.7 53.39 5.81 67 19.26z"/><path d="m5530.57 5456.42c49.74 49.09 26.37 128.64-41.42 141-32.42 5.91-71.3-14-85.45-43.75-23.76-50 5.31-106.56 59.85-116.49 20.31-3.7 53.39 5.8 67 19.26z"/><path d="m5552.61 5643.15c49.74 49.1 26.37 128.64-41.42 141-32.42 5.9-71.31-14-85.45-43.75-23.76-50 5.31-106.56 59.85-116.49 20.31-3.7 53.39 5.8 67 19.25z"/><path d="m4569.62 5346.35c49.74 49.09 26.37 128.64-41.42 141-32.43 5.9-71.31-14-85.45-43.76-23.77-50 5.31-106.55 59.85-116.48 20.31-3.71 53.4 5.79 67.02 19.24z"/><path d="m4040.12 5481.13c24.09 23.78 32.23 53.63 23 84.25-13.19 43.6-56.93 67-100.55 53.82-68-20.56-78.35-111-17-147.74 27.22-16.29 72.98-11.61 94.55 9.67z"/><path d="m4635.77 5913c24.09 23.78 32.23 53.63 23 84.25-13.19 43.6-56.93 67-100.55 53.82-68-20.56-78.35-111-17-147.74 27.22-16.33 72.98-11.62 94.55 9.67z"/><path d="m6232.5 6228.48c49.73 49.1 26.36 128.64-41.42 141-32.43 5.91-71.31-14-85.46-43.75-23.76-50 5.32-106.56 59.85-116.49 20.32-3.71 53.4 5.76 67.03 19.24z"/><path d="m5501.65 6168.52c49.74 49.09 26.37 128.64-41.42 141-32.42 5.91-71.3-14-85.45-43.75-23.76-50 5.32-106.55 59.85-116.49 20.32-3.7 53.4 5.81 67 19.26z"/><path d="m5100.67 5922.86c24.1 23.79 32.24 53.63 23 84.26-13.18 43.59-56.92 67-100.54 53.81-68-20.56-78.35-111-17-147.74 27.21-16.29 72.98-11.61 94.54 9.67z"/><path d="m4313.39 5748.75c24.1 23.78 32.24 53.63 23 84.25-13.18 43.59-56.92 67-100.54 53.82-68-20.56-78.35-111-17-147.74 27.21-16.3 73-11.61 94.54 9.67z"/><path d="m5524.32 6377.09c49.74 49.1 26.37 128.64-41.42 141-32.42 5.91-71.3-14-85.45-43.75-23.76-50 5.32-106.56 59.85-116.49 20.32-3.7 53.4 5.8 67 19.25z"/><path d="m5113.77 6268.27c14.74 14.15 28.24 46.43 26.42 63.19-4.11 37.78-25.23 64.48-60.41 76.37-12.7 4.29-20.11 3.69-44.21-3.6-32.52-9.84-43.25-19.85-55-51.37-5.7-15.23-5.42-20.39 2.53-46.67s10.58-30.74 23.75-40.25c25.32-18.28 42-21.7 70.65-14.46 18.1 4.57 28.67 9.46 36.31 16.79z"/><path d="m3837.87 6094.09c24.1 23.78 32.24 53.62 23 84.25-13.18 43.59-56.92 67-100.54 53.81-68-20.55-78.35-111-17-147.74 27.22-16.29 72.98-11.61 94.54 9.68z"/><path d="m4478.81 6371.77c24.1 23.79 32.23 53.63 23 84.26-13.18 43.59-56.93 67-100.54 53.81-68-20.55-78.35-111-17-147.74 27.21-16.29 72.98-11.61 94.54 9.67z"/><path d="m3921.32 6431.11c24.1 23.78 32.24 53.63 23 84.25-13.18 43.59-56.92 67-100.54 53.82-81.93-24.79-74.08-141.91 10.55-157.33 20.29-3.7 53.37 5.81 66.99 19.26z"/></g><path d="m5535.48 6021.81-86.19 212.4" fill="none" stroke="#ed1c24" stroke-miterlimit="10" stroke-width="6"/><path d="m8131.88 2646.13c57-40.46 131.26-3.64 131.65 65.27.19 32.95-26.17 67.79-57.92 76.56-53.33 14.72-104-23.74-104.33-79.17-.12-20.65 14.98-51.58 30.6-62.66z" fill="#231f20"/><path d="m8797.24 823.32c69.89.07 109.05 73.15 69.42 129.51-19 27-60.63 40.06-91.59 28.79-52-18.93-71-79.65-39.09-125 11.88-16.89 42.11-33.33 61.26-33.3z" fill="#231f20"/><path d="m6288.67 4712.83c-29.95-15.79-46.38-42-46.38-74 0-45.55 35.09-80.62 80.66-80.62 85.6 0 112 114.39 35.44 153.64-18.39 9.43-52.79 9.91-69.72.98z" fill="#231f20"/><path d="m6249.22 4282.8c57-40.46 131.26-3.63 131.65 65.27.19 33-26.17 67.79-57.92 76.56-53.33 14.73-104-23.73-104.33-79.17-.12-20.64 15-51.57 30.6-62.66z" fill="#231f20"/><path d="m5553.35 6109.59c-67.45 18.3-124.46-41.89-101-106.7 11.19-31 47.95-54.59 80.78-51.86 55.14 4.58 89.44 58.17 70.6 110.3-7.06 19.42-31.9 43.24-50.38 48.26z" fill="#231f20"/><path d="m5501.65 6168.52c49.74 49.09 26.37 128.64-41.42 141-32.42 5.91-71.3-14-85.45-43.75-23.76-50 5.32-106.55 59.85-116.49 20.32-3.7 53.4 5.81 67 19.26z" fill="#231f20"/><path d="m4248.15 5470.88c69.89.08 109.05 73.15 69.42 129.52-19 27-60.64 40.05-91.59 28.78-52-18.93-71-79.65-39.09-125 11.87-16.88 42.11-33.32 61.26-33.3z" fill="#231f20"/><path d="m4572.65 5637.44c33.85 0 60.59 15.59 75.48 43.91 21.19 40.32 6.46 87.69-33.88 108.89-62.85 33.05-133.7-24.1-115.75-93.36 7.96-30.7 43.85-59.47 74.15-59.44z" fill="#231f20"/><path d="m3781.94 10775.09c-44.33 54-125.68 38-144.18-28.34-8.85-31.75 7.41-72.29 35.74-89.1 47.58-28.24 106.59-4.46 121.48 48.93 5.54 19.89-.89 53.7-13.04 68.51z" fill="#231f20"/><path d="m4347.91 9729.18c-67.45 18.3-124.46-41.89-101-106.7 11.2-31 48-54.59 80.79-51.86 55.13 4.58 89.43 58.17 70.59 110.3-7.05 19.42-31.9 43.24-50.38 48.26z" fill="#231f20"/><path d="m1431.43 5337.4c69.89.07 109 73.15 69.41 129.51-18.95 27-60.63 40.06-91.58 28.79-52-18.93-71-79.65-39.09-125 11.83-16.89 42.11-33.33 61.26-33.3z" fill="#231f20"/><path d="m1902.46 5998.68c-44.33 54-125.69 38-144.19-28.34-8.85-31.74 7.41-72.29 35.74-89.1 47.58-28.24 106.6-4.46 121.49 48.93 5.5 19.89-.89 53.71-13.04 68.51z" fill="#231f20"/></svg>
