<?xml version="1.0" encoding="utf-8"?>
<!-- Generator: Adobe Illustrator 26.0.2, SVG Export Plug-In . SVG Version: 6.00 Build 0)  -->
<svg version="1.1" id="Layer_1" xmlns="http://www.w3.org/2000/svg" xmlns:xlink="http://www.w3.org/1999/xlink" x="0px" y="0px"
	 viewBox="0 0 92.7 34.2" style="enable-background:new 0 0 92.7 34.2;" xml:space="preserve">
<style type="text/css">
	.st0{fill:#84C2EA;}
	.st1{fill:#54C3BB;}
	.st2{fill:#8BC53F;}
</style>
<path class="st0" d="M33,16.8c0,10.3-7.6,16.9-16.5,16.9S0,27.2,0,16.9C0,6.5,7.7,0,16.5,0S33,6.5,33,16.8z"/>
<path class="st1" d="M37.2,0.4l8.8,0c5.7,0,9.8,2.5,11.8,4.5c2.1,2.1,4.9,5.9,4.9,11.8c0,5.9-2.8,9.7-4.9,11.8
	c-2.1,2.1-6.2,4.6-11.8,4.6l-8.8,0L37.2,0.4z"/>
<path class="st2" d="M67.1,0.4l8.8,0c5.7,0,9.8,2.5,11.8,4.5c2.1,2.1,4.9,5.9,4.9,11.8c0,5.9-2.8,9.7-4.9,11.8
	c-2.1,2.1-6.2,4.6-11.8,4.6l-8.8,0L67.1,0.4z"/>
</svg>
