<?xml version="1.0" encoding="utf-8"?>
<!-- Generator: Adobe Illustrator 26.0.2, SVG Export Plug-In . SVG Version: 6.00 Build 0)  -->
<svg version="1.1" id="Layer_1" xmlns="http://www.w3.org/2000/svg" xmlns:xlink="http://www.w3.org/1999/xlink" x="0px" y="0px"
	 viewBox="0 0 698.6 367.2" style="enable-background:new 0 0 698.6 367.2;" xml:space="preserve">
<style type="text/css">
	.st0{fill:#84C2EA;}
	.st1{fill:#54C3BB;}
	.st2{fill:#8BC53F;}
</style>
<path class="st0" d="M248.6,126.9c0.1,77.5-57.3,127.1-124.1,127.2C57.8,254.2,0.3,204.7,0.2,127.2C0.1,49,58.6,0.1,124.3,0
	S248.6,48.8,248.6,126.9z"/>
<path class="st1" d="M280.7,3.4l66.4-0.1c42.8,0,73.9,18.5,89.3,34.2c15.7,16,37.2,44.6,37.2,88.8c0.1,44.3-21.3,72.8-37,88.9
	c-15.7,16.1-46.4,34.3-89.2,34.4l-66.4,0.1L280.7,3.4z"/>
<path class="st2" d="M505.7,3.1L572.1,3c42.8,0,73.9,18.5,89.3,34.2c15.7,16,37.2,44.6,37.2,88.8c0.1,44.3-21.3,72.8-37,88.9
	c-15.7,16.1-46.4,34.3-89.2,34.4l-66.4,0.1L505.7,3.1z"/>
</svg>
