<?xml version="1.0" encoding="UTF-8"?><svg id="Layer_1" xmlns="http://www.w3.org/2000/svg" viewBox="0 0 136.02 154.88"><defs><style>.cls-1{fill:#f7d394;}.cls-2{fill:#fff;}.cls-3{fill:#eb9538;}</style></defs><rect class="cls-2" y="0" width="136.02" height="154.88"/><g><rect class="cls-3" x="110.84" y="132.32" width="22.21" height="22.21" transform="translate(265.37 21.49) rotate(90)"/><path class="cls-1" d="m23.29,88.2h21.14s0,22.21,0,22.21h-13.46c9.73,15.94,27.27,26.57,47.31,26.57h1.76c7.65,0,14.94-1.55,21.57-4.36h-12.76s0-22.21,0-22.21h22.21s0,17.07,0,17.07c14.7-9.96,24.35-26.79,24.35-45.88h0c0-30.59-24.8-55.39-55.38-55.39h-1.76c-3.99,0-7.89.43-11.64,1.23v16.32s-22.21,0-22.21,0v-6c-13.1,10.13-21.53,26-21.53,43.83h0c0,2.23.14,4.43.39,6.6Zm21.14-22.21h44.43s0,22.21,0,22.21h-44.43s0-22.21,0-22.21Z"/><g><rect class="cls-3" x="88.86" y="65.98" width="22.21" height="22.21" transform="translate(177.06 -22.87) rotate(90)"/><rect class="cls-3" x="66.64" y="88.2" width="22.21" height="22.21" transform="translate(177.06 21.55) rotate(90)"/><rect class="cls-3" x="66.64" y="43.77" width="22.21" height="22.21" transform="translate(22.87 132.63) rotate(-90)"/><rect class="cls-3" x="0" y="65.98" width="22.21" height="22.21" transform="translate(-65.98 88.2) rotate(-90)"/><rect class="cls-3" x="22.21" y="0" width="22.21" height="22.21" transform="translate(44.43 -22.21) rotate(90)"/></g></g></svg>